<mxfile host="app.diagrams.net" modified="2023-03-09T02:19:28.468Z" agent="5.0 (Macintosh; Intel Mac OS X 10_15_7) AppleWebKit/537.36 (KHTML, like Gecko) Chrome/110.0.0.0 Safari/537.36" etag="PDgYsOJrdI_70xwT47IZ" version="21.0.2" type="github">
  <diagram name="第 1 页" id="hzZ-yhVWfXdcQBn5KG_5">
    <mxGraphModel dx="1194" dy="534" grid="1" gridSize="10" guides="1" tooltips="1" connect="1" arrows="1" fold="1" page="1" pageScale="1" pageWidth="827" pageHeight="1169" math="0" shadow="0">
      <root>
        <mxCell id="0" />
        <mxCell id="1" parent="0" />
        <mxCell id="-s-YMTsCyma7wOPpWQ3m-1" value="" style="verticalLabelPosition=bottom;verticalAlign=top;html=1;shape=mxgraph.basic.patternFillRect;fillStyle=vert;step=5;fillStrokeWidth=0.2;fillStrokeColor=#dddddd;shadow=1;fillColor=#66FF66;" vertex="1" parent="1">
          <mxGeometry x="190" y="50" width="960" height="120" as="geometry" />
        </mxCell>
        <mxCell id="-s-YMTsCyma7wOPpWQ3m-5" value="" style="image;html=1;image=img/lib/clip_art/computers/Network_128x128.png" vertex="1" parent="1">
          <mxGeometry x="280" y="70" width="80" height="80" as="geometry" />
        </mxCell>
        <mxCell id="-s-YMTsCyma7wOPpWQ3m-6" value="" style="image;html=1;image=img/lib/clip_art/telecommunication/iPhone_128x128.png" vertex="1" parent="1">
          <mxGeometry x="690" y="65" width="80" height="80" as="geometry" />
        </mxCell>
        <mxCell id="-s-YMTsCyma7wOPpWQ3m-7" value="" style="image;html=1;image=img/lib/clip_art/computers/iPad_128x128.png" vertex="1" parent="1">
          <mxGeometry x="480" y="70" width="80" height="80" as="geometry" />
        </mxCell>
        <mxCell id="-s-YMTsCyma7wOPpWQ3m-8" value="&lt;font style=&quot;font-size: 24px;&quot;&gt;展示层&lt;/font&gt;" style="text;html=1;align=center;verticalAlign=middle;resizable=0;points=[];autosize=1;strokeColor=none;fillColor=none;" vertex="1" parent="1">
          <mxGeometry x="60" y="85" width="100" height="40" as="geometry" />
        </mxCell>
        <mxCell id="-s-YMTsCyma7wOPpWQ3m-9" value="" style="endArrow=none;dashed=1;html=1;rounded=0;" edge="1" parent="1">
          <mxGeometry width="50" height="50" relative="1" as="geometry">
            <mxPoint x="80" y="240" as="sourcePoint" />
            <mxPoint x="1150" y="240" as="targetPoint" />
          </mxGeometry>
        </mxCell>
        <mxCell id="-s-YMTsCyma7wOPpWQ3m-10" value="" style="rounded=0;whiteSpace=wrap;html=1;strokeColor=#FF8000;" vertex="1" parent="1">
          <mxGeometry x="200" y="280" width="960" height="120" as="geometry" />
        </mxCell>
        <mxCell id="-s-YMTsCyma7wOPpWQ3m-11" value="&lt;span style=&quot;font-size: 24px;&quot;&gt;负载层&lt;/span&gt;" style="text;html=1;align=center;verticalAlign=middle;resizable=0;points=[];autosize=1;strokeColor=none;fillColor=none;" vertex="1" parent="1">
          <mxGeometry x="80" y="320" width="100" height="40" as="geometry" />
        </mxCell>
        <mxCell id="-s-YMTsCyma7wOPpWQ3m-12" value="" style="shape=image;verticalLabelPosition=bottom;labelBackgroundColor=default;verticalAlign=top;aspect=fixed;imageAspect=0;image=data:image/png,iVBORw0KGgoAAAANSUhEUgAAAMoAAAC6CAYAAADvR9JpAAAEDmlDQ1BrQ0dDb2xvclNwYWNlR2VuZXJpY1JHQgAAOI2NVV1oHFUUPpu5syskzoPUpqaSDv41lLRsUtGE2uj+ZbNt3CyTbLRBkMns3Z1pJjPj/KRpKT4UQRDBqOCT4P9bwSchaqvtiy2itFCiBIMo+ND6R6HSFwnruTOzu5O4a73L3PnmnO9+595z7t4LkLgsW5beJQIsGq4t5dPis8fmxMQ6dMF90A190C0rjpUqlSYBG+PCv9rt7yDG3tf2t/f/Z+uuUEcBiN2F2Kw4yiLiZQD+FcWyXYAEQfvICddi+AnEO2ycIOISw7UAVxieD/Cyz5mRMohfRSwoqoz+xNuIB+cj9loEB3Pw2448NaitKSLLRck2q5pOI9O9g/t/tkXda8Tbg0+PszB9FN8DuPaXKnKW4YcQn1Xk3HSIry5ps8UQ/2W5aQnxIwBdu7yFcgrxPsRjVXu8HOh0qao30cArp9SZZxDfg3h1wTzKxu5E/LUxX5wKdX5SnAzmDx4A4OIqLbB69yMesE1pKojLjVdoNsfyiPi45hZmAn3uLWdpOtfQOaVmikEs7ovj8hFWpz7EV6mel0L9Xy23FMYlPYZenAx0yDB1/PX6dledmQjikjkXCxqMJS9WtfFCyH9XtSekEF+2dH+P4tzITduTygGfv58a5VCTH5PtXD7EFZiNyUDBhHnsFTBgE0SQIA9pfFtgo6cKGuhooeilaKH41eDs38Ip+f4At1Rq/sjr6NEwQqb/I/DQqsLvaFUjvAx+eWirddAJZnAj1DFJL0mSg/gcIpPkMBkhoyCSJ8lTZIxk0TpKDjXHliJzZPO50dR5ASNSnzeLvIvod0HG/mdkmOC0z8VKnzcQ2M/Yz2vKldduXjp9bleLu0ZWn7vWc+l0JGcaai10yNrUnXLP/8Jf59ewX+c3Wgz+B34Df+vbVrc16zTMVgp9um9bxEfzPU5kPqUtVWxhs6OiWTVW+gIfywB9uXi7CGcGW/zk98k/kmvJ95IfJn/j3uQ+4c5zn3Kfcd+AyF3gLnJfcl9xH3OfR2rUee80a+6vo7EK5mmXUdyfQlrYLTwoZIU9wsPCZEtP6BWGhAlhL3p2N6sTjRdduwbHsG9kq32sgBepc+xurLPW4T9URpYGJ3ym4+8zA05u44QjST8ZIoVtu3qE7fWmdn5LPdqvgcZz8Ww8BWJ8X3w0PhQ/wnCDGd+LvlHs8dRy6bLLDuKMaZ20tZrqisPJ5ONiCq8yKhYM5cCgKOu66Lsc0aYOtZdo5QCwezI4wm9J/v0X23mlZXOfBjj8Jzv3WrY5D+CsA9D7aMs2gGfjve8ArD6mePZSeCfEYt8CONWDw8FXTxrPqx/r9Vt4biXeANh8vV7/+/16ffMD1N8AuKD/A/8leAvFY9bLAAAAbGVYSWZNTQAqAAAACAAEARoABQAAAAEAAAA+ARsABQAAAAEAAABGASgAAwAAAAEAAgAAh2kABAAAAAEAAABOAAAAAAAAAJAAAAABAAAAkAAAAAEAAqACAAQAAAABAAAAyqADAAQAAAABAAAAugAAAACmX/f7AAAACXBIWXMAABYlAAAWJQFJUiTwAAAcT0lEQVR4Ae1dB3xUxdb/p5NAGukJvYWeUAIiHUV9iKIiKu2hWJ6APkWRoj5QpImKPIUHYkVAPwX9ntIUsIUihEAIEDpJCBDSSG+k8c25fnfZbDab3c22u3uGX7hlZs7M/Z/735k5c2au000RwIERYAR0IuCsM5YjGQFGQEKAicIvAiOgBwJMFD1A4iSMABOF3wFGQA8EmCh6gMRJGAEmCr8DjIAeCDBR9ACJkzACTBR+BxgBPRBgougBEidhBJgo/A4wAnogwETRAyROwggwUfgdYAT0QICJogdInIQRcGUIzIPAuevJOJeTLAkfHXmneQphqRZDwInd7E2LdVVNFdbGb8CawxtQWV0pCfdy88KMflMwtddjcHHmRty0iFtGGhPFhDg/v+NfSMlLw6ns8ygoL6wl2a+JL25v1RePdrsP3MLUgkYRF0yURqqpuKIEuy7G4u19/8HVwgypFaFWRVvwcPWAj0czNHNvikV3zMZd7YbAmVsYbVDZ3D0mipEquVFVgcIbxfjbxkkgsmSX5gIGLBYNaRaEpu5e2DlpIwI8/eDk5GRkTTibJRBgohiB8r9+WY7ErNNSC5Kad9kICbeytPFviX7hvXB3hyF4oMs9tyL4zKYQYKIYoI7vTu3AnuS92Hn+N5RVlaOqWnsXywCRUlJPN0+pSza4VT/M6P84eoZ0MVQEpzczAkyUBgCmLlZWaQ4e+3Y68soLpO5WWWVZA7mMiybCBDUNgJdrE2yd+AX8PX3hJP5xsD4CTBQdOiipKMXUH2ZJlqyLuak6Upo+qlNgO6llWTBsJsK9Q01fAEs0CAEmiha4qIv1W8oBJGScRHJuGiqqK7SkMv8tamFa+ISKOZjH0T04Er3Cupu/UC5BKwJMFDVYyLy7dO+H+D31IApuFKFUtCi2EMhC5iVI09o3Al88tBLewrzMwbIIMFEE3jQ5OHfPMhzPOIW0wnSbIYjmq+Dq4or+Eb0Q4ROGNaOXaEbztRkRcGii5JTkYtm+1Ticnii6WJdQaqZBuin15+rsCncXN9AYZmLPBzG4VX90DGhryiJYlhYEHJIo1MX67Ng32HMhFqkFV1EsJg6VGEK8g+Dn4Yt1978txjJh8Gvio8THUESdHYooRYIQS8QYZH9aPNKLMpFXlq8IJTVUycjA9gj0CkArv3CsGrWooeQcbwQCDkGUYjEo//HMz/gs4RtczLuEwvIiI6Cy7SwuokvWxNUdQ1rfhpHtB2NK9DjbrrDCamfXRMkrK8CquM+x91IcMouzcaXwmsLUY3h13V3cEdi0udQVW3LHHLT1b8VdMsNhrJPDbony2dH/wfbzvyJRWLLspYtVR3sN3Ogc1AFhzUKwcMTL6BrUqYHUHK0LAbsiCnnxbj/3CzYkfo9LBVeQVZyD+lzedYFiT3FkUu4c2EGasBzQojcmRY21p8ez2LPYBVEqxErCw1eOYbEYqF8rzkJa/hWLAaiUgmjCMsDLX5rdf+G2JxElHC+dnHi1pb76UzxR1sVvwp9XjuK8WKN+Wqws5KAbAXcx4O8U0A6R4u/N4bMQ5h2sOwPHSggokij0Nb1fU/bj26StOJB2BNfL8nCj6gar1AAEaLUlufN3aN4aj/d6BH3DowzI7XhJFUWUG8I5kbpVc3YvRYawYl3Kv4xyJkij3lpyvCSykFl5cvRD6Ni8XaPk2WtmxRDlROZprPjzE7Gq8BqOpB+3V31Y7bn8xNqX9oIwkQHt8eqQ54W1jLtk6sqweaLsSd6Hk5lnJGvWyeyzqBALqTiYDwEa9EeHdhNLk4dhfI8xkgHAfKUpR7JNEqXmZg3SCtKx4Ld3cVGsB8kVYxCaMORgOQTCvENEl6yNNI6Z2vsxtPFrYbnCbbAkmyTK0z/OQVZJNg5cPoKammobhM1xquQrHC17hHTG8La34/l+Ux12Az+bIsr7Bz9B/NVE/JK8X5oovClaFg7WR4DmW0KaBYq5l674e/RY3NV+KJwdbA7GZvYeXi42kPsicTMyi8zXxXIWs9RBAS0wrvtotPdtWecN/HfcF6CNI7Ky08QWXbZJ0pDgNnhObM/aTGzTqh4+EHVPy0pGdaXpzeSERUZRlvSXJpYl0Bp+R9spxmaIEnf1mFlJEt2hPx7pOgqtvcMRE9QVAWKLU83QUvTLb4hZ/hTxMmxK+gGnUxI0k1jt2snZBbPunInooEgMD+8LD7F4Sz1Q3S8Kt51dYn7pl+M71aNMek6Tur+L/QSYKCaF1TaEdW3bG0uGzETvwM5wE+7o9QV6ASlURFSiZ2BHJPW4iJV/fobM7FTpvjX/e2bwU5jR4xF4a7Qkcp2o7oNCo3F7aBTiUg+jqDBHjjL5MavEfLJNXlkTCbR7Zx8fnyAsHfoy+gd310kSdTzdnd0wULxwT3Z5AO+OnAfq7lgz/GvUq3ghemK9JJHrRj8CXf3b4r175pt1i9abcoEOdLR7oozqepf4pY0ySqUuYsA6qtVALL9zLrq26W2UjMZmcnF1w8ROoxDi2VxvUWPbjcDIqFF6p+eEDSNg90Tp3LzxGy+MbjUIr90+DS7CodDSoVvrXvBxM3x7on5hPS1dVbsuz+6JYirtjWjRF2/cMw+eTf1MJVIvOa39I+oM3PXJ6GjmW30waUwaJoqe6NG45ZmuD2Hp3fP0zMHJ7AkBJooB2nQVJtrJne7F63+bB1+/EANyclKlI8BEMUKD/+w5HmO68WDZCOgUm4WJYoTqyBo2vec4zL57FoQd1ggJnEVpCDBRjNRYR99WeClqEp4YNNVICZxNSQgwURqhLZrgm9vnCUwYMAnkYsLBfhFgojRSt4FN/PBqzFOIahfTSEmc3ZYRYKKYQDthXoGYP3A6/tbrfhNIYxG2iED9HoK2WFsbrtPQsN4gwpQIN/3Yk7ttuKZcNWMQ4BbFGNTqydNJDPAXDJiGZt4B9aTg20pFgIliYs1FB3TCvGH/RIuwjiaWzOKsiQATRQv6pVVlWH92m5YY/W49220s5g9+Hm1bdNUvA6eyeQSYKFpUVC422lsjtmqd8ftSsXbfuM0tyNV9/qAZaBHKLYsWiBV3i4lSj8rS865ic/xm7LryZz0pGr59f5uheL7/FJGQZ+8bRsu2UzBRdOinWqyfX7R/DXZfOaQjle6oRzqMxLRhz8LHN0h3Qo61aQSYKLrUIzYDP3spEW+Iz0l8l/KrrpT1xtGiq0W3zcArg6fDzaP2zin1ZuIIm0OAiaKHSs5cOoYl+9Zg26W9eqTWnmR693F4ZuBUOLuwq4t2hGz7LhNFT/2kXj2NJQc+wvmCy3rmqJvstT5P4s4e97DHcV1obP4OE8UAFZ27fBxz9q5AVlmuAbluJaW9uN4YMB1TBz0JFzePWxF8ZvMIMFEMUNHNmhr8IdxTZgmy7M9INCDnraSRvq3xzsAX8UCvMcLjmOG/hYxtn7GmjNDP9oQfsCzuE1TUVBmR+68sC/o/i+5t/9pwz2ghnNFiCDBRjIFaWMPizh/A7P0rUVxZaowERDQNxnyxBVKU2OqVV0kaBaFFM7H3sJFwV4nNsDf+uUF8BsEJ7w182SgpIyJi4D7IDWu9v8XOhB+NksGZLIMAE6URON8U7i0bD34FVydX/DN6AiK8DJ9UpP2CO/i0xPmcFFy4fKIRteGs5kSAu16NRJdalk/3fYqvz/1ktKRQrwC8Pmg6u+cbjaD5MzJRTIAxWcPWJ2zB8oT1Rku7r/VgTBvwOFqHdzZaBmc0HwJMFBNhm555Ef+OXYs1SVuMlji39xOYN/BZtAqPNFoGZzQPAkwUE+JaXlaE5bH/wZqTW0AfbDUmjGt/p0QWLwvvcWxMXR0pDxPFxNouLMgSZFmN2GvGf63rkfYjMSVmvPALY1uLidVjtDjWhNHQ1Z+xsDAbbx1Yg6KYKaCxhzHhXzFP43p5PiLEJ+c4WB8BJoqZdHDswkEsLC8SH029ifvbDDG4FA8Xd6wZ9hqS8pINzssZTI8Ad71Mj6lKYvKVJLy1bxVybxSq7hl60s2/naFZOL0ZEGCimAFUdZHJwj1/Ydw6nMlPVb/N5wpDgIliboWJrteG/V9g4cG1uNCItSzmribL140Aj1F042Oy2J+PbYOr2NT7lb5PoEfz9iaTy4IsgwC3KJbBWSpl+9H/YmXCBtyEcXMsFqwqF6WBABNFAxBzX/58ag/eSfgSOeUF5i6K5ZsQASaKCcHUR1RZST7e/vldLD/6OapuGre5nj7lcBrTIsBEMS2eekv7dO9nWCv8wiobsUpS78I4YaMRYKI0GkIjBQhfsEW738P/pvwmxiw3jRTC2SyFABPFUkhrKafyRineil2FD45/rSWWb9kSAkwUK2uD3PMX7liCzRf3oNpIj2MrP4JDFM9E0aJm8s+6aeGXdu7uZTiWc1ZLbfiWLSDARNGihWpBlIrKci0x5ruVn5+BxYfWYV/GMZMUUiOegYPpELB7opzNTTEYrd/T41FVYVmiUCVpc73XYldiR9p+g+usmSEu3bgN+jTl8PVfCNg9Ubaf3o3koqt66ztTbJe6eO9qvdObOuHJ5HjM/mUZdqYdMGqVZEFFMTae24FdidtNXTWHlmf3RKEVh0sPf4LT+SkNmmELK0uwQriYXMm4YNWX4lpmCmbtWYpPz/wXR3POiK9+6bcjJaVbdfwbzNq2wKr1t8fCHcIp8vu4zSgSptjxXUYhXOy9FRNc+9uKl0uycCr3Io5kn8YnsR/bhJ4zslIw94f56N95CB7sNBKtvEPh5eqJwWHRder3Z+YJFIqWJK3oGlbseb9OvKlvNPf0M7VIm5dnM0QJM/OS192iKxKfdhRtA9ticvcxtRQTn5mEXy7sBb2cthYOnYnFYbF9a3BAS/h4+mBa7wl1qvhp4hbkFOcg67rxn6SoI7SeG03cmiAmvC5Z60luN7edhCnUJswjf6QexLojm3DsWhKyxTihulq/7obdaMLGH8TF2QV9I6LQwb8NXh/6AoKbBth4jU1bPZshivxY/z74KQ4Li0381ePILsmRb/PRigh0De6EVr7hmD9sJiIDHHMtjc0Rhd6HwhvFWCc+X70vLQ6p+VdwuUB/q5UV3ye7KtrD1QNBotXoEtgBT/WZgJiInvD18LGrZzTkYWySKPID5JTm4sczu7Ht3B6czDqD66X5IsomeopyFe3u6OzkDL8mPriz3RD0ieiBp3qPt7tnNOaBbJoo8gOVVJRi5Z+fIDbtEC5cT0U+L3qSoTHpsWtQJwR4+aN3eHfMHzrTpLKVLkwRRJFBPi9m2Tcc+w5Hr53A2ZyLyC2jFoZDoxBwckJo0yC08W+J2QOnoWNAW4Sb2QLZqPpaKbOiiCJjdL0sD6sPrceBK/E4kXEa5VU35Cg+6omAs7BiuYvNLga07IOhbQZgfI8xCPRqrmdux0umSKLIakovysQbv63AxbxUpORdRkG58RvNyTId4RggCNElqCNCmgZi3f1vO8IjN/oZFU0U+enP5STj82Pf4pfkfSDylFWWyVF8VEMgtFkwfJt44z4x0/9E70cR2szwL4SpiXOoU7sgiqyxned/xdaze0BjmaSsc7jBXTLxHVUn0D7GUaFdcW+nO9AzpAsGtxYfWOVgEAJ2RRT5yTPFROXsXYtxMTcVZ3IuSBtly3GOduwT3hMtxWTh6nsXo4mYG+FgHAJ2SRSCoqK6Qsy9nJXGMDRpmSdMyqXCzOwIobmnPwKb+ov5EF98fP9ykB+di5gf4WA8AnZLFHVINiZ+L1nI9l2KQ4ZwHqzW021dXYYSzslhMUgM1B/pNhrD2w3EgBZ9lFBtRdTRIYgia2LT8e/xTdJW4UOWi3NiHsaeQrfgSHQIaINRHUfg4a732tOj2cSzOBRRCPG8sgJcLkzHSz+9ifTiLGSJFsbSG0mYTvNOaOUXgeaevlj/4ErRxQoWXSwX04lnSSoEHI4oqicXJ58lfIMtSdtwIvOMGNNU6r2SUF2GNc49RReLxh9k3n1FfEX4jnaDpJ3yrVEXRynToYkiK3natnm4WpghtTRp+bbtqUwevYNaxWB424GY2PNB+RH4aGYEmCj/DzAtpT18JQFzdi9FiZiwzCrONjP0homnbhVZs8jV5B99J4G8fDlYDgEmigbWxzKSkHjtFD5J+Fpyi6FJS2O/Ga8h2vBLMVkYLNxMAoVH7/P9n8CYyLvh4epuuBzO0WgEmCg6IPzH1jli0vISEq6d1JHKPFF+YoBOY5Bpff+OiVEPwkn842A9BJgoOrCn7QRoteWojZNRWlWGUrF7ZE7JdR05Gh9FO5zQOOSBznfjyT7jESC6WxysjwATRU8dJGacwtH0E1hx8GPJxGxqx0svN0+E+4RiUo8H8WzMZLi5uOlZM05mCQSYKAaivFfM7m868T3i048jJTfNwNx1k/sIb15qNfq36IUVdy/gMUhdiGziDhPFCDVQl6xIWMnuXD8eZVXlwi0mGzU1hn1mzsvNC35in64JogWZLloQX7FOnYPtIsBEaYRuiDAJwkr2yq63pHmY4ooSsRZG9+be5I9F60IGtY7B33uOBXn3crB9BJgoJtLR1rO7seP8b4gVG/llCNcYzUBLbyPEtqj9IqKxZvQS0IZyHJSDABPFxLoiU/IT/31ZTFqWoqKqAs7OzpJ7SQvvMGyb+AW83D3Z1GtizC0hjoliBpTp46XbxErLRLHxRYCXHyJ8wnB/5EgzlMQiLYUAE8VSSHM5ikaAHYYUrT6uvKUQYKJYCmkuR9EIMFEUrT6uvKUQYKJYCmkuR9EIMFEUrT6uvKUQYKJYCmkuR9EIMFEUrT6uvKUQYKJYCmkuR9EIMFEUrT6uvKUQYKJYCmkuR9EIMFEsqL7jx4/j6NGjFiyRizIVAq6mEmQLcvr06YPi4mKpKp07d8aWLVvg5tbwktrIyEhV9V9++WU888wzqmtTncycORM7duyQxPXv3x9ffvmlqUSzHAsgYFctCi2kksOZM2fw4YcfypdWPWZmZuKnn35S1eHQoUOg+nFQDgJ2RRRN2D/++GMkJCRo3rb4tb+/P3x8bi319fDwQFhYmMXrwQUaj4BdE6WmpgZz5sxBebnu5bnGw6dfTnd3d8yfPx8dO3ZEmzZtpHNfX1/9MnMqm0DArsYo2hC9dOkS3n77bSxYsEBbtMXu3XvvvaA/DspEwG6J0rx5c+Tm5kpa+frrrzFy5EjcfvvtjdJSRUUFTp06hdOnTyM5ORlt27ZFr169QMYAWvJL447KykqpjPDwcAQEBKjKu3JFfPUrL0+6pm5Y69atVXF0kpSUJHZyqZHutWzZEn5+flL9yUqWmJgIFxcXtGvXDr1790aLFi1q5aWL8+fP12o5u3XrJtVJM2FKSorK4EFxVHdq8TjoRsBuifLYY49h7969OHHihPQNx3nz5mHr1q21xgq6oakdSyR46aWXcPFi3Q8QDRkyBCtXrsTUqVNx/fpfO0m++uqrmDJlikrI+++/j23btknXQ4cOxbp161RxdPLwww+riLJ8+XLpJX/ttddw48aNWunopZ4+fbpkmSPyyCE+Ph5vvPGGfAlt1jsiOJVTVVUlpRs+fDjWrl2rysMn9SNgt2MUeoneeecd0MCZQkZGBt566636kdARQ2bdcePGaSUJZYuNjcXEiRNRVmaaz3Z//vnnmDVrVh2SUFnUqhEp169fT5eqMH78eNxzzz2q6w8++ADnzp1TXVNLN3v2bBVJQkNDsWzZMlU8n+hGwG6JQo9NXaNXXnlFhcCPP/6IXbt2qa71OSkoKJB+qekFpUC/6PQSb968Gdu3b5fGP2TBol/r0lLTfEyVZFE5M2bMwKZNm6TWZ/LkybW6UmvWrAHVTT3QD0FERIR0S5MYZCqXiUPdxHfffVfq3qnn5/P6EbDbrpf8yJMmTcLu3btBcxcUyPpEE5Pq4wc5rbYjdZnkF5JeMHpxe/a8tWldhw4dMGzYMKlLc/nyZW0ijLpHLzbJlQN112hcs2jRIulWYWGhZPpWT0NjnxUrVmDChAmorq6WyLtq1SpQF4tM5XJ47rnnEBMTI1/yUQ8E7LpFoed3Et8YWbZ0GZo2bSrBQQPq119/XQ9o/koijyvo6oEHHqhFElkIDbynTZsmXzb6OHjw4FokkQVS90ruStI9MhBohujoaLz44ouq2x999BFeeOEF1finX79+Jq2rqiA7P7F7opD+wiPCQQNjOfz666/47rvv5Mt6jzQwLyoqUsXfcccdqnPNkxEjRmjeMvr6tttu05rX1dUVZBGTw9Wr2j+j9/TTT2PgwIFSMrKkXbt2TTqnic/33nuvVhdOlsVH3Qg4BFEIgrFjx0pdEBmOxYsXI/1qunyp9UimVPUg9//V78nn9BJ6enrKl406BgUF1ZtfbhkpgWyK1kxMrSgZMjS7lzR4Dw4O1kzO13og4DBEISyIHPRCUygpKcHceXNVXRLppsZ/1M9XDw05WKqba9XzWeM8Pz9fekb1stPTdf8wqKfl89oIOBRR6BdWfa6BBvgbNmyojYjaFbmbqIesrLqbb8vxNOCXPZfle9Y6koWOvJU1XXeWLl2qsnxZq25KLdehiEJKormG0aNHq/RFXZT6QkhICLy8vFTR+/btU51rnuiK00xr7msixNmzZ6ViqP49evSQzusjkLnrYw/yHY4opDQyEct99fr6+bJy1QfpNHeSmpoqR6mO1JKsXr1adW3NEzKFf/XVV6oqzJ07V5qglAl/4cIFlYlZlYhPGkTAIYlCnrs0XtEn0Gy2/JLR3MWjjz4qvYjkGkMv3Q8//IAxY8bUO2uvTxmmSkPeB+rWPTIzU33JN4yeQw5E+J07d8qXfNQDAYckCuFC/lnkD9ZQoO4XuerTZCMFGiS/+eab0gQjeQPTC0jzGVFRUaq5moZkmiOezMDkiyZPjtLko/qPAT2rulMozSVpm4cxR93sQabDEoWURy+5Nk9cTcXSS7Zx48Z609LsOC3tbdKkiWZWi13TDPyRI0dU5VH3kkguBzIZ09hFNi9Td5GIpWnZk9PzsTYCdu/CUvtxa1/RS0OeuuTmIru4105x64rcXsi3i1zeyReL5ljat28vucN06dJFanFkr1zKpb6i8ZYU85zFxcWBfL/kcNddd+G+++6TL1VHcoQkr2a5e0bPQg6W5GnMQTcC/CEh3fjoHUsOkbQ2RQ60BobWjnCwDwQcukXRR4VkQfr999+lpNSVWbhwoeQ/pplXcxsizYVZmun5WlkIMFEa0Be50P/xxx+qVNRqPPTQQ6prOiGfMFpuLAeat9B0H5Hj+KhMBLjr1YDeaJ6FJillCxF579KyYtooglxa0tLSJFOrbG2iQfO3336r1cu4gaI42oYRYKLooRwauNN8hEyG+rIQccilnbx3OdgXAkwUPfVJk3k0QCf3/Ozs7Fq5aCMLWgdC5mZaVcnB/hBgohihU7Jw0e6P5HRI8zDe3t5GSOEsSkKAiaIkbXFdrYaAQ8/MWw11LlhxCDBRFKcyrrA1EGCiWAN1LlNxCDBRFKcyrrA1EGCiWAN1LlNxCDBRFKcyrrA1EGCiWAN1LlNxCDBRFKcyrrA1EGCiWAN1LlNxCDBRFKcyrrA1EGCiWAN1LlNxCDBRFKcyrrA1EGCiWAN1LlNxCDBRFKcyrrA1EGCiWAN1LlNxCDBRFKcyrrA1EGCiWAN1LlNxCDBRFKcyrrA1EGCiWAN1LlNxCPwfXD4kVx4WrLUAAAAASUVORK5CYII=;" vertex="1" parent="1">
          <mxGeometry x="360" y="310" width="86.88" height="80" as="geometry" />
        </mxCell>
        <mxCell id="-s-YMTsCyma7wOPpWQ3m-13" value="SLB负载均衡" style="rounded=0;whiteSpace=wrap;html=1;fillColor=#FF9933;" vertex="1" parent="1">
          <mxGeometry x="830" y="310" width="120" height="70" as="geometry" />
        </mxCell>
        <mxCell id="-s-YMTsCyma7wOPpWQ3m-14" value="" style="endArrow=none;dashed=1;html=1;rounded=0;" edge="1" parent="1">
          <mxGeometry width="50" height="50" relative="1" as="geometry">
            <mxPoint x="80" y="480" as="sourcePoint" />
            <mxPoint x="1160" y="480" as="targetPoint" />
          </mxGeometry>
        </mxCell>
        <mxCell id="-s-YMTsCyma7wOPpWQ3m-15" value="" style="rounded=0;whiteSpace=wrap;html=1;strokeColor=#33FFFF;fillColor=#33FFFF;" vertex="1" parent="1">
          <mxGeometry x="200" y="520" width="810" height="300" as="geometry" />
        </mxCell>
        <mxCell id="-s-YMTsCyma7wOPpWQ3m-16" value="&lt;span style=&quot;font-size: 24px;&quot;&gt;应用web&lt;/span&gt;" style="text;html=1;align=center;verticalAlign=middle;resizable=0;points=[];autosize=1;strokeColor=none;fillColor=none;" vertex="1" parent="1">
          <mxGeometry x="70" y="610" width="120" height="40" as="geometry" />
        </mxCell>
        <mxCell id="-s-YMTsCyma7wOPpWQ3m-29" value="" style="rounded=0;whiteSpace=wrap;html=1;" vertex="1" parent="1">
          <mxGeometry x="620" y="555" width="310" height="230" as="geometry" />
        </mxCell>
        <mxCell id="-s-YMTsCyma7wOPpWQ3m-30" value="商品管理" style="rounded=0;whiteSpace=wrap;html=1;" vertex="1" parent="1">
          <mxGeometry x="640" y="560" width="120" height="60" as="geometry" />
        </mxCell>
        <mxCell id="-s-YMTsCyma7wOPpWQ3m-31" value="营销管理" style="rounded=0;whiteSpace=wrap;html=1;" vertex="1" parent="1">
          <mxGeometry x="640" y="640" width="120" height="60" as="geometry" />
        </mxCell>
        <mxCell id="-s-YMTsCyma7wOPpWQ3m-32" value="订单管理" style="rounded=0;whiteSpace=wrap;html=1;" vertex="1" parent="1">
          <mxGeometry x="800" y="570" width="120" height="60" as="geometry" />
        </mxCell>
        <mxCell id="-s-YMTsCyma7wOPpWQ3m-33" value="镜片管理" style="rounded=0;whiteSpace=wrap;html=1;" vertex="1" parent="1">
          <mxGeometry x="790" y="670" width="120" height="60" as="geometry" />
        </mxCell>
        <mxCell id="-s-YMTsCyma7wOPpWQ3m-34" value="" style="rounded=0;whiteSpace=wrap;html=1;" vertex="1" parent="1">
          <mxGeometry x="240" y="560" width="310" height="230" as="geometry" />
        </mxCell>
        <mxCell id="-s-YMTsCyma7wOPpWQ3m-35" value="下单" style="rounded=0;whiteSpace=wrap;html=1;" vertex="1" parent="1">
          <mxGeometry x="250" y="585" width="120" height="60" as="geometry" />
        </mxCell>
        <mxCell id="-s-YMTsCyma7wOPpWQ3m-36" value="用户管理" style="rounded=0;whiteSpace=wrap;html=1;" vertex="1" parent="1">
          <mxGeometry x="640" y="720" width="120" height="60" as="geometry" />
        </mxCell>
        <mxCell id="-s-YMTsCyma7wOPpWQ3m-37" value="用户中心" style="rounded=0;whiteSpace=wrap;html=1;" vertex="1" parent="1">
          <mxGeometry x="250" y="690" width="120" height="60" as="geometry" />
        </mxCell>
        <mxCell id="-s-YMTsCyma7wOPpWQ3m-38" value="支付" style="rounded=0;whiteSpace=wrap;html=1;" vertex="1" parent="1">
          <mxGeometry x="414" y="590" width="120" height="60" as="geometry" />
        </mxCell>
        <mxCell id="-s-YMTsCyma7wOPpWQ3m-39" value="商品展示" style="rounded=0;whiteSpace=wrap;html=1;" vertex="1" parent="1">
          <mxGeometry x="414" y="680" width="120" height="60" as="geometry" />
        </mxCell>
        <mxCell id="-s-YMTsCyma7wOPpWQ3m-40" value="C端API" style="text;html=1;strokeColor=none;fillColor=none;align=center;verticalAlign=middle;whiteSpace=wrap;rounded=0;" vertex="1" parent="1">
          <mxGeometry x="330" y="525" width="60" height="30" as="geometry" />
        </mxCell>
        <mxCell id="-s-YMTsCyma7wOPpWQ3m-41" value="后端管理" style="text;html=1;strokeColor=none;fillColor=none;align=center;verticalAlign=middle;whiteSpace=wrap;rounded=0;" vertex="1" parent="1">
          <mxGeometry x="760" y="525" width="60" height="30" as="geometry" />
        </mxCell>
        <mxCell id="-s-YMTsCyma7wOPpWQ3m-44" value="" style="edgeStyle=orthogonalEdgeStyle;rounded=0;orthogonalLoop=1;jettySize=auto;html=1;" edge="1" parent="1" source="-s-YMTsCyma7wOPpWQ3m-43">
          <mxGeometry relative="1" as="geometry">
            <mxPoint x="1010" y="670" as="targetPoint" />
          </mxGeometry>
        </mxCell>
        <mxCell id="-s-YMTsCyma7wOPpWQ3m-43" value="魔晶供应商" style="rounded=0;whiteSpace=wrap;html=1;fillColor=#C3ABD0;" vertex="1" parent="1">
          <mxGeometry x="1040" y="520" width="130" height="300" as="geometry" />
        </mxCell>
        <mxCell id="-s-YMTsCyma7wOPpWQ3m-45" value="" style="endArrow=classic;html=1;rounded=0;entryX=-0.008;entryY=0.635;entryDx=0;entryDy=0;entryPerimeter=0;exitX=1.001;exitY=0.635;exitDx=0;exitDy=0;exitPerimeter=0;" edge="1" parent="1" source="-s-YMTsCyma7wOPpWQ3m-15" target="-s-YMTsCyma7wOPpWQ3m-43">
          <mxGeometry width="50" height="50" relative="1" as="geometry">
            <mxPoint x="840" y="590" as="sourcePoint" />
            <mxPoint x="890" y="540" as="targetPoint" />
          </mxGeometry>
        </mxCell>
        <mxCell id="-s-YMTsCyma7wOPpWQ3m-46" value="" style="endArrow=none;dashed=1;html=1;rounded=0;" edge="1" parent="1">
          <mxGeometry width="50" height="50" relative="1" as="geometry">
            <mxPoint x="80" y="880" as="sourcePoint" />
            <mxPoint x="1160" y="880" as="targetPoint" />
          </mxGeometry>
        </mxCell>
        <mxCell id="-s-YMTsCyma7wOPpWQ3m-47" value="" style="rounded=0;whiteSpace=wrap;html=1;strokeColor=#97D077;" vertex="1" parent="1">
          <mxGeometry x="200" y="920" width="960" height="140" as="geometry" />
        </mxCell>
        <mxCell id="-s-YMTsCyma7wOPpWQ3m-48" value="&lt;span style=&quot;font-size: 24px;&quot;&gt;存储层&lt;/span&gt;" style="text;html=1;align=center;verticalAlign=middle;resizable=0;points=[];autosize=1;strokeColor=none;fillColor=none;" vertex="1" parent="1">
          <mxGeometry x="70" y="980" width="100" height="40" as="geometry" />
        </mxCell>
        <mxCell id="-s-YMTsCyma7wOPpWQ3m-49" value="MySQL" style="strokeWidth=2;html=1;shape=mxgraph.flowchart.database;whiteSpace=wrap;fillColor=#FFD966;" vertex="1" parent="1">
          <mxGeometry x="300" y="960" width="60" height="60" as="geometry" />
        </mxCell>
        <mxCell id="-s-YMTsCyma7wOPpWQ3m-50" value="Redis" style="strokeWidth=2;html=1;shape=mxgraph.flowchart.database;whiteSpace=wrap;fillColor=#FFD966;" vertex="1" parent="1">
          <mxGeometry x="590" y="960" width="60" height="60" as="geometry" />
        </mxCell>
        <mxCell id="-s-YMTsCyma7wOPpWQ3m-51" value="ES" style="strokeWidth=2;html=1;shape=mxgraph.flowchart.database;whiteSpace=wrap;fillColor=#FFD966;" vertex="1" parent="1">
          <mxGeometry x="830" y="960" width="60" height="60" as="geometry" />
        </mxCell>
        <mxCell id="-s-YMTsCyma7wOPpWQ3m-53" value="消息队列" style="rounded=0;whiteSpace=wrap;html=1;strokeColor=#B9E0A5;" vertex="1" parent="1">
          <mxGeometry x="1200" y="50" width="180" height="1250" as="geometry" />
        </mxCell>
        <mxCell id="-s-YMTsCyma7wOPpWQ3m-55" value="" style="endArrow=none;dashed=1;html=1;rounded=0;" edge="1" parent="1">
          <mxGeometry width="50" height="50" relative="1" as="geometry">
            <mxPoint x="80" y="1120" as="sourcePoint" />
            <mxPoint x="1160" y="1120" as="targetPoint" />
          </mxGeometry>
        </mxCell>
        <mxCell id="-s-YMTsCyma7wOPpWQ3m-56" value="" style="rounded=0;whiteSpace=wrap;html=1;strokeColor=#FFCE9F;" vertex="1" parent="1">
          <mxGeometry x="200" y="1160" width="960" height="140" as="geometry" />
        </mxCell>
        <mxCell id="-s-YMTsCyma7wOPpWQ3m-57" value="&lt;span style=&quot;font-size: 24px;&quot;&gt;运行&amp;amp;支撑&lt;/span&gt;" style="text;html=1;align=center;verticalAlign=middle;resizable=0;points=[];autosize=1;strokeColor=none;fillColor=none;" vertex="1" parent="1">
          <mxGeometry x="50" y="1220" width="140" height="40" as="geometry" />
        </mxCell>
        <mxCell id="-s-YMTsCyma7wOPpWQ3m-58" value="AWS云服务器" style="rounded=0;whiteSpace=wrap;html=1;" vertex="1" parent="1">
          <mxGeometry x="260" y="1210" width="120" height="60" as="geometry" />
        </mxCell>
        <mxCell id="-s-YMTsCyma7wOPpWQ3m-59" value="laravel框架" style="rounded=0;whiteSpace=wrap;html=1;" vertex="1" parent="1">
          <mxGeometry x="520" y="1210" width="120" height="60" as="geometry" />
        </mxCell>
        <mxCell id="-s-YMTsCyma7wOPpWQ3m-60" value="Vue框架" style="rounded=0;whiteSpace=wrap;html=1;" vertex="1" parent="1">
          <mxGeometry x="870" y="1200" width="120" height="60" as="geometry" />
        </mxCell>
        <mxCell id="-s-YMTsCyma7wOPpWQ3m-61" value="" style="shape=image;verticalLabelPosition=bottom;labelBackgroundColor=default;verticalAlign=top;aspect=fixed;imageAspect=0;image=data:image/png,iVBORw0KGgoAAAANSUhEUgAAAKAAAAC4CAYAAABkSufbAAAEDmlDQ1BrQ0dDb2xvclNwYWNlR2VuZXJpY1JHQgAAOI2NVV1oHFUUPpu5syskzoPUpqaSDv41lLRsUtGE2uj+ZbNt3CyTbLRBkMns3Z1pJjPj/KRpKT4UQRDBqOCT4P9bwSchaqvtiy2itFCiBIMo+ND6R6HSFwnruTOzu5O4a73L3PnmnO9+595z7t4LkLgsW5beJQIsGq4t5dPis8fmxMQ6dMF90A190C0rjpUqlSYBG+PCv9rt7yDG3tf2t/f/Z+uuUEcBiN2F2Kw4yiLiZQD+FcWyXYAEQfvICddi+AnEO2ycIOISw7UAVxieD/Cyz5mRMohfRSwoqoz+xNuIB+cj9loEB3Pw2448NaitKSLLRck2q5pOI9O9g/t/tkXda8Tbg0+PszB9FN8DuPaXKnKW4YcQn1Xk3HSIry5ps8UQ/2W5aQnxIwBdu7yFcgrxPsRjVXu8HOh0qao30cArp9SZZxDfg3h1wTzKxu5E/LUxX5wKdX5SnAzmDx4A4OIqLbB69yMesE1pKojLjVdoNsfyiPi45hZmAn3uLWdpOtfQOaVmikEs7ovj8hFWpz7EV6mel0L9Xy23FMYlPYZenAx0yDB1/PX6dledmQjikjkXCxqMJS9WtfFCyH9XtSekEF+2dH+P4tzITduTygGfv58a5VCTH5PtXD7EFZiNyUDBhHnsFTBgE0SQIA9pfFtgo6cKGuhooeilaKH41eDs38Ip+f4At1Rq/sjr6NEwQqb/I/DQqsLvaFUjvAx+eWirddAJZnAj1DFJL0mSg/gcIpPkMBkhoyCSJ8lTZIxk0TpKDjXHliJzZPO50dR5ASNSnzeLvIvod0HG/mdkmOC0z8VKnzcQ2M/Yz2vKldduXjp9bleLu0ZWn7vWc+l0JGcaai10yNrUnXLP/8Jf59ewX+c3Wgz+B34Df+vbVrc16zTMVgp9um9bxEfzPU5kPqUtVWxhs6OiWTVW+gIfywB9uXi7CGcGW/zk98k/kmvJ95IfJn/j3uQ+4c5zn3Kfcd+AyF3gLnJfcl9xH3OfR2rUee80a+6vo7EK5mmXUdyfQlrYLTwoZIU9wsPCZEtP6BWGhAlhL3p2N6sTjRdduwbHsG9kq32sgBepc+xurLPW4T9URpYGJ3ym4+8zA05u44QjST8ZIoVtu3qE7fWmdn5LPdqvgcZz8Ww8BWJ8X3w0PhQ/wnCDGd+LvlHs8dRy6bLLDuKMaZ20tZrqisPJ5ONiCq8yKhYM5cCgKOu66Lsc0aYOtZdo5QCwezI4wm9J/v0X23mlZXOfBjj8Jzv3WrY5D+CsA9D7aMs2gGfjve8ArD6mePZSeCfEYt8CONWDw8FXTxrPqx/r9Vt4biXeANh8vV7/+/16ffMD1N8AuKD/A/8leAvFY9bLAAAAbGVYSWZNTQAqAAAACAAEARoABQAAAAEAAAA+ARsABQAAAAEAAABGASgAAwAAAAEAAgAAh2kABAAAAAEAAABOAAAAAAAAAJAAAAABAAAAkAAAAAEAAqACAAQAAAABAAAAoKADAAQAAAABAAAAuAAAAACdVizMAAAACXBIWXMAABYlAAAWJQFJUiTwAABAAElEQVR4Ae2dB5xdR3X/z+vbtSutepfcELZsY0yxDbbBgCG4YFwI2GA6gSRAGqn/kE8CCSRAEkKoMc0NAzam2cZgwA1jXOReJKv3ttrV1lf/v++Zd1fPq5V2V+xKq9Ub6e67de7Mmd+cNmfmxkpKVk1VChwiCsQP0Xurr61SwCmQnKh0KFnJCvpn+k3oX6ykvlbUYUwMP17SbsnyFtdvTP9Md2jTJfZ5tqgdRAPH9FIeK+n5UjxmBZ0kK5I/p1+uh/w50H2xor8jrqfDG3S+mvaiQGwii+AAM+oMDEigpHKL6yjmW1FwjAkyCe4sASugF6WArqJQBvASuu5XHXVc4yjawhvCk+RemU84W/27hwITlgNSRbheTO0PRPLlOgM5+J5YlDYBRL/cAyeEV4rF+QOBYepJ3epwi+maLnEvz/kGALWVHJjAF5jH/K/v8Q7ur6Z9UmBCA9CRB/pAgw7YBX5sjosIIDpIFgEfwMzqrqzF8llL+E08DJlqzAqpACjPTxd53lMAImI9nOGaLrCRotvCUfVvBQUmNgD7KxoELUjwf2VgOJcTOKTVibMJdD27rbRulW175He2fsVT1t2129K19TZn4bE2/YRTLTH/GCs1TZJ+mBT2YhLFkYANvwnYpfNSOG8Vdf3k38/OhNYBQ70rWZGEL0xOF9jgWPFYXiK20zqevc9W33CT5e99wia175bI7rVssuicMZ5PWb6x2WpevtRmXnqeZZa8WIZIk0CWViYCnzJLiivG2HEQ8mZEepnTclhNg1JgQgMwmAzoeQKG63YSv2JMWLjwp3ihV9K23XY+eJdt/c41Vnr8aavpK4izFSwriZyTtRyTIZ3KI3Pj1pdJWuLYhTbtksus5RXnmKUnWSFeK8jFLUmeRb2HB9AJpTMCQJ7kXdU0OAUmLADhRQXnRjIt3NgIIMKFgnR08HVssR2/us1W/vBmiz230pp7s5YSUDNx9EGBiEzK8CnIrQIOd9dkLDdvrs15wxts+lkCYcsMy2cadXvcUtwLi9V9Rb1Egt21xyoABwefU3eiumHADpavu1YcgBKJsbhEp7hasc/i3Ttt5feus20//pE1bd4szpfza4XAygRaWb8gR0BC34OJJoqI1Lh1CaC906fZtPPPs7lvutjy9VOsmKhz8DoX1GPFsr8QJbsKQBFhH2nCckCvr3Mw7YEe54aCpMSrtW211Td9xzbf/lOr3brZGgQ+DApAk5fYRUxjK5ewigWfkI2MDmS3TnG2Nx633pZJNvWsM23Bm99qpflLrJCodX0woedivEdiuCjQ8xiJn36RHJVNJ4OqwHWuHllpYgNQSAF7BbVrvpS3ZEGulQ0rbcV3vm1b7/yF1bXttHrJ2ZTAhMgczrC440agQcPDYdPVOMlaT3ulzbv4cisedYLl0nLXCIBpuXHgl6VkxgEdYIU1DtAcdeGUdjGGgGHkLg8Xjoy/ExuAAgKjF4UyZ0msFfiu+oK13X27Zfp2y7OXtLSsjZTavyiLN+e8beiGLxYLlk+IRyaTVpRi2JXKWONJS+2oy99uqZNeYvlkgzKMi2NK/xQHlMzXFkCGSA9O78DtAiAB5ZGZJjQAc+J6NHuykLfuB+61DddcZfnHHrb6bLeL3D7pcvCdZA6rVXwIxW+o5IiReBZbLUlWg6+EDI9sOm3pE06wGW95m9W89GzLpWSYCFbpgmxk2DB4K4t3jBMG/hC56Ij+Wl4dMDlUCSbUdeo/QZNEKzpcd7f1/uYea7/+2xZ/5kGrK/Wq4RMmM0RMSRCR2ySfdqEYlLuhqCGu5jhBZCsnE8gLCblucjnrefAhW9/eY3M6uqzmVedYsVZumgQDeQRDcG/IPCawA31eGN58pPI/BMNwFJ+hGmU8Xgd82U7b8tMf2rrv3mAxjXAAvlI8J05TtNqcuFM+aXkBCX8f+HApOURdgIpuVwrP4ZrhOAmnEzvsSUjnmzHL5lx4gTWff74VGqdJtGd0jzQ83QczxGGd8EzICAiS65EJwonN9GXV9qVL1pspyhCR0JPeFotl5CtOi/dIf1ObM3zGBjccboLz5dEtBaKAo4T2U9I1xXVz3da3fpU9e/21tvXqqy2xdZ3VFLosIQPI4aZ3Ypx4EAQcWGf5p+5yRKYJywFxoWQZZit0SAT/wjZcd531PPmsZbLEvCjoSm6SuHiToOPAQC9zkToMGASo6q9AGCJgBCmhWV5GcViNouDOKQngk1pt0qvOsoUXXGSx2YuslG4UUNMuwuN4ud04kSDGVaP3y/2tv0dWmjAARJOoDACAqyi8QP/E63p2Wv6BO2319ddZx5NPS/zmLY2Ilv6Hvy+p4RE4EE7qoRKhV+4ycfwFHx/cM6EMyCMrRzacFYAV5AfsaJhkk19yqh0j48QWH2cFgdDiGXUMlReuK7Dif+TZKgCHov4YXQ/NDv9Ry3EwCBvgdLgPEVaR/AKtj+NX53GPeE66i1ZlI+Wl/61+TCD8qrXdd6ele3ssVUhKZKbdCi1KN2S4DU5E4u8gxQigQfxKd6QkKVnAOJ4BZoBzyl+Zk2GCsSF/jbXXNcg9c4Id/YdvtYaTXiou2CCwiRMCQGXDSAugJUc2UvTrB9SxfIKORQp6o+8e1n8SH1c61DUgdF62pOtTiDJvDRWK3QA7GrckyzW0AtyF+5BilldD93TZ9kfutw3PPmTJeo2/NtTrmviJHMz+hHBQiMvgnzLdmhcutK5sj3Vt2WH1XXJO5wU6iU0TABGfOT1WwLcicJWf9nJgpKDvYUwgdnFckwAsQ3zwLw/7F+icS8IpdR4XS2O211LbNlmXdMO6hibLzFqoobuMygSMNDGg2KVq5mUMpVXPUGNyB7+OZn6VT0nGE7QChBPFaT0uAEhDJ7W5LkSjqD29AURo5yJO8JLEpkRdAW0NB7NZnwZrY8Vea7/357buW1+1nbfeYrEtGlqbMcMyzVP0lNpP3Alg8I4cnGZyq7W+cKkc0L3WuWm1FeUTjAtdeYnLgkALV8zIxwdwmNcRGhu9kUbXkd7rYFTelDFKnOM4us5BgLHJMo5Zt3pL344ua1+9zurUF2rnzjLL1KhMxBamlH9S/8p+Qb3H8wbk7CgjVUEJPTNsVQ4IPUYrlVstRJCI2Mo3Lg7iOpL20e3cjwZ7EJcieBmwpro7bMP3r7ZV8vGl1620lp4O61y12nrWrLWaaTMsPWOmlVKCTkCTg9znfGgEo27pItudzNv29Zss2ZVztwzvKIrNFZwjatxYljPcMa/n8+oYcDoHgAoYYv/KBAAk2ih3SByozPphJAauKa3PEtmcxXbtsrZVy3WhxxqPOUqMUyDUNVw4cQ9WFLtDNCsBOmhCZ+OMfryzOPg4mABpXHBAp6MI6qDTAcRG6sTUKPR3bwm1BjPSirGczqjJejpl2X7Tdtx8g9VvElcpCkTiMvUSyV07d9r2dWss09Js9YpaKckZnNMGKOK6TpbZdK01H3281Uok7tq0wYoCBoYJAOQ6oCFMP1FUGL4s2ogHUjjsZdc0IxDo10EC4ii3NkqOnUNKa8RFKqG0PglvuWMK3Z22e90Gy7btsuY5cyzVgGGiJ+h05aeDGOBNgR78JU8ku6fo3eXDw/VnfAAQYkJZ9fwIhK5ncVqNyGW4QR/AyPVafMsGe+LrX7Ztt/7QmrZvVkCBnMtqXNmzulHcRGI6t2ur7VzznKVqaiWSZ1lB4i4ubhYn9F5ATBQyyrjB6hcdbZnWRuvcscG6OnYqG+UCE+KdznkxNOS01qbXezn042UCLG556z5l6RtXKC/RNUm4GhxMTuoE4ARgqBgymAoaoenYuEkg3GnN01vNGuo05STp+meprLu6jaLHAHvYKAC5K5V/wsHh+3dcADBYdvR+WIZ+nfOJwoBPre5tJyTKrWzxrVvtya980Trvut0autvUmDqvBqOhcXvkS8HPljaN9+7YYZuXP2fxyZOsZeFsiVI5g7lXYQh43QAU8ztqFsy32lnihDu3WdeODqsRQLCKe9IyjUCjxpJTMlaIDySgNat3yosSJKV3GsoYSg8yyBe9EqA7w9KJogyIvCrjfEwcMQlDFhfvWLPOujZvtNaFcy3e2qLHpTKot+UFeJ6VUa+8yN9zInsO9GdipHEBwH5yasdpS+CnWtqtQOhcFNdS6Hzh6cfsmS/8t/Xed4+lenYJKIA2IYdzXJv2PGAUi5fRjYLVi/PUdXXb5icek7XcaS1yBhdrWmW8pJyTiRkJLLxUUTFzZtqMo4+xwu687dy0yzLJGmuaIkNG4nGX8u4REtADCSIwxLlAxLNwtsj/6GJY53RHv64Gw0KH5CRinU6CGQUXTGPkqG69m7da18o1VtOqeSetU9SZGJsRN9TDADDQIQCQ/NgLb4E4h3caF45oCBqIisWqPaeyXB1O/B65WXZaSTPVHrnmWsstf9KaJL5qNQjbJ65QkDMZUReTnpZVQ2M0JAXMlPxviO1kKSfdK6bhuBarO/d8myxfnM2bI9DgNlEQvfS8OCLRDQ8VpLPbSrtzlkzWayamxHRa13Jt1rv8Mdt5xx22/YHfWW7bFqvJ5zXEJphI3GMhoztmARSAVBUSdCCwoT+EZQHOHjmpCWqtQcRLQewWd00gbjUunU3VWP6oRbbk4ostc8arBPwpAnydcz+eRxwEHRguqnqR9wRI44IDEjrvBq4aB84HGwRMWYEr0dduffffbcuuuspqnnramvq61aYCnuRhWlPRMgJrSuFUKWXAebCL6EtqA8AlsRAXtvmcbVmz0vLbtlvTtFkWmzJV1rSeEPB4RkF8ulmNWyuQNAoUtUKJJr3lpZcx5yM9Y761nPwSm7FkiaW72qx93TpNIS7Iui3rhgKInnAAggu4IqMjgAd/X87LoXKqpkx6SqoDpGTg5HIS5wpITFFXif/1q1dbTW3GaubNs6KCW0t0FP55xVQ+yqqkqk2INGYARK+LJgW5gzZ0YidaWElAjSvCAjwCQpMASI1A18bFQuOlO3fZ9puvt+eu+aal1qlhZGzgrnDFUM8VnVsyHqt8BCa4DMkbTPtu0XKOkGixpVpxq93r11nPhhVW1yLdT66ahGa10ZhxgRldMuifanSJZUSzYOT58c6YoptjUyZb3QsW65qG2dZs1NS5HqFM7hpJZe24uPT8VCfK4ZHWEWiggRJc0nVInY+r3DrUSexscbndXbZrhRzWspbrj55n8ZRsZznRGXmJicsmiq4ElPVJPeY58i4legBblPp1mHIBovPj6HfMABjqCHnEIZzCvuuUCu4G9LfyP3EJbkFJh9AJKf2x9q229XtX27of3WRJKemN4houggKpXczxDh/GUov7yITyCDmGhoHscaESxR9/HHspNWDHju22c/MmzaqcZrUz5olLhlaLSa8Lz4MmNoFO/xxQOoKrwVGtocFqFYpf2LZNYF4vYGsURddlY4dyuSjWCd5Ybnt+yIu/vpFX+ZobLJxXJikMoN4u27ZqpRW3ilvPn6ehlCYFOKgz4CcUJ4+rDO439JzoftRNyblkyJ7DcPJ5O356PP0ZMwCGhgsNSOM4sQEBChIEU48PnEKkk9GAlQgLS8LGtm+wp772Odv+U4Fv+zarETBxy5TQhdjIQilS/gNowrnKv7hCaFx3cIt7MOEIIDJ817W9y7b2SBRqRKJ+aovKp3EIuN6QCTGoe5sarK+zzXqeWW414loh+EBlV/4YHSW9qx9YQ+YJViirOJ2ezbE8iMaqe9Zq+E6dZcriRZbSigwlhXzlBUQ6BqJdNdMGTcMLoDEdUif5r8Tf/gM/M97+gIGxSYAEsVrGC3oem/MarmEhuJIGJ0AU0wDifJ2bbdkXPm2lO++wVularWrItORVMS/xo/uwXD1FVC8fDvYDNwXmKP4+8O+NpfxUihaJ4yUzp9tMOaqxOhPesIPlMuCcyo7hkpNe2Lz0RGt+4dHWQRvrfJJ6RSmgIToa1q+P84rLTVKZJ8vAScnN1PXLX9qzn/pXKz12r5zo7f2dzn1A6C90WHVm/jEBgY3Tjj2IXVkmzo+zNJwu//sVmQYTjUA6fTZQpvyjQ+iHjpjOdlnb6vtt45e+bLWPPGapvi4fSSjoGiI8g0RU45CH93Id7klQmbz3JM4wViw7wuoEXsK1GI3gfFbn4/XyF05ulLHBBCKc0irh87PYk1nFnt+ihk2j9DVNtu5pLbajNm613RqdgYkr75R0TvUbbXBf3jh0Ysw7rdIVVV/N3XOaNQmEGum2wlMP2cb/7rbWK6+0zClnyamuuELprFjalWWGIwLEkMrXhlGnoUs3dneMHQCpeJm/SmiVd8Xp1EhwQk7QQbEd0/Lx2WMP2PYvfN6Ka5+WVdsrvQr/XsZ6NBIGK/XJPaI2z0Qk9n5fPgDkA2kN/wPgeYl3GBINBnjz3ChEFxs0hdKnUTLcpnMDM9CpQZOzdUoiEMinmBDo8mJ/qAh0piD6VTfPLyrtoDn1nwzuJyK3RSM6gwrco3IzCBhXwETH8qes90v/Z/Mu223Jc15j2dpm6aPyZyp7qbXu2GYGXgJDznmgOoiMqvGexgyAkJ1GB3xOJW8HaTo6xxgp3CKZVxhSocc6fn2LLfvaV6xO+l59j5bHkDjsVg/3ieGIFzU4czcSalw9Xd724MWzHkBp2j6jtmC2W4/AARjhWuzBnQp9GpPd1SZdS3GCdfL5KTlefG/ffzxCRqzUOQ3un93qQH10KtwtwrNA7pqZysw7h5t4hvVkcLegkBAWxrmEOiKYigtl7WuW25NXf80Wdm6zSZoMb1qNoShXTklhXNDay88Oe3o//JD98QzDMQUgfdHJAR3YnKj6EShiErkmS3ftLT+09dqaZekWJWKTmmNb0rBXTHpfHpTquWCkwhlo1JCnfnxvMM4XrgkMEr3yR8uX53ARJ6QxCDAQXDRCkn/uOcuvX6MFhwgGQFgPL9GwRFt37my37fLdZcWJamSYMGYMB8T9A/CD3kmelHqoBHcGdEiLojpPAHJOJ7HNWTEko7cWN6zVkiLftaauPlt88aUW18y7JBxYHkancRmJkBvjazhvHqpkY3l9zKxgCAAAIZ5woyQCqyuiaCdKGt3o2mkbtCLVhh9pbZat26xBoEiJA+QlxtzYEPZ4DhIyeqsfcc9wcrhk9aU09GZ3wdAYBKkK2CkhmsCE9i7BqKVVAQnzNOqhZTV4zxDJuZq4MvfWKfA1k8pZx7ZVlmtrs4acImgEnLzKWcKxLCAhA7zwQ+TLZTwEcHvqxxB0UgRzF5bXPXRcaasaVey23avXWu+WTdayaL7cNI3SPTWqA72QyQ5CXE+BUkPXahiFG6NbRgxAdDaSV011JVFfUtTbuCMifSC/U8ZvSMqZjI/vrv/8tG2/43Zr2b5Dw2qygVMpX10qpUz8HfpNe8biBJ4JnIEX8pboTdrdb1IpK7gAY7EpHRfkZ5Tr2PqyADFmDXNbLTVNIyOaq4HYC8APlQt1074fhvdS97iGAuNyi9QvnGnJpoTCq9ZbaZdmv+Gr845CKaOy6lcZoX+SH/WBSwqrSuW7eKnejuHioJU+FwwZ1ZshRjquOg/wrFGZM909tnXzFmvbvt1mLjnW4nWUnaQuT52VjUfg6Aw5e/H166/U78ATQUaEsnD5YKURAzCviBQqg4fPtflw4NyOQlPBEBwlp6om/8TEaVD6UcjjfdKWt221x/7zU5bW8Nqsju3iIHI+KzQEfQ/xAxFpA7LFb4e25Uf6YSWCqMG0M2TidlwxDmDdHUVX04h5cUNEeufOzRbbtNbqJ082mzlbepw4iQocl7XkIfC6R/PcnLPkJNJ7VMIijmAX53SJOqufc4xNOnqu5sBvtR7VL6V6xrScb0mA9slSep83rUAFHXIMM2rD4AApBFEAvBDKT0FD/eFgbOjMXBf/9jFgyo2vsWF3rxUU0rXzqSetdWarxabPtN6k5qQQf6iOEMtrlEb7Ob0XKirbsEFkJ3Q4QZmgfigldx28NGIAosajR6mvuqKsH/zI2kKDMfsVzkVAgEZA1XhqbBkVOrTuFQ/Zk5/8O0ste8jS3b3WnWJxR12Q9z8iDoSKkhNEDRB6dPk3ujiMX/JyrqPfKH8fF1Z5k+VolpKAtmv7LmuXQznTrnkik2SQNEmkaT4xMIgrYCEpB3FMxoBHweD+8PwCN0OUxxQdk26dZ82zF1tOqsVuxSvWaygtJl9jSQZLXhsROoqnkW5XkKguWr16KZPja2RtZJQ3Y9fcA9UCDUKJo3LrlUpcER0wplSmfK06mBbZzCnsrOO5tdY6bbolps+yXoljgMv9cEFC/YnBQbf03AG+NlQiCMOdIbaHvYObRgzAMOhJzwycjuK6bSnaUHyvG2JIWzbFoo5py8jSTD7yW1v+75+w5JpnxCF6HKRxWJO6N6NbLjPIbLQTDUHByj8BVHQYwlfVOCp3hqCC7W227plnrF1ju83Sq0oCIYEAWKFqN8+g2L7LElo32rQODJyNSBvPtygDRoAwcdFJxy3Wtbxt1dSAGobN8BcywuFcSM1MwKxanvB+LN2sHsuqELiKKCbJO17/b5mwfjEAkGdhA7QATvWMlgXJathu1WOP24zmBqtRaFlO0TWMnDiw1MHLqC7TQu/T09EbnTxeR3+p/hy8dAAALBdOpYYTkOAyHukrwsZ8rQrxPhG2oIbIaKWAzh9/15788n9azdoV1igLV5JMXEHOZ5EAALjeTD5kRl78jkIK+ZRz0w/5E8CAYg9XLamTUIcaXSOcn4ZtXLDYWo5/kZUmTdE9giiNjdtFczie+MlNtva2n9jMyc2WnqZYQc0tKRHSJd1MXVJsVZZow2RrWnSMpRtSmhYg40TjumESvLgRdeVOvZtKOjdyH4vgIL0RC3pP7XVDP2rKxNApMUo/DzfDO8D9cfn7WAcn3qlpCs8qXE0XGo5abImkoqzLdaUe4aWoATwdcueNXBGDVK/U5vlz4uCkkQOQAqqg/lNuTHqT9HkHE/p3lt6suRvpzg7b+Z2v28obr7WGbRs9QLQgrheTSAYAWKeAgHi+SFR6tSHaKNX/eTkpUyJevBHFqr3T6FxBjZdTWXplCNUuPMaalr7UYs1THXwUhKgeBYhZ7yNylt9+mxXXPWeNLU0Wny6dUaADoHGW/pBYKOGX08r69QvnW6IpY9s3rrFsd5e7hFICqucn1BfdSQwnQxQGUMAZ9VLfMAq015/oPNEZB5+O4ND4DlFgiJSpZa+n2zY+u8KSUnEaFV8YTyvkS+oG+OJ5dNeiyinPjZoRtcCLFP7ywsqX6nCs04j9gDSe91zYFhXXD4MViN5wTaMWWgTIdu2wLd/4hq25/War16B9WkDTLFxxPmqIboUVKN1EjUG7UHG/wv4oJt4T/gWR46CH6l4GlRtWoMaDcSMKvUI65cAtlwVOKOeNACbO0t1uu++/xx6Tvji/s9dazniF5WrgNJpWmdCm/Epq4FztNGt+3WV29KQWW33dd6xnxRpLKcAA8RyigQCAtEKJ5Lw6pQ/ZKeInWuI3IYJSbsrpZaFMEMippMKqXmgwdA3ozi9GW43KaDt32Zof3GRdbVts4TvfZYnWuQolq3eRLN95GXyemfJzAoQGJPuDnEYMQIobiV6nhSokPTw0JIF9xQ6t5N1mD33uM2Z3/sIaRNRMURxPohcDpejWnzIRcmuljJMihdkPRvWPygM3VQvRUbzj6NjHMbzR9DL90sD47dSEuj2IQxqea/xBTEnTEpdkMrlslEKfFZ983FZ/6b/lS99o8y94i/XJIQznT4sYBMky76Qkjtry0vMUa9hqa6+72tqeftQai5qr4gaK3iXdMCPgsrICagnkQDKk6KR0cG0JqSpFLDglTpEAmwtOnYiJ83p8pd7JYpk6ofsVrd25w9p+cZt1dbXbCR/5mHQMDd1pK0hlIOzN9W4UeQgj4B4iCWwjFsGIW6rvjclfEcxdDSKE5TqstPE5e+yzn7G+391vzbl2GRxi/yJMSUTNqPcXEDd6jv8Fzcsl/AqHMb24TF9vBB3+3snz9FfpHU5nXkLOYaMW4TynVAZZjw0LjrKGpS+2UnOzOoaXVG0kXiXXTNsTD1n74w9YRsvvNmguR52Mkq41mtKZzWvS0zwFNgS1Qk5NdUggIg5XI5DNnmKT5k+Vm2aHbdixTTDXeXHLLr0T0R9Df4PTSadMSFxSOoCBrhrcOJzYk+CJVCMJAP15mALR4eKmuharUW7qCE3ZrHVu3GZbHnvSZkyVTjulWdOQpXm7CuSvCPWmPHqX4BvevedVY743Yg4Y9RR3mCI7NUbUp1bMyD9ozzxlv/3s56x2+bM2VctlFOOadC39SLSW8q+hKxEoo66u9SAduAo4EqHkFNY9zlcjBI5CtckqOHrLhNaxOrqSXi5Og8qg/w4UkO++SplFWsJKmzi2zpXEDeGLDlI9wxrTSXEXZiZ3qm5MB63dsto2fe8q6922wRZe8m4rzVuodaK1CkIqq9ywohGvDZY5/iU2r3mWNZ++2hrTTVavSfNWJ0tYbpstjz9ubb+52+qfflyfLWkP3Em0TUg/YTngiBkjLygzC6ALgqqfYCc5jMeIujEfJiEuXOojiCEspD5JHoheRRctK33Ljk9LRThFa9MI6KzB4GpouUPq8UOSRswBcTKnJSvoeW3yiRVjfVZb2mUxxavd98l/sLo1q61OPS8t4hGU6T48lx30aBGPXq1f9/95lZ2k2gsWoN8/CqQIDUVjsQeY9E5t/JZP9b+FhoXX4RCvX7zAGk48yQrNcuwiHqNyCYptjz9o3Y8+rFX1xblVJxzjWM55ffahbeMayyuYomXuIrlwmpzj08xYqHG4mrhiummqrOyjLT1nvriR8pd+mNB6NZOOOd6mn3G2Vms4yTpkRGzSEFuypJVwZMg5l1M+TNXU/ChFCEnQqEdQLk/UBziqPagHQPJoaZWLfygPLvI1F2b5smXW3JCRhaz3q/y5uAIxpHoA3qQklbKiGQ5qGjEHrBERVDcHl7Qcy+zeaZ23/sweuv5b1iSll6XPUvI/ZSVW6KVUCvzx6xXUH4jkmy4Ece5XRr3iIe892Q4EHlcclOVbKK98KmoUNaUXSQ1I4ZXoTDzvwtLrEM4LJQKJnMvyD7bddZf1tmftqEsvtcyLT7BSRrGG4oMIt5K4P/cKOf0d018iYhJhbYpPrDley7i1TLHW2TPtuZ/8QI5xReuIjqEIgEn0QueD/hS8nABfuTQ6s+c8ez7HRbo5GniD5j0//u3r7KiOnE0/70JLyelOUAUApAiU7WCnEeNdXF6VVYVUu1qGeu7+ja259vs2Y3Ob1eozVynpUXmA5TIMLrGHNAe7cgf2PlVsTxvulQWNja5P6DwtJ/h4xHa9ROaUXq2O+uiDtuK6qyz7wN2aqySDTFqZ63GAr5zg8pUpOi6hm02ba01nv9HmvPRMdWJN1RTaXD0Q+tHToCs2+XATXFqj75rZJx0x12cN6zfKKv+efLO3amhKers6RjGRlgdAziba7CCnEQNQ/Fw9JRDeNLP/mRu+q0lDa6yx0G3yjFmvQOh+LYfpQa7NKL0OzrmvxBU4Bila0NI1KgEwk+/TAklt1v34Mrv/2utt5W8ecid1uHuIvwJXXmpLT12TFRa+0FpefZ41zpovy5qxXQlS0Zx5MzRYCE8bIr/yZe6vVb4x+V/qBLDJGrpr3rnJVt52i9mWreLPYWlhwVx3IsQPbhoxAIuaguiiTcNXu556SuupbNSoR5d1KyozJ9FVqwF4t+mpx77b8eDW8gDeRtEHKz7GF3OQAUEQ37pLXIoAgF51znysVwsl9dp0tefUUh3L/g0rBXVB3EotkstopYYFi6z55adbVmvaAPSClgpxq1yWVRxf0DAS5Y9LhBcV5FsvV1ivxr1pv0xCS9LtWG87l/1OcZl8H086oGqLkD/YaXg1qSgV9MSPxsyy9PYO61NsX1Et0ifZ3C6PNEp/rVomqYqXlZeKp/fsQnAfEttzatzsoWLA5MqM7nnlQifk44fuwFYV6Y5Em/TJyMgm5eKQIQMwM03N1jB7vnS24SpWMhZEM8UXePBpcXKDlWQsAEDoyFo1DNclNLYcF5iGl9CxUYvw86mTqHysX53Tv3xpt3VsXSurRl906qMTMSNlxHAYXjH2c9dwa1KRhQQOLSMXgLBmNVkFZmpUHY7QJ+8m+lFcrha4hI/DVzw5EXYBF1yK6JWkXCC4euBQWKUsB4Kh0Cuq9tTI/9lSJ1eKbhhmwr2SYiEkMMsydPIIZTQxndEVVuR3I0l/dXFYOVLWXtib7pfLVeWmfYL9LEYov6Si0t0oog5qt2HnPKzXD+umEUNeXjGVVhuEnTFZlp5CqhQNktCnD2rUAO4mUAPscbMMqxyHzU10OncvaQdxzBgsIVkJ+eviakUEGeu9xDW3t6hpB5EVPXQFBRTl7eYomGH0o0++1T5FEglJcD40QJ/b7Ox36By5g+FO/BEZjUSlJILd6a/REEvVW+u8hUK4hK/aC/uD1x/sNHIAqje6EadC1x+3yOpfuNh66zQWiutThMKSyqpRCDOCjhMu0VDaYFLBmY0fTZ+DQNnTSbgfCyaVFKnc+9wK0USiYDhJRC3KWCiIQzGubLu7zVattWRvHzafnOB81wQAKjZa+Q8n0R1SYhYpgZcF2FMqYw0TqYjg0bIkrSedqHcKjGpT1qsJHHY4OY/ePSMGIETHD1WUzsP44nH6Xm5uzlzbnUlLCVfBVFHnEuqt9Fwqhfjw1QL0LFzDR1H0C0B9lhnPjF6dfv+cKgpDXSoTh2ycp9QORjUg3S0vYBAgQEBBbIOMs0eX6XOamt+sf4TmykSR/05AlcWsA51FhyTYnn/cw1CantdYc6fiJjf+9j4PYEAE4y6B8PAzQVGgCoWEu/llbnHaQ3+uSS3QO5IyWBhKzEpHgnGgLGQ1bt1y6sssPlfMA8bhrjK9Gb39IKcRAxDKeUVUqbzC0e0FZ9gpf/oR2zl7mnWwHrOiMeLqZXHJ4qQcWNSNSF+20GACoFoJENKI9Mzg+A0EPcj173+dg0pHxAtSP45pLtrS98u/0X1Y/Ew+YogRSLAKP0BLKi6tVqI4tbPNCg/+xkqPa21C+Qfzcvn26S/0MY2k0NYBhzxVhpBOxnOdllu1zLbfdpP1bV4rCgdQEL4PhRChjIh4xDnvhnOKM1LWsHG/8tGhd3Rd0gRUv9ShcrVrBGba68+12RddIjGsNRiUHxLZzS4qfpDTiAFIgdFPBDURWw2kiI/YScfbK/7+Y9Z44qmKfGnUunnM8yjqM6aqmG7PqHPB+rGMEdEh+kUgBIj6F9Tfg1zzYbwO/h1BceimCcD1eDusVtV124oVtvKab1nst/dqmQ2FYsnn1i2nb1+NCFPGDOIxqfkjMenPcQ2/JTeutN6f3Gpddz9itb3yLujFvaJlTEsLa3aHD8N1afC3m9VbdY2ZftCR8sEVmZfMygyME3dqhldnIqeJWEUFAmtV2DkLbOplb7IpH3y7mZYkiWmNQ81a8U4UK2JtjxgOw6Di/m8R/x1hAoBEvqCYKKpAXiT1r1ZLH3OaveDDM2zF/37eOh64zxp6FRkDt/Ts4Xb0VB0IgMTE0Tt9BQGty+dDSS42RliWQ3z7nnHrUEt4EKBlHgajH2lNPeh94gGNjLTb3B6tZX3qGYq0nil3iII01NblCElxPemRnbstu3yZrf3+92zX3fdZa4/8qmqdnEDkndh1NLiZxLQ4HswKJsCEdX4xdnCjEKDKN1LCkYwjnc8q+KB91gxbfNlbremNF9rumiaVVLqhLGTEOZOi/CWhAgeVqiMGYEkEwdIraj4EoUQpDRchEhSLZEWFoh/11x+2VV+UPnjXvVbLot9KEMwZp+4n3k4kVQNpEEsKcoLZYzrPCqVBd/FHxsUfGjFKe/bCmUrwcU3tHICnZ3xusyxhZuHF9K26zqeW2SMrl1vT7O/bvNPOtLqXnWYJrchlCt8q7da37B5+1Nb/6m7buPxZq9vdrshxBQnUKB/lScdFnIaYRqk1gA+OBy3VwVmKw+GPSiQ1wP19ei8+xbQ4IhO/dmuOyCkf/ZBllp4pHXWyNYhD+gKg4qioRbX4e5w5RLU9eL8jBqAcA+o7cjXENNkIqjNQqYTyLAFitS0zbNF7PmDtWpl+jeZQ9GzeYc24JeS4TkgrVt2dqHoycEQHHuc4c+hS9HY4C9UKx9SNA21qTAcdN3C2/x4/9PbzBTN1mWhm+BtcMKV6YSGnerXS64rH7akVy61w3TWa0VYrw0ztLoMjne3zCKJpzGsQcERgxQrqBQBJYGOCOiFidAg4nY50TZ1XvkI0UEDnAQ26D82clSfo9D21jRY/dom9/D3vMXvhC/TlUC3GpPxgGKzsmlGcHNMNfGBB9XIbMlTnoP0dMQApJN3F9SNQJzphSBXF2cisJE5oMxbZpEsvt1kNaXvmxh9Z18bNNgWxq+u9IhIiIvRoZs6RiWguFhmFTvmJcfMnAI7iUFVP7CAXK5MOAzb773LA+hK7AFH30mETGqaLacy4JECiwwU0cV7A0nVBTsYJXRwKB10bupTwA4oV+pLCAFF3BnpJiDrnU+CrxDQiuVcg7tRITM0LT7IXXvkhix13kjoDjjJNiZD6xIpjQezqV/5chvgwLkNhBtRLZ8cyjRiAKRHJKQ2dywREfPqQj/4S99aFiJg0yyZf8g47rXWWPfL1r+s7aWu9p5fk5wqKsx728U1ZhMpK4wie3VhWdnh5q1wjboM9oKt8BwBBz/XZbpBNF9GLS+JczGPwY4GNHozDOKfhI0aUWN6D51gRVj8CiJ7S5lKCh+COAhkhXq7KkIfuzcvCxiLu1YqqLae/0o760F9I55wrHVCxiMo3zM5jOWEBW/cJw96RnGHDeb0H8YKDl0YMQB9dV28knJZ1vek3RIOkJCI0JOKEqFGvgry55GRLnf5qO1GTdu780hcto1CgSZrDyheJWA8awuIoHW8J3rMnhcYGOvtMDoq9r8LVasTg4VaEUvFldvVNAUkd1MEJuEKYlVu0omMQr44MZShpob/BjUUocPChMgyIKA66NS+XXi2adsmR3atlh+ec/Rqbc8V7rNQy3XoVTQOD4wPbNDYzhRHiPmSql6FfCpFkrVRZb47HPo0cgJSY3qJKUFz2BCexfnE2wMRwj3Q9n/SilWb7arXuyhmvtldqCuPyL3zRipraGMdC1mAkAqY2q+gZZZlV7weQ4yVRt0ojhHLtaZ5wdaiyouh3S+EKDmK4GHmKTgomSEsBZJiWaBVFUIpDQUNEpBYCkdsFIZsUPXnWlyjRR3Y4TufEzYQeRHWvYvyKuFkk1pPq/Llp8+2oP3iLTb74ffpOca1l1FYJaeaE6bvIBWjqAUUth4JR6GCnntrPSacEDNG5oeo2WtcP4H3SZnzwMBRW3iMvuMpP99KmLNUTPWxax7KvZGtpSuBR+l7uRz9s3Sccbzvqtb6ynmJlgG7JBn59BQLdS2Bkn/RChpzwb6XyWrRIhPcen+jTMLQWBB8mUJWDGlLlEYUheE7PElWCvsk34GIYB5pCmtYKBnXqLPl4o3XVTJfo0/d81bPQyfgATo/UBpYIzivWMa8x75Q+88WaN9kafTIiKWAo/7jKSN/0/inwACA8VSmBJSV/SkbAqc2m9B4FbygvoqilDKpcOOjVmVUm/Hj900hVXspMlyRPRpVY/g0gZdW7O2t5vlsGheaoKOyre/bxNvMP32dT3vZO622u1XdOaB8BUJIpoRl6HtnASbUPjc4MVG98vQPJS9P5sX4PZlK7otSNQSJbNonqwC/5q2UtOjfZM1/9mrX97Nc2TeFcoqz6v3qoGpEoY4btnOBiFwwjIaI4h/Id+C3iRxSr4Ef7Kr2vCqAiQGySA1ANntKSvAk3QbWkhZYP2S43REwLEy1WmPr015xnhSny1Ql0/ow6G46jGk1ISq1fbptuudlW3XK7Fk/fYM1ami0pgMXoQbqnKM5P5wgOdnAPuEiUd/8JMQ340AXZgAPcMYzRKhdlIbmiu/Cb6lDgBbDtCrHKLVhkx1/5fqs5TW4WZoBpcADkOvB47YDXR00eRWLvv2Rje3UMAaiCSxzDBlyMiHwBQj2W0dcsd9xwo23/8U+tpOhczbh14rOAJIALHAq6BUDCCTjCw08DB6tt/4QBcwHMPBc4Ry6p77+JwzIjrKYPF2zJtmuSTv0pJ2tG26XWcMKLNCylNWHwiynxWtwbzIJj8UxF/FlS82133XOHbfz+d63vqWc1LYG5wIhKdDJBVb90HDoRojOkAQgon638gUZuzDEjT6IYMOJSgQaA0b8fp85MndCw6VS9NZMsseQEO+497zU7fqncOnwDD5JjIQvE4vIuiUJf6n/deALgiGfF9ddiqB0oITA5YUUwyKmxAf2VeMgoWHPJCywhj03bhnX6PluXQCLCentxH6oKCjtiBoKLqNJf2Njn2tAJrkmeAoTEFsv70ngKKnHgpWU5dunDM40nn2iL/vDtljr5lZpOqbFR/Gu6V0JVQNAmI4LGxgFcFDCLGS3HNneW1Wp+bX79Zst3KKZO4CQQAdQhdimez5emsJ76d6ITe/+qntQU4GAmyBkj8sFRBTd1AkUKQk6VSrqzwNqlBTXjJ7/clrz3I2bHaBafHM6wPb4vx7K9ceaXsHgSJq5z1EFeSYaHOKk5xiYherT6mAgZup+HfPvsGul56slaB81aLrrQWjQm+fhX5aZZs9pXk6L3wgl8YXG1JNwkcLDA+fx7Ig7RYZTbuYigRKOocYOupZULaBQVoWdSozVqnmzNMS9yPZWvNSVAHPnj2qDhpIsCWaxMrhfkZsrXaDTh1NOtc+UG2715p4bRdjrn091oFF46FVu/AErZDKOo6i0Cr+7XuxC0Qr/rgHgTXBfU++maPg100iSbfvarbda7/1jflJspb4T00rCsgoochurg7nGis4lTLLfBcIpxsO+BZmOaIGACkZJVgwZPAjIC8oijTLLYS19tx73/g1Y6/oW2S8GtzOLiK5juqlHjgRQaEu6Vlc7FJHbdMmTiFioHNwIFObExIkrghkTrsMzmzJNPsFkvO11LVmidZWXKOszCge4Tn5ErCdUup7nPOV3wyfOyTMAubuXClDlWc8JSS8+drfrIyBBm/F3KxwM29F5cHUF9GLK4qiFgFa0ArDZgCNg5n9RKDDUKVCioHL1Tp1nr6863WVd8yIpaXjjLWLH+BS7HWoYsCkLHZ5weJ3VQJypLUDmiU3n+UOyPGQDJmKpnoI04BzSiIxakh5kms7tmpXkIWfSY08+0pR/5sDW9/OXWVdeor1FpuEjWYgYFX43CwD0ujZwAABBDZvoZItGQvBcQ4N7gAP3SQ8GkqNccs1iTfxYKdCoY96rZaUwAD4iYVgAg4IGMmvo6CcoUAW2afDVp0dHWeLQcvSoT467kkRNCgQRBALhduHU4yXVbdS4SS74VS1qHRr+Uo57X0YlmTLPpF73ZWt/9IeuatkCWeY1br8WYgh5kjXthqQebnsGyHTMRp7xHI41p+dC/nF2BRrWxmI/ool7uJReFWJpXYrmQqLfk4uPt2D/6kCmE07ZqBdX6jl2Kq9PwnUQgXAkQ4IoI3GU4rco94p7oUN4iQRekPHm9N60vlGfqWR1fcPJy6XY9QlFdC6XsDlZ1JKYf4Hqi9DrNPeQTq2mwAi4lwKFTjEJgeaMzir/LStUT2veM+dlPglbci6qgrLWxBwdO2jZ9OaA4Y7odddnlVve6C60vowmwvAfjRyhnDombePjCcIEp8VpGPjy5jyzsjre/TsuxKBR8pAjrc+VchNWbaCQsSpFMnVW/0k/4TCnD7LFUk+LVFtnJf/FRm3HeuZZX+JCvYYLuhQWqxsxIJqYwDIZbYL0j6FAu8J0rocn3qiw9avA8g/8+FC2ICugAyN0cvAFOC5LUnnQaNbcAsgeEcOYSS5TIeMKx2yd2E8U5wgXhfmH4a3iFxb+X8rB7RpBkaCTkXNaQHWsW5hceZyd+4GNWf9YFoonUFolmOCxhcSzfwfozqYKCG1RYn6usc8QWUg10xvGcxpQDIsrozcEEiFRhEQTikWhnGhocCAgFreiZap1vCy57h9Wk62zXLbdYfvMG4UACUM/wFLfTxyG0GBTQJRs/76DQebiHv1d/UOx50Ie8eFjXUjrXre9s9G7SAuVaxzA/TSsQYP0qH4YVSQxd+fu074+pL2FVkw/S1qHdscNiWp85LlcMlQEUCbmeeCWzz+BqiGbKgz7oZaXj6W4vo85QPpzYHjavTkCEODyb1FMri3vpqXbUW98rHflUcT6JZJ1XAJvrol4xPxPKTL5sTlDtYbZwJpzzC+Puz5gBkGpHFjC1hgj9L1Mj7knaV2PjpNePFOeMpabMsxlveYdNmtRkq77/fctt3KC5xiECuCSO4yJSNwNAckIsu16nfRrfgamGhPw4hXHfwH1ZxcsH5HVQI/GUXbHSup59ytLNky2mxg1cWbqbms4H/yWeWb2fUQq9QSOQeqdAyMqqcX3hacPyR2zTs8/YJF1nYXZddSMArgvY4PqhswXgUnLK6eJWd9AZgDK18NUPxHEBcVGctk+iPfkige+dH7TioqU+puvA0+gNGkHQ8KRl87gSp4LwZY9v3/Vf4vK4Tf2YOKQlhNUwe0yUzQBONbrpIzC1bz7fjpkyxZ656hrLrVwlDtQtfVHAAmVKOGtxe+ApQdeDy6CDwbEQf4AIdwjXceUw1oxli/6U1vvanl5hqft/Z7PnztMnDharh2iFfN2fAGQSY0wiwi8Yl8iDS7OEroO/2GmlZx6z2H0PW2brLg2HSQPjXSoW34zTrsfcEZCKOwmLVmHQXm78eEw98iE3ITQvkPdKv/AP24iT4sMraN5G09mn24J3v1MrbU13utTr/WDWCyiVJAIeZw7nND4ASHdVQzO8hKVJlIfWm5Ie1Gi1Z7zRlmQm27PXft36nnzEarTeHZ3euYta2mPk9Lia0LkIjYE+hcFSFFgBJWoQ341jvgRABQ9JPpdQXtEqrfnN094og6Rmqp5maRGBRaE+ANlfpvvxTWK9J0rdmnK50nbdcZv13PegNfdoOWJZr4Ab4IETyufxffplMjgAhLtSq3jZJYB3Dn0TA0naqOvDBYGvT59aaH2NJg3JOZ5VcC9BAs4VNYYN+ENQgd7ASyZAkjQQGznECZ3KZYgagnFhF1UaqyUuTuqRDDstdrniYVtz1Tet83fLLNPVKYBJURco4IgelC1g4eNjuE6nHDz47nDhoF+5/09Vhat5oANtKFdKlyYJdWg11NbXv97mXfgmYVAcJ8YEHQUcSHS7ONd74Ih8+CW78mlbfdP1tvvn91hru+buyjtNkKdbvtJjy772UB1hnclB+lF58CHqBrii0JMXVyWez1dDkI5bkPWanbXQpr7pAmu98BJ9326y/HnqDEpFZZ7VU7wDAMaUZxWATprR+YPKDecgwZKdSXBSSUEkAgEL6Oj7cus32INf+h/rfegha9YQWIOWGyuJM/h3NgCqMiFUCRHtxoLrWDS+0MYGi9I5YOjTRMUaAUFeLpYOfba1d2qrLXrtObbgVa/VN+RmixlqfT85gU1TJUtaAWz9rbfZmnvu0ZRLLUQpzpeSKMwqpkpMTmFSKqzKjMhHQ4BDow74uLaAjzjG14d+CEsm5jkvg4V1ZXq0pRcssGOueJelTjvdcnXNyrNRdVGeoFd1A3D00zJZ9ujTOnc4p3HBASEsGwnwOQC1X1TjeuCBuIfzEVq2bY2t/u41tvmWX1rzJj5yyAhBTm4Q3atnaHCs4fAZLAJeEb2IO7lfhG7yY7iPMw4WnceNQdhSjzhLh5aqyNbXajXTJksIlJgTeYn9/K4Oq+nSpw8UukXwBB/pxXAoSG9lvAI9kwhHAILoBu9wX8QnczDAEZa266i6D70xp2ttdQ1WS0DBZVdY4iVnKBgirXKFqBc+psMHHCPikCccmQQmJ0IaFwB0Akco5BciqxULElnoPdigJSnxfeIoMRkAqY6ttunGm237T35miU3rtUSwVq1nroNQgI7HP9gQ2hXGSPiGrziNAMhIivsV1fi8CsOB1yG68a94oINaFzDF3NzUVeXhFjLo0nPwIdc99WQ0e4PIl7DguLg4t+ga76IUPrwmcY44JgvxZ4ljWfxa0qT25FMUifN2Kyx9iVbCUhCpaoyBgk5Jh1KpXOzqp5+Js69MJkQaHwAECjQsHE4AAhS0IdYi3+ZwK0JHBQwL5ypSyLUQ5O5f3GIr9O3c/KpV1iRxzKgJXAlJi2vGIaiDAAPaK7QaoBY2dBTeRWODNYauihKLCOmixljBpOeFKMTp7GgQ7wS8KiuGDmOvhBb2CnW8L8OqELqd0DI6A2oB6gBWcng7nFEr5MvNUnfKSzRp6H1WnHe0wNegd9E5tJEDNNAPdAjPlZ/nBGeizDg8jNO4AGDo62pgp7YaVA0QOIVEEEBSo3hTgBq1CiFHMYWox7JbLHfvr235tTdY/qnnrF76Wpgv67aBiz+WJ+vWRvPVCkhpWQmMDgAKElcAB+4QRjX4xgeqI9yspMF/Xgko+CVAgXFf52C6F86Kftkj5DKJnBWo6gRU+lGfniWihkWF0FH7iJyW6CbEq9Ay1aacea5NE+crzl6gZ3Ewh3DTBFE4IFoEYFfTppUYLdIJPcvqs+iRRBdNhDQuADgSQuIYhrPkBEx0rEzvbks++oCtu+5q2/Xw/ZbQt+nAFmFcGRpMCmVWQ1uE+qMbpuReSSvMHwc18YZZfU4BK5aIHRzWQyXEKcuc4ZbpE7BYiSCm5ekIInWOi7tETm7cPiCxR75iXEHO2VSwPq1KNfUNF1vzBW+33ORWVzXocgxHyoZXHhMDWEPRMbp+2AHQx8FoW0ScGlkw1CYrdd0ztvrb11jXr3+rQIYOGQf6LpMangSHo11dZIpr4ZZBzIcVu+C8cDXOD6/x4YZBrCpz5c3zPgyn8yQMDfQ9DGPiCBt0nfWfO/X9uJlvusSmnnOeQsBa/Z6YAiNwxeCmUQAfT5DFEZOo8eGVaGTphYhBjATEUV5O6+SCpbbgikZbp4/CtN31K30+YpuPdsAt4S3obIhWQdc5HwYC13yoTtcQxbhJhkrcgXMZdDNEh28vCEVcymiXhPoDcAwNdLqE7ZKITS5cZIsueavVn3mOFRr1FSaVGyAzbcH13KGZ71BFOyyvH34cULoXXIdIEMZsGU0gSgVwsVBkbPsq2yBHcdttt1lq6zYBQMBwjkT7iFvpRsBLghP6dFL9EmlNgMBQCcwE/TEAiElDvNzPqxw4jMgnrlETVk/tyUyy9PGacyI3S+ak07QUc33ZQAm8jvB7PvatXI9IDnjYARDVijBzHBr+uVXpXj78IAQQEhWPd1myY5PtkJtm049vseLmLSHUX3wSnc8DWiXloimOQosAJWi65ANG+0/cAbeE17mE14lgllAidE7dIL2TkZM+zRup1byNo9/6ListOUUGRaNm4+k5uLIeZoWC0Bl4iKG6Iy8dlgAEhEgsDyAujxbI2NRK/XCS4ChO7O60rjvvsNU3/8Cyzy63yfp2XUlO67yMAqZcsp4zTmt8h3z6itETjodOQhwcTnodz9AVCC9gRFNxzOoAsrolonsaGqz15afb/MvfazZ3kVvZhYS8fBLJaRlAQi2WksqCjetudq/TcEowdBkPnzsOOwDSbiRX1wAfJwSgrK+0EBbgYfGjnLhMKrvLsvf9ylbqozFxfTFyUl+3uJ1GIOQiwUiAWxGqj/glWobx4qGSh84LgIGDMoynd+kxzRzRXBZGbOPWPXWGTXnNhTbjTVdaYdYs5c8EeIIsWEsRFwoGkToLfpYyFh14Rxr6RIfDDoCuKwE6ZJhSxEzgnykGMwAAFNRJREFUI0GccR4BiXEiDTHbafEnltnya75t7Q89aI36aHRauiL6I4EOAMpVSqHRjQLPdX9/9HJxO0eOg5i34smUyIUtz5xlM8+90FrPu9zyk2ZI1itfnRZmxf20yTPN2DbliyngwZk2Y4/qCMEVfmSh8LADoLQ4NR3ij9aGkwE9tZ8wgY8ujJwImIxoSBRK2moW3G4rrX/WnvrGVdZxz29sSne3OBLLdOhB5YNzOBghAGv/yd8jIGEJAzhfvUCOav+k1gK5WS662Kaee77mijQrgoWQXLglRhLlVbkor96Lw9xHehy+eAEZ1Dvy0mEHQOxeoUaNBacQcKI2A3y+lUEkEcw1Nv8gtL7bYZtW29obr7Otv/q5pdq2SexKbIoNEkHDd43RBwEY3Anx7M/qec7xNobsSPA0QI+rhbt7NPUxvWiJLbz4HVb/ildZrqlB4lbAUw6szIK1HdDuD/sunQgNkuepTRWAIsVES2GIT9ARmhwrMkJs13pbfev3bf0tP7W6TVskklljpSyORYAIgHBWQAjwOOcRzDrAqc15uC2id3dtjTWddJIt1rCaLTlNRo6W9tBc4oR0UgAWRjeORN42PDQddhxweNWK7oK7hBTTOG1JYldKocaQO2y7Yvu2XH+j2bo1ApeirKXXMQ4L2OBKII9dABgy8T3talSDYFhd7KmrtwbNZT7qHW+34rHHSS3VsiMlhfUz3iwNNEYsmPig4Esu1TQIBSY4AMGOuJsPirHPkL4CBISeZFeHZX/7S1t54zXW9uSjCiLAfUNcIPolhokjMQDQ/6JvAkL9igUWWppl6Z5j0y56m+XnHC0RjrAl1pDnEdIgWHkwauJhNINQv3oKOpcpPQGJAYQCALWGnvZYgjGlWUnyiijkXSBLtFnu4bv0we0brGPZY1anz2Kx5Bm6IIEGGAusB1MjeYyeCAB7WW9l8hSbBvjefKkmjC+ULK7xjwGi6hXE9QigD9xUTseA2QlI3dGp0oQGoBiSAyAa4/Vgg/I5HxFh9dC+dlnIz9nG733ddtxxl9Xpc/ZJxfTl8RVqwjkjF3VIUqXdGYVjzZ1u0869wKa/QfM2WmdI0GqcV1Y081c8ucKIz0/PC/JVARzIsq+/h18wwr5qMvA87A+wKTFk50nncL1goYpXBdBoHevYwiab/Y5JWpdmhq372S+tqW2n1UsvTMhyJrS/Q+vItdc2WeOLTrRjL77I0ktebEV9AoEAFvL2Ob16hbvyfDRFIaVIXp0rvzm8v/p3LwpMbA4oX2AwZQMSEJE4p9EKPf5OJxDMBBfENb4cl5O68Nyz1vXkw9bZtkGrNSi2UHdmWI5t0Qs1d2OpFv6erHUEpS3Keczob/grTqk9/4IAY9PKzy3ostumCsO9cNd/YkIDUFqclFzV1Z3Wgftx6OMkUn39EmxKMIMpcq+f9eEJWc0CZcwNCCEXRGHN6n6fN8I16Yv+HRCxO8Q8XsnA8cJfPaAU8g/71b8DKTBhAQi4/CuRghQB7z41U+c4H0AZdlw/LJ/Ar8fwMgAleDUm/Q/MFVgjUODCskWnQ7tTKIs2jvyEGyxgDU4In8UDiCsaHacSjtxeTXsoMGEBuKeK1b3xTAH172qqUuDQUaAKwENH++qbRYGJ64bZT/PyyYXVq1fb8uXLtQTcJJulmL2ZM2fq8xplnW4/z65fv962bt1qL3rRi/ZzV/XScClwRAHwhhtusO9rvcFnnnnGenp6nkejuCzZ1772tfZHf/RHdtxxxz3vWnRw3XXX2T/90z9phK1kZ5xxhv3f//1fdGmv366uLquv17hwNe2XAkeEEQIY/t//+3/24x//eL/E4CIryL/jHe+wv/mbv9nr3je/+c32+OOP95//9a9/bTNmKOi0Ij366KMGUO+//377xS9+UXGlujsYBSY8B9y2bZtdcfkVtmr1qv76n6TwqeOPP96OOuoo2717t61atcpuvfVW61agKtztG9/4hs2ZM8euuOKK/mfYOfXUU/sBuGDBAps+XUu5VaSNGzbaJZdc4memaGHNahqaAhOeA/71X/+13XTTTU6JOi0G9M///M/2xje+cS/KAES43u233+7XEMnsA8QowUnholu2bLGLLrroede4B/3w1a9+td8OAO+9997o0ervPigwoa3gp556ym6++WavOqL161//+qDg44bGxkb73Oc+Z8cee6zfj6Hys5/9zPejP+h0l112mf3pn/7pXuCL7qn+jowCE1oEf/rTn9YcYgIPzP7gD/7AEL37S1jBb33rW+0f//Ef/TYA+K53vav/kbvvvtu+9KUv+fFLX/pS+5M/+RPfxxj55S9/ab1aRzBK7e3tdvnll/sh+QL+atqbAhMWgADvgQce6K9xBJb+E/vYectb3tKvxw38nCn65O9+9zt/srVVCwuV05o1a/rPR+fy+u5EdG86rbjAahqUAhMWgJv1DZBsVhORlGpqagyjYbgpUf7a0HDvX7hwocER4YCPPPKIPwbXi3yFw/EvDvddE+2+CQvASqt37ty5g7YbXBKn8v7SQDfLYPe+853vNLZKI6RJS/x+61vfGuz26rkKCkxYAG7YsKG/moxyDJbgkme/6uzBLvWfe/LJJzXDLczp7T9Z3Rk1CkxYK3jqVL75EdJOfaG9msYnBSYsB0QvixKicbBUr68xITorE3ocIxnVdHAoMGEBiN6X1AfosEZ37dplO/RRwYGjEwQi4KiuTNu3b68CsJIgY7w/YUUwehvDbVH66le/Gu1Wf8cRBSYsAKHxX/zFX/ST+pprrrF169b1H1d3xgcFJjQACR4499xzndL4BN/0pjfZD3/4w31SPqfVEaKx4H3etJ8LiPwoRT7I6Lj6OzgF9lBs8OuH/dmP/dXHPIIFQ4SAg7/8y7+0q666ysd8Fy9e7HohwQVwR8Kr0BUPNE2bNq1f7+Rdf/VXf2Xooi94wQvsnHPOOdBsJ/RzEx6As2bP8oAEAkkj7keQAtv+EgGnf/ZnfzYiHyARNIw5RwEQ0S+ctwrAwak94QFItRu0XvO///u/25lnnmnXX3+9R0R36FsilQnwEN93zDHH2Hvf+16P/au8Ptx9Ahl4H8EJmzZt8vjC4T57JN434eMB99WomzdvdiAyHDd//nwPr6oGDeyLWmN3/ogF4NiRtJrzSCgwoa3gkRCieu+hoUAVgIeG7tW3lilQBWAVCoeUAlUAHlLyV19eBWAVA4eUAlUAHlLyV19eBWAVA4eUAlUAHlLyV19eBWAVA4eUAlUAjjH5WWumra1tjN9y+GY/JsEIxMIRCk9iPRbSpz71KR+YZ64Gy1sMJ/X19fk824cfftgKhYJ98IMfHM5je93DagY///nP/fy//uu/2tFHH73XPcM98fGPf9weeughv51FjCZPnjzoo5T3yiuvtMcee8wjalgnJpPJDHrvwJOAtnJSPPNUolUWWN3h7//+7wc+ss9jlqNjIzH9YOnSpfu891BcGBMAsnYK0SAkwAMIaSwG/k877bR+AAJUZqzBISp/ic3jOUKmIiDTIGeffbbH1o2UUMQCAgTSwHUBDyQv1hckRWUbLA+mBBAHyDJtJJb5OO+88wa7da9zn/3sZ31BJeIV/+M//sPpF5W/ubl5r/v3d4KgiwcffNBv6ezs3N+th+TamABwuDVhhSlWKR1u+s53vmNwoPGWiKR+7rnn9irW6aef7pPT4WjMtBuM89KxogWRogzgliwDwvoyLS0thiQYTvrNb37jK3cRWnb++ecP55FDfs8hBeC+ag/3YO0VxDXLWyB22JjFNh4TEdUXXHDBfosGFxrsHsBSGRwL6JgMT4IOqB2I8yg98cQT9r73vS869F+mlr5cX+0k0vvOO+/0qOwqAJ9Hov0fIKqIPiaknQnl6FWVOtC+nqbhhqPgA5AosYLpcEQRZYL7kOBAcDlSJRhYL3A4efmDw/zDWoaoKiTUBaYJVCZUlYHnXv/611fecljtjwsOCPBe+cpXjphwn/nMZ+yuu+4a0XMsUDmchOGCzklibgcrqA5M0YSnymsXXnihveENbxh4617HV199tXOrygvoa//1X//lp+iABMqSAOTatWt9n4WWBq5XQwT24ZrGBQAPV+INVm7UBkL/mX+CDlg5GR6DBMOL+SZ33HHHXo8DSpYJJrFMXKTvwmmjlbaY6fe1r31tr2cP1xNjDsBLL73UxWkkVpYtW2ZXyj2BVRwlFO6f/vSn0eE+f0868SRjklGU3va2t/Vzqehc5e/nP/95F9FY4VHDssopDcqK+C972csqb3/efqXBQKPDeUgYCNGKWnBAzqPHVSY8AMy+Y5rmxz72MXv7299uH/jAB9wzQFmiJYMrn2H/ox/9qDEtALfJn//5nw+8PCGPxxyAA61cgLBixYrnEROlG+IPlZhYdP7sPdZdJCIHew5lHP0Qt8UrXvEK+9GPfuS30SFYrfTpp5/2JXkr5/IOlg/nIh8c++95z3v6Afh3f/d3rrfipwPsJMTmH//xH/s+YvSss87yfUD4q1/9yjvChz/8YeducMhKXZclRND7qNf//u//+nP8qXT3sKA6PtWBaaBhMvD6eD0ecwACgEoiQ4iR+rJGSjzcHvjSSIiyyrm+cD4mn6NT8d0QluT9fRNckHxJ//Iv/9Kvr8Hp582b5+fxfwLkb3/72w7+H/zgB/7NEb9Y/oOBgSW7v4RPc7B7huvc31/eh+La82XHGJQAcXTfffc9bxv4vQ6881idJD6dAIeKNhoxSnzRaDgJEYeFDHcbCDDORXnCtViM6PdJcD84FKD/+Mc/7gAjP6x5PnpTmRDLixYt8lNMDx1Ih8p7j5T9MQFg5LKAiMNZnhZ3BxyCxCgIOhfHbNH8XYaxTjzxRL9nf3/gbJGli0U68FsePAu3QFTCcdC1Iv10f/kOdg2j4VWvepWLeqzXaFk3ODyGwsAvJVEHFk7Hv0f6h3/4B/9GSZQ3nQ830cANB3OUoMnA6xxHFnN03+HyOyYArFwXBUCht1RuUYNH99XW1trJJ5/sNMPnBkGjFBH/lFNOGRLMcCL8ieiZgKBycaIoP35R9FkpgQR3/uIXv+j7Q/2By1V2ri9/+cv94h2uiqVKZ2Jp3n197uuEE06wD33oQ34fumLl6q2oKoB0sC0qG+Ad7PpANSe6f7z/jokOiFiK0mBOUtwRjGpE1iR+wAiAPHfPPfcYgMOAYXUBEouA7y9FIjAaMwV8kSN5sOcYOWBsFuPkf/7nf2z27NkGxxyY6CQEMmDU8JkGLPbKtHDBQreEAQYinfKiKrA2zL4SagGf/YJDDrSgqTN6a2WiblHCCoc2lQnOyTDl4ZjGHID7IgojCFFgAFyAoTe+SoSSfeONN7olWbnI9/5cJrwD5f+73/2uv+7FL36xXXzxxft6df95rFg+5QBo+EoS6gJru1QmALgvMf3JT37SV9wCRO9///vdyq18djj7fJfub//2b/tvZaRlf6Mrg13HrXS4pjERwZHViRP2Ix/5iG8DRVLE/SBc5NmPokUABAv7YCmSeHZfH5mBOxBihT5GQufji0fDEUlwSMQvIg21ACNhoGHAKENkIOHD44tKUcK9E3GwSi4VXf99f3kvnLJyDJn6cY5tvI6Nj6Teo84B6aHR+CwrlEaW4MqVK939EBWucnw2AiCi5ytf+YqPt/J1y0hHjPKIno1+oyXQolEF3CG4XwBKJRep1NvgupXXWD6NBYXgQpQdbke4FX7JCFwM9sMd8c+hvw02/AfnXLJkSVS0/l++okQ9AG6lPzG6oVL1iM5Fv3x3jg/swOGilbZYPAnOS8J/SvDC4ZxGHYDoSJGREbkcBiNQJQeMFHGA+JrXvMbHXSPwkUfkY6vMB0cySjxGDgmw4KiGG1Z+UrXyGfZxCA9McBOcw9E4LJ2A/DkGzBFnHvhc5XEll6o8f+211zoA4VZIg2p6PgVGXQRXxsVVrlT//NdaP0gADkZIlABDZXr3u9/dz4kqz2MpR+DDqkXsDgbUymf2t0/YExZ0lOCG0fBbdG68/0JHOHrk/B7v5aV8o84BiVeL0r4ACIe87bbb/DaifiO/GH45IlwqEwYJn1cdCAa+y4vDGasRPQ7fIemss85yZ3ZlHkRX8z03ElE3A8PoIzGIIYGoRZ9ElEciuDKv8bQ/MFD1E5/4xHgq3rDKMuoAjHx4GAGAa7DEnIpIB4xEF6FIcLuB48QEcjKQj1isXL+P/HE4o/xXBg4M9lFC5lBEAOT6/uZF8HXM8a7g00lRYdCrSZEKMxitx/u5UQUgDuBIQccpWxmKVEmIW265xQ/hMETuwsnovZHvDFGCUcDQFgP0OKPPP+98+8QnP/E8Hxj+r7FIA61LyhBZ1RGQeW90jsABHO2DpSgKB+6OlT1YgmsPdP8Mdl90jndVLqYePUtnpKzorVj2qBGV0dbjkaOPKgBpnMji3J/iHn3GFN8ewZyRVQeB8QV+85vf9N8FCxYYfjIsPT4+SPjVNxTGNZRPMGqo0frFAq0sY1TO6HNgdLpopty+3gkQozWqB96DDzQC0cBrgx0Tb/jb3/7WOf/rXvc6q3T2cwy9ABuqTdQeSA9GYcZbGlUjBL8V+hhfioyihQer8L/927/5KACLd0OwSLTidiBCBRCSyI/ve0TujQXzF/TreoPlO1bnIh2xMv/BRk0qrx/oPlydkHu2KzW8N1hC/6UTY2HTQeF2JDhyFLiKnh2Bj2sYaAPHpjl/qNOockAqQ+/8yU9+stcwGIEEEUHQwfhyEQBDXODnYzB9MC6Afve9733P78chHRksIyEcw2zRV5MYdx5pogNgoCDiEM90lEoDC65cGbM30vyjDshzROtEftEoH85FwBpK7bjiiiuepxNTX/yX0Ho8puoa0eOxVY6gMo2qCD6C6Fat6ihRoArAUSJkNZsDo0AVgAdGt+pTo0SBKgBHiZDVbA6MAlUAHhjdqk+NEgWqABwlQlazOTAKVAF4YHSrPjVKFKgCcJQIWc3mwChQBeCB0a361ChRoArAUSJkNZsDo0AVgAdGt+pTo0SBKgBHiZDVbA6MAlUAHhjdqk+NEgWqABwlQlazOTAKVAF4YHSrPjVKFKgCcJQIWc3mwChQBeCB0a361ChR4P8DfpORAh8ebTcAAAAASUVORK5CYII=;" vertex="1" parent="1">
          <mxGeometry x="1210" y="100" width="160" height="184" as="geometry" />
        </mxCell>
        <mxCell id="-s-YMTsCyma7wOPpWQ3m-62" value="" style="shape=image;verticalLabelPosition=bottom;labelBackgroundColor=default;verticalAlign=top;aspect=fixed;imageAspect=0;image=data:image/png,iVBORw0KGgoAAAANSUhEUgAAAKIAAADMCAYAAADwDHgxAAAEDmlDQ1BrQ0dDb2xvclNwYWNlR2VuZXJpY1JHQgAAOI2NVV1oHFUUPpu5syskzoPUpqaSDv41lLRsUtGE2uj+ZbNt3CyTbLRBkMns3Z1pJjPj/KRpKT4UQRDBqOCT4P9bwSchaqvtiy2itFCiBIMo+ND6R6HSFwnruTOzu5O4a73L3PnmnO9+595z7t4LkLgsW5beJQIsGq4t5dPis8fmxMQ6dMF90A190C0rjpUqlSYBG+PCv9rt7yDG3tf2t/f/Z+uuUEcBiN2F2Kw4yiLiZQD+FcWyXYAEQfvICddi+AnEO2ycIOISw7UAVxieD/Cyz5mRMohfRSwoqoz+xNuIB+cj9loEB3Pw2448NaitKSLLRck2q5pOI9O9g/t/tkXda8Tbg0+PszB9FN8DuPaXKnKW4YcQn1Xk3HSIry5ps8UQ/2W5aQnxIwBdu7yFcgrxPsRjVXu8HOh0qao30cArp9SZZxDfg3h1wTzKxu5E/LUxX5wKdX5SnAzmDx4A4OIqLbB69yMesE1pKojLjVdoNsfyiPi45hZmAn3uLWdpOtfQOaVmikEs7ovj8hFWpz7EV6mel0L9Xy23FMYlPYZenAx0yDB1/PX6dledmQjikjkXCxqMJS9WtfFCyH9XtSekEF+2dH+P4tzITduTygGfv58a5VCTH5PtXD7EFZiNyUDBhHnsFTBgE0SQIA9pfFtgo6cKGuhooeilaKH41eDs38Ip+f4At1Rq/sjr6NEwQqb/I/DQqsLvaFUjvAx+eWirddAJZnAj1DFJL0mSg/gcIpPkMBkhoyCSJ8lTZIxk0TpKDjXHliJzZPO50dR5ASNSnzeLvIvod0HG/mdkmOC0z8VKnzcQ2M/Yz2vKldduXjp9bleLu0ZWn7vWc+l0JGcaai10yNrUnXLP/8Jf59ewX+c3Wgz+B34Df+vbVrc16zTMVgp9um9bxEfzPU5kPqUtVWxhs6OiWTVW+gIfywB9uXi7CGcGW/zk98k/kmvJ95IfJn/j3uQ+4c5zn3Kfcd+AyF3gLnJfcl9xH3OfR2rUee80a+6vo7EK5mmXUdyfQlrYLTwoZIU9wsPCZEtP6BWGhAlhL3p2N6sTjRdduwbHsG9kq32sgBepc+xurLPW4T9URpYGJ3ym4+8zA05u44QjST8ZIoVtu3qE7fWmdn5LPdqvgcZz8Ww8BWJ8X3w0PhQ/wnCDGd+LvlHs8dRy6bLLDuKMaZ20tZrqisPJ5ONiCq8yKhYM5cCgKOu66Lsc0aYOtZdo5QCwezI4wm9J/v0X23mlZXOfBjj8Jzv3WrY5D+CsA9D7aMs2gGfjve8ArD6mePZSeCfEYt8CONWDw8FXTxrPqx/r9Vt4biXeANh8vV7/+/16ffMD1N8AuKD/A/8leAvFY9bLAAAAbGVYSWZNTQAqAAAACAAEARoABQAAAAEAAAA+ARsABQAAAAEAAABGASgAAwAAAAEAAgAAh2kABAAAAAEAAABOAAAAAAAAAJAAAAABAAAAkAAAAAEAAqACAAQAAAABAAAAoqADAAQAAAABAAAAzAAAAABFOPoEAAAACXBIWXMAABYlAAAWJQFJUiTwAAA/DElEQVR4Ae2dB2AdR5nHP/XmIne5y92O47jEduzEIQ4JgVTS6BBa7g44uIMAdyQcIZSDo94dHO04eggBUoBUQhKnucQtduLeu2zLlmzJsrp0329WI6327b6i957ek/Mmkd/W2dnZ/3xtvu+brHYtkimZHkhxD2Sn+PmZx2d6wPRABogZIKRFD2SAmBafIdOIDBAzGEiLHsgAMS0+Q6YRGSBmMJAWPZABYlp8hkwjMkDMYCAteiADxLT4DJlGZICYwUBa9EAGiGnxGTKNyAAxg4G06IEMENPiM2QakQFiBgNp0QMZIKbFZ8g0IgPEDAbSogcyQEyLz5BpRAaIGQykRQ/kpkUr0rARJoIiSxvW3iY2lqKlrUmaW+rNX3aOSG52gWSJdmGW7rS3Slt7i7S2NktrW4sU5JdITnah5OUUmLfL0iuzsrKcurRCtjOlqweyMjErTme0dQBJOkJ4AF+2gqWlrVkhlK2gy5NW/Y9tB1QKJt3m367SrkDT/9pAWru0ten1iljqbte/nKzcTlBzF2DMUhBnA+Ru9XTV+HrZel0DsaW1SYHRokABdNmSnQ2DaNM/BVs7+0rBDDABjBI9PQMIoy2Akqu5zwBcKwGk7YbKtilIsxWszQaobXosL6dQwZr3uqSWrysgAgwAAXttlWZlnbn68Yv0mFI2RUx3iHXfixZ80V1noGku7QSptq25tcGwddsuh30nsx3RtbY3rjrngQj4YIttbch6LfqnUl1WvqFw/OOw197o6sjPgFI6pV0B2aSUss2w7WwVCxz2HbmOvnrFOQtEANjc0qAfEFKngFOql6Xs1/lLfyqDSKBSpv4hX2bpQGrSQaODSCn4uajonJNARGttbKmTfP1o2aogZKms50Av/QEYStEAJBIF1LJNGprrJE+19bxcFSnOoXLOANHQDwVgW7tSDgWfASAUsAOC8X0zWCVmGcc007WNstMl7/GsHGWjOdn5Rv5E1svWbTRurwTas/YojVRAtpn3bNF35Fk60PQ9+3o5J4CIfQ85EFMIMl+2mkx6CkCA1dhUI9V1h6Tm7DGpPntE6nX/tP7W1VdLkyo6Tc1npbGZX1UuFBjQWeCYo4DIzyuUgrwiydO/grxiKSkolYElo6Qwf4AMKh4lA4rLZFDJaN0fGFcbsW82tzaaZzPocnLy+zQW+zQQsc+1tunHwBYnCr44AFjfVC17K9fK9sPLZP+xDXKipkLqG+oN4KBAjvKgyo7Kbm2YdDp+AaAFIr9WJuUXWc6ARKlillKuQgVnUWGhDOk/QsaPmCvTRi+VCcMWSHHBkB6ByJiBFJCmTaqIQYn7qlLTZ4GIDbCtvdmZ3egBAFvUVAL4Dldtkg37HpMdh1bJ0aqD0tDUYBQDxwgNzJRGAjwXC44dNQpRgMl/Bpw6cJRdF+YXyYjS0TJ17GKZXX61jBl8gRQVDDb2xNie4RjPm5UzIAbArhMjCsTWiniu7nNAdOQjNMk21SAxwzArEX2prT8uh6o2KOV7UXZXrJUjJ3bIqTplucpmmaIDb4oV8x35SXQB0jzDYFsfAMWEnQ8sKZWRQ6bIpLILZdqYN8jYwXOVjY+I6fH0CTNBhhobEaXvzOD2KSDCHltULmIGwsiDMQjpNWePymsHHpNX9jwqBysVfGcqVRas1/qa9WN32O8gXDF9+vgvNoA01eg0Yg5UslD6lwyTscOmytwJ18oF5dfKQJUtoy2O2UdFFqX4KEqw675Q+gQQ6dzm1noFn0qCynqYjosGMtzX1HJW1u35vSx77Zdy8NhOpXx1SjVUu9Y/WwwFtDsp+u0CpEMlc3JyjePEmGET5bLz3y8LJ79b8nNLtA+iGSqIE1BHFV90vrsgr0TfKpr7UvTytE4/luEWqWtC+Cc7Hdpg5mhzlRKiEUcqyHdovdsOPyNrdvxJdh1eqxpwjVIJTDv60un9Tczr8VX4MJhoBhQPkEmj58nCqTfK9NFXyuB+4/R45H6g75qUMvK6DhdJXzNPmgPRoWh0OiwmGnvZ2cZq2XTwCXl5+0NGBjxVW2XmcPkYfQGABoWufywgc9WdrLTfYJk4cp5cNPVmmaUsuyR/sOtK/00rN2LuYSBHR1H960rm0TQGYrtqsDU6g1Csox+jbWQydqJmlzyy9uuycfezSgGrzRQfHwKSEPnuZHZzfHUblqX/0Ad5uYXSr2iQzJ54mVw3/07Vuqdp5eHfzmF66uahU575ef3ia0yS7k5LIMJaG5prpVBlIsc1K3xHc+2OI8/JI6u/JbuPbDJyIIwtCuwmqVuTV61DIbNUXiyWCSNnyPULPyszRl9hDOaRnopVoEkN8flqz2Rwp1NJOyAyT4yRmo6CHUUqJ2r3yItbfiYrtz4kR08eNIZndJnw0I1Ua3qfh0JC6LFFjhg0RhbNuEkum3m7DBswOWLDHfur2hvNPHxkOTNihQm6IK2AiJNoq45aQBiNUfZw1avyyJqvycY9z0tt3SntEqb5EtQzfaAaR83Mlv7FpTJr4hvk+gWfk7FD5oVtOVOYjrG+RQcrsjfz4KkvaQNEOsjRajHRhJ8ZoCP3V66Wh1Z+RTbvW6ns5qz25LnJiiNBxAGjsmplt9PHLZSbFn1BjeKLI7LeFuU6mLCMJSIKDTxSO+I9nzZANHZCxqiyY6bCwhW04kdVHtx2YK0apNU8Ef7ycFWdM+cAZK4Ga00ZO0euW3CHGsJv0F4MNtegxCEzYmdMB5eytABiU8uZDnYc2USzfs8f5eGV35ADx7ebWRZ1NcyUjh4AjAzk0UMnyw2L7pBFU94Xtm8sF2LOPj83tdp0yoGI9R+WjBYYzk5Ip63f+4Dc+8xdcuL0EZ050Oi6DAhDgAYYs9QIPqh/mbz38ntkweT36n5wR2HagRthq41GOQx5YIIOpFSHd+KAmwxrCAdCOurVfY/IQ6u+JseqDqi2+PqUB6P55mCOQVp56pByjm8aUM5WNs1A9yvGNqmG7madCm01EwepgUSwEOHX6gQeQ0bBsTM3gg8d3tDbDj8tj635rhzQueJEgBCq4f1L4KvFXJW3LezHUwBjjg7WQ5V7VJb+jmw5+KSKMU2BVZo5fGXpeLebCYDAK5N3ImVAhCXjvMDkflCBHR86ucExVFdsVttZz9gx37WlVVS7Fh352N+UDanZwvypx0uu0dKDWpH84/QBnje2TRjxW7SdtJffngDTUsa9R7dp/31bDpxYGxZkjqVC+0eVv1SUlMiI1miNlhfOiQH3/Pte+JSs3PKEanexa8fOB8yR4sL+Mrx0pJQNniyD+4+SwQNGSYE+m4I7WWXNHnlyzS+Np05vfwSmMN88/zYZMXByB1CyDKeoOnNYqmqPSEXVbjl+6rCcbag1Wm6syhl9kJ1VIAumv0net/R7UloyJvAVEZUcLlXQYUILvDThJ4LJUcIf5VQIlUNLY9SHAyE5ZJZt+oGs3fE3dWdq0HiQ2BqkYcxG+J5ZvlDOL79SyofNlUH9xkqRxooU5PXXjrazClmy59gK+dv6+6Rd5aQYHxNbozxXQ6kxKM8af61MLlvinNWD2EkbW2pNrMwp9SLaV7lRNu17Sm2mq43NVBNERF2gjMxUvbJrmQ7E78lNF31FKa//jJUzkUD4hcOtwsntUTcgygt7HYjYrUySIuMjF9zKVw/+RcHxG6lvVNNODB1PjaQQwYxx+Zy3y5IZH5CyQTOkOL/UgN/viY622JsQdLeCyL8CVSbwGewqBFsNLB4twwdOlbFDL5QpIy+WUUPvl6eUcpt47Rj6hP5raKqTZzfcJ+XD58iCSe/uepBni4HR0tKoyS+YpYrhIZ56Yt3tdSDiqGp848IYW0/U7JZHXv6mVNccNyCMBSKGHWsw/fypl8ub596hLG9aIABtZ/VEBrP3JuYX2uhfMKuUaBzLhOEXyYCiYXKq9qis2PSIsvHYpjNh6adrK7VfvyPjFdjDtV/8CkZwDNxNGhdeqIO3t0rvQV7fiLlkFBRiTYJKo3rSPL/lp7Lr0FYFkIZqxoJCrRRQDR4wTJbMVLmrdHpEENKOcHa2oHYm8ng0zweQQ/tPlCXn3SZDS8sM1Y+lDfQjFod9FTtU5PmJUsjTgbdDFaGGWCx6q/QqRTSuXcpyggry446jL8jL2/5s5JpYWbKpVztw0qgLVCacb4y0fs86Ur1ZjlRtMbazNnWUOH5qpzGq+12b7GN87E37nzQKU46CDa8YfAxHD55lBq37+ShW41XWnTJmnhr1K/RUR6yN+6Iw24682CSrtz+iAVpLZPa4GwPZb56KCnwvRJreKL0GRARgRlo4P7ja+mPqzvU7E9aZpfkFYy1QQ8wgE8rmSv+i0Ag4gP7yjt/I42t/JGc0WB6lQGmogrBRQekEq8f6zHiuh9gj7z278bdGsXLCTdHyS+WquR9U+fb2kMFUUjjUvN/a7U/rvcTxxNYC+rWyukJWbP29suiFGuzvr0VDgTHpMJlgMqbF9piYr+41IJIhoTCMgoISs+voS7J5/3JjfM3pgdAAEIsK+ilFmWLkUG9vnKzdK3/b8GPZcXC9fkAH6PZDIkPZbe99ydxH1quqOWYeYWVVki5la8D8lFEXy8jSWd0ej8Y7fMAk8544ucbaZq6HKGzdv1J2TX5RLpz4tkDxhdxBDaq9I9Nr73RrR6J3evC5Y29CK+YaHWGqywbeXNd4Utbt+pN+FFVQ4nhn0n30M5kTQis5dGKjzjbsVerTrn9QT8wnzl+sHzTwRWI8wXNtG2ybaN+Rkwdk3/H1vrX1U6pYpKmRe1p45qkzJ2XtroeltvFEYDVmxkXnrcPNygTeHOOJXgEi7McJfgoFB+2FZR44sU5e2/u8UWjiAUVRfrGm8Bjk2w0navZrChEnks/3gjQ5yPs3tzRL9Zkjvi0CiMWF8QERxXHzvuWy//gaVfCCxCClzJhzlIImuyQdiGSvgqqHs0nhlb1298MqgJ+ImdV4OwiKSIIjv9KopiMSdvaFomb/Doff0NYSAEV2iHgKYK+qqZI1ux40rDqoLpNTSE868nTQVfEf7wUgaopg/S/cLEqlRt9t2P10zLYxv9dn3jYou4EzoR80+v1qS+UxUuFBiULbi5jjiDo9b5/DdVrl1d3PyrHT2wIrylbThWPKSS5VTDoQ+fgmPUgYYXf1zvvlWPVRIysF9kiUJ2D+QXY5RIC+Umip+lAHNBcWY/4POB/dYcxjlacqZdX2+8LcQOKobCUSTtaxMBfGdSqpQEQj5AXCjd6zTSdl1ZYHpa1Vg3lAUaa4eiC5A4f+5hut2qZKiyanCirIiRQjZgVdFOfxpAIRuQJBOBwQd1a8qDlp9unccJxvEtXtyf2wUTUhlougQkmm4vT74crDsqPi2cCWYWg3FFGN/8kqSQWio43pxw8gdbgdvbLnzzqvibdHYl7RYcv+lTmJl/oIGBWE2F6DlIRIAWbR9iafBk+nV/b8RWXSoCk9+pO/5PVd0oFoybpfx+BvuPPQywmlhsgz/OctjGgcLpLZmd5nxrNPe+saqtSG1xhSjWOB4B39B1zIDREO4Ju889A6qTqzP/BKnHadkhwwhn6xwKbEdgJqCMXL0Sm3oHLs1DZNEXwyIUoKz4BKOH6Ooc/Ep7Gm/qiRiYLak17HnRUE/KgUq1MxlZmogtJSpcmqjur3CCp8R4LcklWSBkQoj3Gw9KFO9mUqqndIQ2MCDcxKDfsVDlQbW2igEMtd1J49qUBU3/s+UTQJlUkafyaktYVqRxyoyTzNYpQhZ2M/AF1tbG5WIO4Ic7OuS6jUGUqdjJJEINrmBrGPdqWGBxSsiQMGK4UO6T9GitQD21vO1J8wGcKCZxG8d6R2n3bWaBqV2obKkIbk65z9sIHjzaxHyMkeHmjVuf4TtQfCAE35jZLO9gB5v4eP7bwtiUBsV5Yb7FNBkE71mUNKOBOjiTFLxWzDmKHn+xq0q88c1PnVqs4X7wsbNXVV2kcHtKnd5TKsEGOGzNIZpCLPmTjeSr9DVe0hTeyJHO1fEAkUqf4n4zyaNCAi25DkJ6g0NNVqEnW8TuIn9XRNS2uWjBleLpNHdsR+uB5MWyqqtypr7kNAVEZypv60RjFuMgFNrtcxmxNHLNIlMqaY904ENLLUNFNTd1wdZmu9j+rcR0kixUsyStKAiKt5uGk90ozUN/LSsQORjm/V2wgR5a9V/4YPGi2XX/ABdZGaGtJPZ+orZduh5fo8DY7ySAoMcFuP/Y12Oprr7D2mHVG+it8zvYSGdjbqUhssu1GjfpreMrhknCzV9x1ROsa8v20H/dIzYJIYtU5lxWAgYgFp1O+WjBLMO+N8GspBuJgHvH+b1CunJxYIWNPAfqWSq9lT8/Vv1JBJMn/KTTJv4k2qTXaPUMMOt/vYck3YtMooKmiItvDx6dwRg0dpgNUE1fBz5XRdpbqK7VYQ1Clogz9pa1u2BjcNlNHDp6q3T3+NuDsjh47v0PtPqWgQjMi2tiwpLCjW/DSTNBXxMHXCaJWj1fvVWfWwUe7sQGG8qLonOw+vk51HnpNSTeaOY7EttHvehJs11jtLHRcekooTexQkrJLQqJS/Wt81dpGHJT7ChhBousAWvlkSStKAiLDt2Lv8W22AqC5ZsRbAU1xQJFfO+4AMHTBRQ0P7yajBM81iOX51ERbw3Kafy8maym7UkHoK1KdvZvkiWTD1Js0rOMcEuFfXHZZX9j4m63Y8rvcc03HSHVQGmu05mq11miyafpNMG/UGdVItVSCelp0Vy2W1TpftIRmAAsGCyrarXYO6iKeZP/VqmTvxek3KPtooa7DfNTsektfULcsZAM4dygnltMq1z+mKCKMGzZRxGv7gLkX5g9SL+0MyYcR8Xbhos1KzM2oLPChPrPmBnDlbG/J8971+241NjeY9/M5xjMmCcLNkQfdFczxpQDSL8YQhd3Rak/rcGT7iYZfhGu4AqEDmT761Iyml/80MhL2VL8tfX/mebNq7Uqv0AAMwlZ2nKdw+J8hbNtZ39ODZ5qPnaYDXMxrO2qDtdD8Bdjy0dLjccNGndbWoG9XrvEtDH6/LmZWVTpbfLrvLZK91T1sC4HyNjrto+nUaXfgZDYSaoB/WIc+jdRCUlU6Vs813yZa9a0xb6QPnue2y7eA6TUj6TXnLvE9qWy/S+7rL3qN1xSr+6MyKU1tk2cafa+LS2IHYovP9TRoaEFwc/8Tg8z0/42JUPa/E784cXZw7XME4ClvqaXGmuNwQ6aqpruGErNrxa/njS3crhXpcKcVZZcFd59kiY9as8sv1wy7uBKFzXKlWv3JZPPVdhnp5BS6AOG3sAplTflM3EHJvgQYczRp3nQYmLVRjPke6CgNo0IChuiLAO000ngUhV5D/p1zDRedNvFrFg+6iBViFHa7d8ZT8Yfnd8uI2BVlDqMzoPIle8e+TrpYEb9HkSCw9XMxRcM2Rz3g+T+Qbor6iY7RHfX0MF3q+ccidrCa69fALKheul6YmBaHPt0GRKtVVQwGBt8CCSM1RrLKcGs66nwZQeh/Z/f0KMurAkrLQU3ofIgXBSn5uash/Q/r7r58Ciycr7nZ9ny0HlglLeAQVAJ/M4h5AiXxO0oAYaWTp19D38HzkKN8s0l0lhUNk/qSbNbb5BulXMlgpb2jFTD8e0zBSZ/65+3lmD5juqtVFgnRJpO4n9eEVVTojFKBdUt/R6l3d72FP76utr9F6tyrVCW0QEXmHTm72NfDT/pKiUrl45vWycMotOns0PLT+jiOmWwPPxn/Cr+3x16pKYyIq8asjyLvYXosMmdOTUL2OCjzwsNWaX/LbzBp3jS79cKdcMec2XZq2fwgYySz26t5nZcuhp9RO16UJ0tHHarbLS1t/LdW1GljkQT1N3nnoFVmx7RchGiamj1U7f6Mml3Wq4XZrkhl3p2qrtd57VY5DmekCI5ruVk29t37Xk+qX2V2BA4Tkx75s9rvkrRfdpevz3WgyP3Sv3b0Xrmfc1/lve+VP71XkLUpGSZqyAhDxpQuSWUiElJ8byhYjvSQjnqVsV23/rWzv95JZZ65Mw0fHDJmtMtuATrYH+xs+cIoqBp+SytN71Pn2Cf34rrR2WW1y8LjmD1zzLZ3a2icjB03XRE+5UqNTahv3PK5a81PGvOSlMMiaNWdPyWOrv6+/lZo4fZFpA/Ew+46tlhc23W8i5EKAqC+GMXj9zmdMn8yZdJ0M1NhrKPNRnXNfue0Bk/9RsrrkZsNmtU2zJlwsb9H3GKKya/eC7a9WDle/pgb77bp9Rhc4P6yab+xhptSbl5uncm7oPH3XM/Ef6GNARKglAEj1rK73cG0Bmvy8HgKxsV4TNP3K2NWY1isbPE7OH/8muXjae1XOKnc9RWRA4QhZev6HZG/FBqnQEE0LLH7JkrVt/3o5Xn1AhmiqOuIz6hqUfep1BNx7FRxbMUkwj1YdVjD+RJe2fVKBqLliNMa4QrPZ1tXXmjBVe637F7tknc6WrNjyqOw5ukFXkCpVO2CbnKytkJMaOKZQ7Wwf9wHEoaXD1HB9u8qWY91VmW3c6JZvu1czRTyly/3uVaWs3gClQeVi+54hN4U5UKAro2ISCipQ8fjobVDNqrAFn4rvDPY9HC6zcXbzKQWaPDw/t7uG6HOZ7yEAXqfylukU/eeE5g/cp9lk2zXj6Vvmfk7r7RrVCNfjhs6XGeOWaFzMH7tRRT4WsuyJ08fMn30Yx4NAaK8hBrlBM5XtObLZHjJcnOPhCvXCig8e393tMhQqN3gAIWxy2pgFMnH4ohD7HeLESs1a8djLP1AKfFzfgxscSSJS27s92LVTkFegkxADXEe6bxJtiQkqGcWfXCXgSWSUcstB3iphzcUFGvbZQ+2azob9Yatju7buhCzf/ICyqC5g2GeivEwdvdjEAht2Z0/oLx/f1GPr018/Ldt1S+dmZxs67o0WANTvfaYbhDyAdhaoU8OUUYs1fYq6fHnK8dM75MVNv1M5Vo3uSqHpB+qMtg2e6nQ3y2SP4LsEFWKh83N6Hk8dVC/HtenJKXhqhAMiPnWl/UbqwyOQkCibx0c4fuqY7D66Qu/Qr+gqzAaUaWKjASVDXEfTf5MVpUYOmqYACxVhdh9dqSLEYQNAxXXcRaGsZqcRIbZRd8UET/m1xX1NT7eTBkTYBIJ4UEFrHtxvjJ5ODBB5Dizv8Mkt5tf73NKS0WobHKIUMBGfzVt7cvYHqumJLLfegsJwpGqrkWO953q8r4N1cP+xYRMuEfOTrP5LHhANUeKjd6dOXR2FVluugr2/DNl1XfRb7Th31hyS+ubQ3H/FmuyyfxGiQN8AIh8citivKNRm2Nhco++5P+xAj77XnCvxHR02oDwQaMigQV8y1mf5XZ88ICpJRHMOFwtbpiaTooICIw/5NS7WYygx9WrOINeOtyCz9isarK1KHAX2PiOx++qloyEPbsXL1o+pqFbT6pklSu3BOH6RRwv1O2DCCiqIWY73T3IGctKAyIhmlIULuCE/9IhBI9XkEPT6sR4nYEvzI/jMYefpKgL9i8t0xPcNIGL2KsjvZ2yb3l7gHcPJ397rI+3T/8PVkaNMv0dQIaOb2w0t6LqeHk8aEE2DFIxOLLF/8/rrVNW0sUuMY6f/FbEf5QNBGb0FM45DXZIzor3Pi3tfB0yJZjXL8Unz3PWOiWGWLa3taiZarP6VowKb7ciHCpckdV9SgWiM2UYmCwUGbww45k64QdlzYcgUXGCPRDphZBn/D+T40iWpJyO1K9bz2m+IE8ny/7PNwUuoUCcF+A5ZKkr5F+RDZsnAYXL6L6lApBNh0X6s0r5w+fCFMnHUtASyZ1uz329yOtHvSYk6lqwPb9uHFFM+cpJMLLvYHgr5dRZzJytY8sSapAIRisdfOCAy1bdk5nvU7R+7Y0gfvK4PJBuE9DeB85fMfKcmbQ+e2nPEK5TP5MEleTV3QAiq6MhswSi7cOItGsMxNiFU0TARlRP9ivNh+wZVNGwwiAKBIOd/v9eM+hhKStngkboA0DvC3IMCaMM+ktd3vQBENeGom344qjigaKTMm3Kt0cripYotOr8dFPJoRIUwXZ5ep7A6MKMS+vExaMebmIB+JgBr7uSr1dAfajS3fUGGXcd0Ezq7Y69JxG/SgQhr1vW0dFSpMBJQstRbep4KyyOHjNLrAi6K8nCDukCdbQw1aHN7kUbbda3BF2WFKboMeyfToH6lQQ32DeppE0+hn0cMGiEXTr5RARks+zE7lqXkN5lsmfdIOhB5CMsjtKjLVVCBZRL8M3vim3SmJT8uWZEPxIfyK8MHTlLbXHz1+9Wb6GNQK3wDh+iUm1+pa6yS+oY6v1NRHaN+qO0FE95o/DjDyaIkcs81y1tEVXWPL+oVIDLiIO/hbIqEZM6deIMJlHcMBT17J3zyajWg3m9CipDM8rIZ+pGLdYTnqyLFUl+5OgyCKULPWhHbXTzftMO0J9+YbcaXTZVxw+f5VNQuZzQ4DJ/DnhbWcRmmywZfOEm9vfMHB1YD+3fYclc8deDFcZ4IMhzFWW3o7fgfOgsN6nyvT2FUjte43TmTrlQn0Xt1mi52L2NMlvUNZzTG11nezLviJw4E1y64Q93BfqWB8MfVkN5gFCliiY+c2CfMHoRKZD6NTeAhBsOooeXqB1iiz9Yc/rqgT3/N9HXpee+QYf0nhzyJ6cuKqm1m1VZjog25IvwBh9oWyOxJl2vk4EJj1Qi6w6w6FRAkFnRPT4/3GhDJW6hvrUI2S6H5C774DS7WcMttB1eow+lWnd7y136DXpYPg7Kyp+IVdZmv0El874fMkpljr9HVnGbKKfVuBuxkUzhctUnuf+7fpZUl43uxIA7na9TfFXM+qCzyAgPEvJxidVcbYcIC/IzZLBO3p2K9tl2z7PaAnxHkP1KBv3jaOzUIK9TP0b6+iTlS1PpFOdprEvnba0Ck0VBF5LfCfGWJPrSHYxPUG3mJUoNDld+QlmZN+xFjZyNY7zu6WdOMrFA3s3EhoOcZhBO4QwpYiDFZ8bqRPhYDFE4wdeTSSJeqaKOD7PjLsqviVUPJI97gucChhoVy8Xm3yKQRlyhdCKL/7Zq+RFPG5MG9gq7xVB7nboyfOb6nGQO3sh8nws+/LkwKF097vwrSC7WzNe4FshFDgUqQpuP5135hMj24I/QCq4n1IYEV9eyEcfOPcCtKw8GqDfL8pl+qV3ZlzNSQV2zX7BYzxs+VSzVNCSJAUGHJM6hxsjVl9/N7FYg8OF+pIkpLOPewAcUjTSjoqGHje2TOAYyb962WR1Z/Q17d/6hU1x1S8Aez3WDK4O6q5G37cQf7NPqKIKktB5/UVVW/Ja/tfkkpWezqHGGpIwaP0VQpd0ppsb82zjNRTrDD+rmf2TYl47dXWTMvgAatqxKroqBRckYQ9if9k8qWqGLxcblv2Zc0su6Ujs7oXx+OAxtbt2OZRtvtVsH8zZos6RKVGSdqnMwgjVQb2MmKuTalSd6VUpEckyxcVtPH5tqg2SrONlVrIqh9suPICl2Z669mQcs2DRCLpS/oNUBYUjhArlnwMRUB3hi2I4lsRIZP5ryyXwN6HYg0ghTDKoVoB7UqMP2bgMy2WFn0vmMb5YXXHtBwzfBp4rwv54g/zSZa7uDxn8jKAQ/I2OHT1O+uXLOIjdMR76QMQVw4oR8bv8kYsO59XI/2eR4sd+PeRzTUdbOZgaIiQh5O1h7UTBT7dQ2a7WaNQj3qxKfE2EhYMqmOF824Vlny7Qoy//7muZZT5arvZjgqzbWJLlkqn8QohSWmCWi3ZA3AWBoki0AhjmpU3oMr79bA9GdN/pdA+TpMs3hDqAKzCbDtXA15MzM+9h69IFx8jb0sWb+OLbMLYczNt2j2UdoM9aPNPX1vFv2eM/kyufWSr2qWs1laT9dzur9PW4fJTPlVLxiwuz87iXHN3gd591megbR0rYbV+Cc0YlSOGDhdrr7w08qq6nQBw+UKmNhXIaDvTbhlRyPMdKPbi1vPB30eb7uTsW8GgZsc0F4FH389LQy+LDXaTx8/X66Z/2k1WZ0XBoSO2QsTRZBpraftiPa+OF412kcEX0ewtpOeLjjaD9Y9cfhiuXHRXTJp9PlKHeKfogN0gLPzL7iJvXIm0e1xQJgnE0fOMP02uezSQBGIF0RBaVY5FUrYjVP0yts7D0kpEKFDGHAxsdAZQYXOmVx2mbx9yZdl0shZpsPidY4IelZfP06/kGOxXJOQ3rrkblXSrggLLrgDcmqe5nbsbbnQ3dcpkxHdjQCIUAVHWws/NnYde0EeXvHvap5ZpQCuj1mDdD/3XNsGhFC16eMWKCW8U2aMvkJfkZ71L8jgUMJsVR69ucf970je0bQAIq8Hi2a6DUNrePbQbqbkHlj+ec3a9aJRYJS5GDabvG5K75qNeKmODDhzzJywSN6uisnYofPCUjg4ELIpihFacqpL2gCR0dliHB10fJr0vcEjmU5j1fWHV31ZNu5eZrLoq078ugQj8iBKRj9NHnB++VK5efEXTA7wSJTQDHxly6mUC93gTxsg0ijkFWxZmBiiCeY+UbNblm3+saZ5e0iXh6gAyq8rVm1AqNN2QweVqZ3wJnnjrI/4rjPj/uBwD6bwGPg4NITnPt3vTOZeWgHReVFNPqmLytBJNtN/uA7ASfSVvQ/JX9f90KSma9OZAauFhruvL58DgPwhxowdPlGuuvCjmqr5bRoHHTnJFPP8yOS4yPl596SqX9IQiE5XML3lLO7ohKRG6qAKXWfk189/UnYfflXXKjnTEdNxbsmOhgJqR8At8jWMYOKo8+W2y7+r3u2zI3WPnlcaqBWwrEi4HIhRVJSUS9IWiLwt/oLGC0RtidGwkOq6A/Li1p/Lup2P65TZXjnbUKvd33ZOsGs0Yhxniwv7aeRduczToKdLz/uwTzrjUJwAQMQWAqEIxQgnP4be3TtH0hqIdIHjxoU8E0mbdjoMP7oDJ9bL2p0Pyiu7n9S0xBUqEzmBRhiw+1qBCvKXq8b/4aUj1IP9Kl3u7RYpH7rArLoV6X3QjvE8cuRuf4fkSHX0xvm0ByKdgL2QXNOsbeJQxkiIwj7WaAD51Ibvq83xRU11DLtmkSFnFiedQQnwKDh+wIZZFeH88sVy1dxPqBPtQmNViGx8dlhxs2YOI0qSOed0Ln0CiHSgE8PiZBvAeTZa9gI12HTwMc3a/wd1sd9oYlUIOSW/N3ITJR1AacFHezDsF2pi9YElw3WG5AJd8+9WmT3+BnOc85EKjJjc4O066FqVIva2b2Gk9vmd7zNApPEYYFs023+OLouh0/NRyY32pdGu91eulc0Hn5Ydh1fpap671c/xjAK80ciRqdK0LeuF0mM/LSkq0fjuSTJ11EVy3rgrZIJSwJJCIu0icQHnTQEggw9TGDbCdNKM7bfw++1TQOQFGO2wVyLuyHnouDVF95G4HyfYM7qWyo4jL8jGfU/IriPr1PX+pM7QKCCZaTBz3h28kRsoWn30T3Bucf9ravNUSY2AD6Cw3O+g/oN1Hn2uzJ5wtUwfvdQENnmjEN11hm5rv2jbm9vqdYjmqZOD/mn9faX0OSDajjWT9SoHmvlp/aiskRIrXAA0S5Jt2P+IbD3wvGra+6VOl6xoVbCyUqeT9JN8i6CI1BshaLLNCfx1Boomo+poI+BgXWiUj2JNxFk2ZLxZemNOuWa60OjC2JNhwoadmPFmlYFhw32FCro7rc8CkZew86Umha+hLtGZedwdYLeJLjx6arscPLlBjuj6ycdPHdSV46ulTleZYulYbJPGmVf9GFsVkG2awcgBqK3B+TWAU0fCHBU8CYvA75LMr/mqLJToNFz/4kEybOBYDR8932RZKCvV9M35pd0riXLPAlBhqDDHgRYqmNpkAVE2PeSyPg1E+zaOXKTyIxRBPzhaYmSt0t7t/VWNW+2XZzWGpEGTprPEWGNLrSo5RzSnju4rYOs0t86ZhmojrzrCgqXFGgSh8ms/lelYQ6ZIU+4VFwxQpWO0htL2VwWknwnRLNJFdXBQ6GkbGQC8M0FO2RqgD/iCQi68b5eu++cEEG3nQiGa21ibWc0eojazDnW4px/c1psOv4APqodRGqWNP0wy0Rj606H9kdpwTgHRviyUkVU+s5UtUswi5kbhiEflsLX37q9h/yqaYgNF3sRrBhacav/BRPfCOQlE20mYMfBxbGd+TJUZAlmhIH2BikDdjQyo8p+RgfWlCPF0ovD63oCy3yTo95wGYtdLs7xrizNdqN+wQMMTjFSnFKbrk3Ztdd3Xm1uG9qGB6UPbTawzWbvyTRxJdI4fvdnaRD/rdQLErm4zcqS6x5OOF1OJY/ZRKqkfPcuYgLoUj667Er3lgA7oo3sDPqNwYYZR2Y9DrJvcFyh3onrmdQdEd8dZwzh0EUAY+qjo4NeZuXHyf7Onh0xxfjp23JWFbAMuPcilYM2YWLIN4DRq2ZzDpuiYXpyLiB3p69pvSDdEeeB1DUR3HxmZDMRoseYgDNho4fnKyrNUE283XiwOFQWcoaB0KB2gY11A42ABldVqSSviOB7gSWQThHbUoIB8vZcMEKNEAOBsUvtiY6satnV+GsqViw3PaOYORWOKEK22RQGL9zRrHxO73VeNzFF2TUIuywAxId2YqSTeHgjOyBNvzTHc39TUJEeOHDF/p0+fluHDh8uoUaNkxIgRHcpEDJVlLu2TPZBSIB49elR+8YtfyB/+8Ac5ezY0OfmQIUPktttuk3e/+90yYMCAPtnBmUZH1wMpY83r16+XD37wg9LQELq2srfpUMcHHnhAAGamnJs9kBIg7tq1S97xjnfImTNnTK9OnTpVrr76asOOc3Nz5dixY/LSSy/JihUrOnt93rx58utf/1ry8pK/1ELnQzMbvdYDKWHNjzzySCcIL7vsMvnhD3+oXivdm/LhD39YHn30UfnMZz6j5pR2gYICTK7PlHOvB1JiwFq3bl1nT958880hILQnr7vuOnnzm99sd2XlypWd27210dzcLJWVlWqWCV7CLagteMqgfPW0xHs/A7i6urqnjzf31dTUxHV/tDd3J0PR3hXndTlkzewoBw8etJu+v8iRJSUl5tzgwc4qSX/605+MzMhB5MdvfvObIfd+7GMfE9uJUFyvsvP9739fXn75ZXPfRRddJJ/4xCc669i6davce++98swzz3R+SNo8evRoufTSS+Wf//mfZeBA/4WL+Pjc+5e//EW2b98ujY2NMmbMGLnkkkvkc5/7nPz2t7+V559/3jzr/e9/v7zpTW/qfC4bibr/ySefFN6jrq7OtHXGjBmyZMkSgdM405pdj0VphPNQsFR861vfkh//+McC59qzZ4+xYlCf/Q5ddyZuKyUy4g9+8AP53ve+Z94iX9fG+8pXviI33HBDSAcFvSYdfOONN5rTuEZBKQcNGtR5+b59+7pR0v/5n/8J+eAA6vjx4+aeb3zjG5310eF8FChhUEFp+tWvfiVTpkzpdgnU79Of/rS8+OKL3Y7bnfPOO0+GDh0qL7zwgjl09913y3ve8x572lDPeO//13/9V1m2bFlnnd4NBsR3v/tdKS3t8grfu3evvOUtbzGXjh8/3og/yOPusnr16sDB576up9spoYiw4z/+8Y9SUVEh2BDpvP/6r/+Sa665xvydf/75Yd+H0T1u3Dg5cOCAoSDIjtdee23nPV4Wvnz58m5A3LlzZycIGQhXXHGFuRcAf+pTnzLOpxyYNWuWoSJQQuoEQLW1tXLy5En58pe/LL/5zW86n8nG1772tU4QQkHf9ra3mTpOnTolTz/9tLzyyivdrvfuxHv/v/zLv8hzzz1nqmWwoBDSdgYcFBrA0RdQxQcffND7eLN/6NAhoxTak1BPRIRkl5QAceTIkYZFfehDHxI+PgVQ/uxnPzN/sDILSkDnVzgP+6DQuW4gsu8ubu2b4+592FX//v3N5QwO2+nTp0+X++67TwAqBVC99tprcuutt5p9KMThw4fNh+bAhg0b5M9//rM5x8fDPgrLt4V3/fznPy8PPfSQPdTtN977YfcWhEVFRYatus1df//3f28AuGrVKtm0aZM8++yz8sY3vrFbG9hBFqb9H/3oR40Nt7i42Az4fv38l+wNqaCHB1KirNBWRuoTTzxhNGYUkoKCgs5XYFT+7//+r2GXN910k9GeO092bGDuscUNLIBEZ1NsR+/fv98A3V6PacgWAG0LbPJ3v/udIDogV1oQ2vNQyAkTJthdoV5bACHyHQUxww1CjvFxoViAxK/Ee/+PfvSjzmoZLG4QcgKrBDKqLT/5yU/sZsgvg+af/umfDPumDyZPnqyRhzkh1yXyQEooon0BPg5skT9mVpBtnnrqKcMC7UzLli1bjNwFxYCiOOGZIlAsQAG7gZryyz6jHfZJoTMBJXUBPqgast+aNWvMeTrZgpUDKD78UaAMsH4GhRUhECPcA8bKmFzP820JMjEhxwJmqKm3xHv/jh07OqssKysTZF2/wjvzHvQrA8f2p/vaf/iHf3Dv9sp2SoHofkNYAOyVPzoKUP7yl7809kOuQx4DBJ/97Gc7b4MqQrkosGOAaNky89Ww9YULF8pzKjch4wFE5LT6eicp0xve8IYQTRB5jmeh3UYyfVgKyPPdQLJg5ri3BJ2L534mANCObUHrjVToY8xS9JO7sO+1MLjPJ2u711kzpgKoE39ov36FUQu7Bgzve9/7Oi95+OGHO7fZcLNVC0DLptEOKciAFIAIcOx5jrnZO/uA8J3vfKegZVsQol1CfefMmWPYrZflcR/FLUPxkYOKHQTe8/Hcj4nIXQoLCyWaPxxNvCVIdPBel+j9XqeIjHy0NsrYsWONNhn0UrButNjf//73hkqiraLxWrMJv5MmTZLdu3cbmyBThlYzxTxDsYCsqqqSbdu2mQHAcairmy1zDO3dUiZYKGYlr7L0kY98xNc8AjVm6pICS4cS+xVbv/dcPPej3FmWS71o6MOGDfM+Iq33e50izp49u1PwxZi9efPmsB1EB7un/xjp7mKpGqwJrRsZELnn4osvNpdNnDhRkJkoKEf2echxiAO2IBNaJYdj//3f/x0CQo7b+9l2F6imLUGmkbVr14pblrPX8xvP/QxY7H+22MFo9+0vsjKWAP7uv//+TuXKnk/lb68DkY8PtbGFWYoTJ07Y3W6/aMD/8R//0ekixswKVNRdLBA5hsmEMnPmzG4GbsueMdJa84ybrXMPbMp6AqEhWpMO52z56U9/2ml/tMfsLyKENaozL37nnXd2k9tQkDBWB5V473fP0KBB2/d0P+9LX/qS2D/MN36Kivv63tzuddbMy91zzz3Gx5ARClW8/PLL5aqrrjJslpkHWCw2ur/97W/GE8d2yAc+8AG72fmLaQEWDcu28pcFnr0I9owbmT0PVfVqtpiTOA4YoY5f/epXjS0NwznsFMUpiNLxHKb8mJFBs6dgL0SmZeAw48IfH54pNJQLb4n3fux+TMnRn2jEmKIQI3j+q6++asQJq0kz0DiXTiUlQETuYpqJ+WBGLsI9njbhCrMxQWYFqCJAtMULRNg07MtSiaVLl3Zjy9zH+dtvv90oKuxj1+OPjwYwKVDkBQsWyF//+lez7/0H+x3KzRe+8AVBJkU5Ql6kIF4wlYjSxKDwK/HcjwgD9/j4xz9uFC2oMkZsb+E9v/jFLwpudelUUgJEOgAqyAjGVIITg2WL3s7BxIJys2jRIu+pzn2AaOeuYf1z587tPMcG4GCeFxsjxc3OzYGOf/7xH//RgAdZ07YHEEIpL7zwQjOFh5wZBESqufLKK821AA6rAArWBRdo1ldtf3l5eaeyxLVuTZl9Sjz3z58/Xx577DEz/Qg3sQPIqVmMAnXXXXf5yr72mlT9psTpwfuyUESMxrAs5EWAg4LBn1uh8N6XrH28dtCAMVijlfMHJUlEQbwApBQUBu+gifSMaO+nT/Gc2adTqNgGeYcgj6FIz+yN82kBxN540WQ/A7mMKTwKphMUG7e2z3HkRExG1jMdQFrXtnjvp/6+XBIzzPtyDySo7ZhfkAuRVTGaezVXWDSzQhaEyKkWhDQh3vsT9BopqyZDERPY9bBaFAFbABpTemjrKC3WxxHFAlkOjdxd4r3fXVdf285RU8o9fa3R6dpe/CiZIsNcgowGAJEzmS60Gjs2VLx77OyQ+13ivd9dV1/bzlDEJHwx7KMYjKGCABEKyMwHszy4h0VSfOK9PwmvlPQqM0BMehdnHhBND2SUlWh6KXNN0nsgA8Skd3HmAdH0QAaI0fRS5pqk90AGiEnv4swDoumBPg3ElhZnydtoXjQdr8HEkylOD6TM6cH7Ach6gMGX+WU8c4IK4CMoCocCXOQJOYhkDgmqKxXHmebDnYw4Y5wpiBpMhF8gfp1klqBYd69w74c3E32Jd7eN+wl3fbLPpQ0QcVuCQrg9jf1envlbnFZtvAURceE8c/zqSOUxQEeWCGJ3KADyrW99a9xNwn8zKAwBuySOHNZTnYcBWoBoZ3tsA4iPxujunn6055L5mzZADHpJXPbdSZu4jjldW/7t3/6tMwTUHuOXeV23J7j7XCq3iZAjyg4OwGwL27h+JSOvDAP7//7v/4xTL25s7thnvz4geAzKih8lvpnufEB+1yfyWNoDkRgPmyzJ78XxSObPW+hUb9m4caNJDuo93tN9vJ9xno21EFhFEDsgIaSTKT/ruRNrXeGuh3vgcIw4wEwP4ow3GMx9P8mjrBd7sgPq3c9lO6VAJODJHRtMg6ASeKjQichQhAJYUEEJkQfxV3QXfBjxu0PesezHz/cOR1F3/K+7jp5s+9VFggAcGiIVN0uEVcNaoymEMPjF0/jdS1/h7HvHHXeY08iCZEHzK7BvnJQpOOy6w3j9rk/0sZQCkQwPNn7YvhjUDTaCwyjeKISTAlbc7BHsr7/+ehNPYq/nl44GiMiNXIencqSCz6A3ECvSPfY8WSesE4M9Zn8JbY1GWbDX84usFu09ZBCjMCht8ij2rUc529bZFs8fvOABII6+eG3DYcjQ6y3kMbcDHhBGC3ZvPT3dTykQo200Aj5Uj84mrIC4DEv5AB/u+xQUnWhjMUjDhnzZk0JIrPvD96SOeO9hcELF/Io9zi9Ukf765Cc/aQY0oCTzmrtAnW0EJN5DeIH3dkkpEAnptOwN7REqQ2gAEX1e7ZmOhGrQachWFkSwNUudELBTbcpBCbEZw/iYxBhboR+z09vf/vaw3xjwoEUjqzHYoFTud7Ihq4gubmsBMdNQVoo9TkQkhawZuJ0huvzd3/2dOeb+h7oIf0UxXLp0aYjo4742WdspBaJlM7zc448/bsw3sEzYKwWTjjtrFSBF8Cbzg1VQ3IoMshnsh0LH2yyo5kAv/UMb3XE2DCrkXFgjae+IROTDBxXED6swEBJK+KlfQQZmEFIQB9xx2j//+c87kxhwHiADaHe7OE6BssJx4BC0NVWUPrhHnHam9F80yuc0gZK3YJbwO+7Oa2Nd8r33pmL/ve99r9xzzz0mQAzRwk0x3e0BFDZTKz6MkainvdebcxGFxnqKEztDTLa3WOpJaj2blsV9Deyb0NneKmkLRAywLGXR08xUfqO/tzrV+xxY7Xe+8x2TLo+8j8xquNmtvZ5EUkTeUVDKvNYBe537F7HEa0IipQhsmDBcWH1QJg3q4X6/826t3v28ZG2nHRCRGUmGhDbNR7O5DG0HEL/MDAIaIbIXJp50LwwKqCAKARSIKT5S5HkLsq8trLgVTWEmBM7hLRjKyV7BX7SUDROSnbHy1pfs/bQAonv0MTphXzabl7sDkA/5WMwxM2vizpXovi4dtwEW5ijkP7KMEfBPjh5bkA1tvDOZKdxJmew13l/soigYFOQ8WDtl8eLFpi76h9R+GKqjKe4k+9Fcn8hrUgZEwitZPoIRjWzn9kShU5kBILm5zXvIS0MtbS5AlBV33my/TvnP//xPX5uZ37XJPgYFB4AoULwD6VagjGi2hKB+/etfN03AmIyMF02BwjJbAhvG7sc2BfnQrtIQDXuP5lnJviZlQGT+mBwx3sJkOxZ+NE3mPW3OQe91GF+tAdZ7zu6nSgO0z/f+IvdhCUCGw+mBWQ8oPAZ5O8DI1gU7jVRgo3aWBLOVO0EUuRbRzgGhN2Q1Ur2pOp8yINpoNoRlqAUfhm1GNiCkYEezYZd0vDXU0tFuEwgf0SY7IqOr9RxJR/mR3DOsTsAfMzRQdZsdDKWG1baiKbBRBhoU9ZZbbukGRO53m4lYNMn2T7i67QJJ4a5J1rmUARE7GEZqpuOYDSFRkZs988IYWSmEZNql0DA1YCdzl29/+9smxQfH8GW0Bl33NemyjSUASsaCRVB0C0LYqzW5RNNW+g0qyCwIph5vcS+eSV4hktKnc0kZEOmUoDRz3g5zJ+v0+u7hV2eBSbKhoJTB3jpTuY8MzDy3V7RAxotmnpy2Q0mhiqxlHal4E5cGXY/GbP0kg65J1vGUAjGal4KlkBPaFtylWOgHcwigJDGmTb/G9Jqffc7em+pftFq0Y0wrVsywbYJiYfh+17veZRSaSP6J5ABHvox0HfVjw4ympFJrTvuYFYRt1rZjsRo7/4zRl4UgMfEga1Ewh+Djl64F2ydTdigjFoSIEEy9kQOSAlBRZKB2Qev5ud8PWflcKWlPEelo5EkEbuQhHB9weGAKD+XGFighE//Rsmbmpbm+J8VquNHcSx4c7KLMM1sZ2K4XAwWETTMNx3nMVYAUmQ5NmIHG4LKJ6aN5Xl+9JqVARAmBtSCbWKM2H8ZbkFsADSDE7mg/qPs6ssHiRwcQcXvyLkHmvpZt/PncIQfe8/HsY+PED5CpN/wk3QVDPNScPDjuwkwLihgKml3dAKrIH/6DDELMP36Kibse7zZ9Qj9HU7wyazT3JOqalAIRRwCM2u7i9idEA+Zj+gnQeKVANXAOZeYAloY5g2AqZjFgd0wR+gGb52Ha8Usd7G5L0DbGeDuL4b0GGdY798s12AZhzQAqyA0fMxYOCtyP/GfzguPMitkHWQ/N2loQvM/220fG9us/v2tTeSylQMST2A1E2CszArbgEubuRM5DUXAa4M9SB+am8bNDiWFKC88ScnQHgZD6oUDWp9E+L9rfcI6xyHcWiNg6GSh40diE8pGeQZsx7aCIsSwvgLRr98G2Iy0h7K2fAeA25XjPu/eZQk2VLTGl2cAQ4K0LE+YMotmsMZoOYkoP1gJgmT+F3UZyYadOnGyZlfEWWI91FUPQDxdI5L3XvU8ydzR1nBmWqiOptzCVhzGewRK0ZJr3nnD7KGQAErEDqupX8OG0Rmu0354U5FTmwyn4ijLgequkFIi99ZKZ56R/D6S9+Sb9uzDTwkT0QAaIiejFTB1x90AGiHF3YaaCRPRABoiJ6MVMHXH3QAaIcXdhpoJE9EAGiInoxUwdcfdABohxd2GmgkT0QAaIiejFTB1x90AGiHF3YaaCRPRABoiJ6MVMHXH3QAaIcXdhpoJE9EAGiInoxUwdcfdABohxd2GmgkT0QAaIiejFTB1x90AGiHF3YaaCRPRABoiJ6MVMHXH3QAaIcXdhpoJE9MD/AzSNinGZcSb1AAAAAElFTkSuQmCC;" vertex="1" parent="1">
          <mxGeometry x="1210" y="330" width="162" height="204" as="geometry" />
        </mxCell>
        <mxCell id="-s-YMTsCyma7wOPpWQ3m-63" value="" style="shape=image;verticalLabelPosition=bottom;labelBackgroundColor=default;verticalAlign=top;aspect=fixed;imageAspect=0;image=data:image/png,iVBORw0KGgoAAAANSUhEUgAAAKoAAACgCAYAAACc7ffkAAAEDmlDQ1BrQ0dDb2xvclNwYWNlR2VuZXJpY1JHQgAAOI2NVV1oHFUUPpu5syskzoPUpqaSDv41lLRsUtGE2uj+ZbNt3CyTbLRBkMns3Z1pJjPj/KRpKT4UQRDBqOCT4P9bwSchaqvtiy2itFCiBIMo+ND6R6HSFwnruTOzu5O4a73L3PnmnO9+595z7t4LkLgsW5beJQIsGq4t5dPis8fmxMQ6dMF90A190C0rjpUqlSYBG+PCv9rt7yDG3tf2t/f/Z+uuUEcBiN2F2Kw4yiLiZQD+FcWyXYAEQfvICddi+AnEO2ycIOISw7UAVxieD/Cyz5mRMohfRSwoqoz+xNuIB+cj9loEB3Pw2448NaitKSLLRck2q5pOI9O9g/t/tkXda8Tbg0+PszB9FN8DuPaXKnKW4YcQn1Xk3HSIry5ps8UQ/2W5aQnxIwBdu7yFcgrxPsRjVXu8HOh0qao30cArp9SZZxDfg3h1wTzKxu5E/LUxX5wKdX5SnAzmDx4A4OIqLbB69yMesE1pKojLjVdoNsfyiPi45hZmAn3uLWdpOtfQOaVmikEs7ovj8hFWpz7EV6mel0L9Xy23FMYlPYZenAx0yDB1/PX6dledmQjikjkXCxqMJS9WtfFCyH9XtSekEF+2dH+P4tzITduTygGfv58a5VCTH5PtXD7EFZiNyUDBhHnsFTBgE0SQIA9pfFtgo6cKGuhooeilaKH41eDs38Ip+f4At1Rq/sjr6NEwQqb/I/DQqsLvaFUjvAx+eWirddAJZnAj1DFJL0mSg/gcIpPkMBkhoyCSJ8lTZIxk0TpKDjXHliJzZPO50dR5ASNSnzeLvIvod0HG/mdkmOC0z8VKnzcQ2M/Yz2vKldduXjp9bleLu0ZWn7vWc+l0JGcaai10yNrUnXLP/8Jf59ewX+c3Wgz+B34Df+vbVrc16zTMVgp9um9bxEfzPU5kPqUtVWxhs6OiWTVW+gIfywB9uXi7CGcGW/zk98k/kmvJ95IfJn/j3uQ+4c5zn3Kfcd+AyF3gLnJfcl9xH3OfR2rUee80a+6vo7EK5mmXUdyfQlrYLTwoZIU9wsPCZEtP6BWGhAlhL3p2N6sTjRdduwbHsG9kq32sgBepc+xurLPW4T9URpYGJ3ym4+8zA05u44QjST8ZIoVtu3qE7fWmdn5LPdqvgcZz8Ww8BWJ8X3w0PhQ/wnCDGd+LvlHs8dRy6bLLDuKMaZ20tZrqisPJ5ONiCq8yKhYM5cCgKOu66Lsc0aYOtZdo5QCwezI4wm9J/v0X23mlZXOfBjj8Jzv3WrY5D+CsA9D7aMs2gGfjve8ArD6mePZSeCfEYt8CONWDw8FXTxrPqx/r9Vt4biXeANh8vV7/+/16ffMD1N8AuKD/A/8leAvFY9bLAAAAbGVYSWZNTQAqAAAACAAEARoABQAAAAEAAAA+ARsABQAAAAEAAABGASgAAwAAAAEAAgAAh2kABAAAAAEAAABOAAAAAAAAAJAAAAABAAAAkAAAAAEAAqACAAQAAAABAAAAqqADAAQAAAABAAAAoAAAAAD/6i/WAAAACXBIWXMAABYlAAAWJQFJUiTwAAA46ElEQVR4Ae2dCZxcZZX2n9q3rt47+75CEggICIwCsosS3HAfHZlRcRnHGcf5nE/9OerMuK/D6HyjKOooOG4YBBGQfV/MSghJyNpJp/fu6tr3739uJ5JOd0LSdEJ1ul6oVNXturfee95T5z3Lc85xlRmqjioFKpwC7gqfX3V6VQo4FKgyapURxgUFqow6LpapOskqo1Z5YFxQoMqo42KZqpOsMmqVB8YFBaqMOi6WqTrJKqNWeWBcUKDKqONimaqTrDJqlQfGBQWqjDoulqk6ySqjVnlgXFCgyqjjYpmqk6wyapUHxgUFqow6LpapOskqo1Z5YFxQoMqo42KZqpOsMuqR8gCJENvXP6p8vOdIz6h+bgwpUGXUIyTmyu98Uo/9+F+04/HbjvCM6sfGkgLesbzYiXitXLJfa357nTLP3KXGQly7V35dUW9JU171nhPxdiv2nlzV5L7Dr83aH/692tbep+BApyZ7SkqXXOoNNOrS/9pw+BOrfx1TClS3/sOQs+OJX6ntydvl72lVfSElTzYpVyapMJL11o+fr/7tqw9zdvVPY0mBKqOOQE3LIG+947ta/aPPqSbZrUmeghpCbnl8brlcLvmKWZW7d2nV9f+s2JYnR7hC9dBYU6DKqCNQtGf9vdpyyw9V09ejaKmgXLGozmxZvS6/sn6/SvmC5gYL0u4N2n7rdSrmMiNcpXpoLClQZdSDqJkeaNdTP/+c3H3dmuqT/GZuBmDQQFApf1ilYEj+gFfuZEJzvRklnrpTf/rCG1TMpg66UvXtWFKgyqgHULNv3a268wuvVblrm0KRnGKerPqUl89T1KRyXoH+fvlzCeVLWaXdJSVyRdWhCmS2bdfG//5H5fraD7ha9eVYUqDKqPuome5u1fY/XK8p8Q41edLKKa1+/vWGfEokc3KXYdaIVx7UgDL/FTxuPABluV1I3UJSvU8/oO4/3aJyIT+W61O91j4KVN1TECJHtGnNDz6u2Lq7NdmfVSqdlsvvUbEkeWFGBf3qSJfkY/v35Aqa7HUrVMgpl8up4PMo5Q4oXkBPqGnRnIveqkVXf6LKYGNMgapEhaC7Hvmd+p5+RC3uvAr9SdV5PcqlivLIq2Lao+5cQMEl56j5wjdLs05XP+/9BY8CrpJK5axc6KoRf0HeRL823XmT4tvXjPEyVS834Rl18y3/oXU3flEtxYQ0EFeNR/K53EhTdM+8R+VwgxoWXaBXXPMdnfm2b2rZio8qFZmizgJ7vtstfABy5TPyuvIKKqumAtL5P/5GnU/9rspdY0iBCc2onevv184Hf6mmchxnfkJ1ASEhpe54QTV1tcr4Qso0z9XSN35U4ZbZDtmnnvlqzVrxfnVEavACBJCqHoVzOAZUUNGdwbhKq7x3B1L6FkelGMO1mtCXmrA6arpjq576/j8otvEJzfDmFCrCbTj6cx6f4p6gunJelRsn64p/+4MCdS3DmCS2+1ncUleqATdWM8GATnTXGGpqNFNQPUy8tVSjhjMu1tkf/v6wc6sHjp4CE1airv7l15Rr2wSDptAvYVAk6QA6qauhXh1Fv3yTpumcd39+RCY1MtdOm6/mc1+vWGQyQYBaJfH/B/xEr3C8pjJ557rtqx/Qzj989+hXpXrGMApMSEZd84MPateqP8iX79f0Rp+S2axyWPIpHPu70m7lapt1Gkw65azXDCPY/gMut0+nvP2LCp/3dj3WX5K3NiIfzBqtj6ornVcdAJaWYkwbf/E19T74vf2nVZ9HSYEJx6g77/mB1j14p2aEzf+ZVXyAiJJZ+USb0v6genE1LbnsXZp2+qshKQbTYYbL69PL3vpxhZctU9bjlydVUl+iqJqmBgyykiIAWGrTvdp5/83q3/n0Ya5U/dMLUWBCMWrnxgf11C3/pSnhkvID/QoSxw+jV5r1niz51F8OKjzjJJ1y1d+/EN3+/HdvsEZv+NSt6sKcUk0ETwHsjRqRAQ9QX+tRQ9Clvs3rteM3/wYmoBpm/TPhjvLFhGHUUj6r7Y+uVCnTpyDop0Zi+KECUq+ErzTrxWav1eSll+iNn74ZEh5ekh5MYxfurFd++Lva1jhdwXBYxb4YeqtbO4swKT+CUDGv7tVPas/dPzr41Or7I6TAhGHUVd+5Vlse/J0aXQXHlZRFj8zjK825AZzghvLVT9XLr/6HIyTb8I9NW3aJlr76w9qTLmvKjEkaSBZVWxNUMpmRxw1MMFjSfT/+MvDB64afXD3yghSYEIza9sRKtW5ch78UCx8r30fo00Os3hMJqweXfSrYrJNe9xFFpi16QYId7gMnvfKdmnrmX2hrhiCAN6BUb1az6sPyeovKFgY0o9Gj1feu1MDO9Ye7TPVvI1DghGfUVOdObfjdD+QilWSKL6eGEgCTfF5ltuQ+9NK9hRD+zss1/TzCoy9yuH1+nfORn6lDYfmCtQrDrAWU1jzf6fHn5crF5Ovaoa0P3wqmNfsiv21inX5CM2o+0atnfvXvyrau0/w69M54HBbClQTkKe/1I00xnqbP1xl/8+UxXfVLPvhN5X11AK59yuCg9aCv5vhxhC1ToJRSz30/15aV3xrT7zzRL3ZCM2rH5j9p21N3a06dW73tPWoMg3RKg9jHsZ/ADZVvnqfz//lnY77GU5ZfqsVX/x8VkKq9xqi4vgBZORBBP7gAfzqmzffdrFTPrjH/7hP1gicuoxIOvfNbH9TMiNTf2aMZLUEl0kWMJ4+S+DwHXGEtveK9Co8QHh2LxZ7x8ksVn3yy6mdMU8dAUQHUghQYAp+nrFoMq1KyS3de94Gx+KoJcY0TklHL+Zwe+OZb1Az8rpSIEXv3qKs/pVLAB2KfSJSvRo2nXqTFF74NT9TRuaKOlCu8NY165Qf+XVtTuKd4HYuVFQ0FkK4exQkEBMtJhbq3atud/3mkl5zQnzshGXXbwzep/ZlVmhoEgY/REk9lVd9cg0Ofrd8bUncxQBz/s8d84c2LcNmnfqH+FNhVd0T5okc9OVJbaiA7CYGLCAZsvuuXiu3ZdMznMt6/4IRj1Niup7XpjhtUTzWTXCqlUAA3FEIzV8aA8oDEd4d11oq/Vqhu8nFZu4aZJ2vByy8j+hXk+3wqewjXloqqr/Gqb3enyj1t2kmBi+o4PAVOOEbt+C1AkVgvLOFX2kvEyVuWDyt/oCenYqBFZugsuupjh6fKGP7VhU4869JrlK5tVOPUFhUTedUUYVnSXLI+agTwg9p85w/G8BtPzEudUIza++zd6n72SfmzcRXQU4tIUZfcKpVAMk1qUi4yVcve8FEZ8xzPEV14tuZe8nY9vqVd9XVYd3gCcqmcAiHiuIWMfKSw3P7ZV6tcBH5VHSNS4IRi1Pt++CmyQFOkkaSJ3ycUxVAqZ2FWf0jtRbemnfYKNcxYPCIhjvXBOVf+vernLABOGFLZBygbr4QH32otKIMQ6dexvbu05pZvHOtpjNvrnzCM+ty9N8lnW76HyBMpIV68pVGWpQCjlgN16vA16pQ3Ecs/Rlb+C3GAy+3VBR/+D7WlwBe4fAr5fQBkcoBi8poaKCmQjmMAPqEEkavqGE6BE4JRU6SFbP3djygSQU0otlIP2aS1WPxFgCc+jKfeYkRXf+shcvSNdV+6UbPg5Zp72nkaKIFd9fnQo8HEgqwKAP+rJzEwvXu9dj/zKNIWBbY6hlDghGDUzm3PKjzQqiBMasn4AZzqGNXKogtmfVHVn3qp3Dj5K2HMfdMn5I42gzGMKFssg4cl0xXJWucuUucqo1W//pJyyVglTLWi5jDuGbVAod32278KIiqGNLUEPSqZ5KllUoBJLVEv2KAFK95XMUSvm7lE0y56t9pNJQmFFKP4mtswq+6yAnnQXaCsHv/+NRUz30qZyLhn1PaHrlf/nm2onhkNZInigy/1YDjFwYN6G+vVcPZlqps2t1Lo7cxjzjlXqts7SeFJU9STh2FRAzy40FzZDEUwAHivW6WedbdU1Jxf6smMa0bNA91b9Zv/ZvvMyhfCX1oDCJoKJu4i2aQuskHDdZp52rlykwtVSSMyeZ6WnH+Fnosh/aO1yvLjaifEWx9kOZJxzQwWte72n6iYiVfStF/SuYxrRl3zsy+o1NcnPwj6PFmfJVKV3Sx6Ie9WMBBS7ZzFmnr65S8pgQ/15cvf9hkVw/XAASNKEtr1IVVdRKwCGFe1rhzg6nXaver2Q50+4Y6PW0btodJz28bVmtEcpZAZiaTkP7mppOfDOMmEa7TX36AzP3BDRS/oZZ/5jQa8YTCruKjqqb9KcQAPYOueAeoCoGu3r31IhfRARd/D8ZrcuGXUbrCmwVy7EljMHrZ77wAZpbzO45dsZfEXvetf5SaduZJHKNqkeRe8hegZrrR4WhHQXTErflHTDIOCm113h7K9bZV8C8dtbuOSUVOd29X2wA04zAGdUDjCEPs23NSByhIyLfoCmrTklceNiKP9IktdCTbOUrhhknqzRfn8FvAtElXLKUhmazmT1aYfH3nq9mjnMR7OG5eM2vbYb5Tu7QLYkcNpTqlIfKfBsF+ucFAWkzrttdcqXD9pPNBf8/5ihYozzlIpiq4KJiFAdesaXFW+LKncMOvmZzZgVFXrAYxLRt299g7i4xnVkt3pR5fLo58WKLHTg7+/EKhV/eQ5GFXHF3gy2l+FL1SjAPNN0B/A2NEPk4Ywqnw8imABmsgGeOr6t4/28ifMeeOOUbsf/5U6tlDczGrrgzZylwsCJEWyHvodWaWTT32VplSopX8orln+9k+oNevBa+FzKlyXMyCqKAlkjOrnB9m9eY36Vv/8UKdPiOPjjlGfu/8mtfiLcsGk7PYUeDAfql99OM6zJNPVTFkEjM9amYyf4abO6uJXvF7JvPl/XagyeZEkK0/IowgrFEgn1de2Y/zc0DGY6bhi1K6Hb9DAtrW4bvIUkBAZpRgd5CAN5PBPRWrVnhSFJMan8XH2NV9R3lUHdtarMNmyGSJUGfzDfozFGgytfvTyxM6J2ylwXImevr175AKwEQoDlSu4FaAKH+WdnD5QnWnpzFdXji6X7W9X24b7lehuRy9B6jNXN2IyOmWepp5xBXDDoTLCJGlD42yl2+I0taArCxI1VXLjcgMDQK2K9N4uZRIJ1RwDaTUeLjluGDW7e43Sq2+h7iggDkDHBRYWCIrSGYyOOgo9YP+f/Y5PVQTNY3u36s5vvpdiaW2qKyZV76OkD9LfRTO1Ta6oSv/7DV3wd99V/cznQdyWdbDw6n/Wtm+9V/lyAoB1CVcbpTATZU22kHC2oJ61f1Tz0vMq4h6P9ySG/qyP97cfxffF+gfU302xHOBwadI4LM0ElJz8Ya8ySNXmyZMd/e6wl4TBrfz5sRxP3fkT6glco0Jfq6Z4kpoC09WlYpoOaKY5n1BzgYZqnbv1+69cqx0P/WbIVCLNJBw2TQebQEo3zdaYLEBwGlqgc/txwa1bfduQz0+kN+NGosbbNmBA0f8JQwNbSp6Sx0HJ7yEVOtsU0PI3/tPwXCgAyAXykdb/+HP4Ix9WiZLQmTzxdG+9Lv/Al1Q//3Ty7KnoO0Yj0UFdqUdvIqq0S7U+ANw5wg/4Rl00AsoRPUuZZAx6aQ/kVT/ZCNtv/b6CxPinnL3CmUHN/FMVOPNyddyzWfXcJN43B/6XMdmK6lCbpZxlvF2B6JQxmvH4ucy4kahPP/hTFpyVY+EjLLYfa6rE4vsAn5T8UdWAQjp4JHr26r6v/pX6/nSbalOtmppp1UmFNs1P7dTDX36f2p+8Y0wl7K5H71SkbYumZwbUkksrWqAyCvM1/5mPBmtmALrJ6Woo9WtqoV2eXasU27pqyLQ94VqS/qIKWgVrMLVFmli4Adz4iVqVk0k98KNrh3x+orwZH4zKdp3o61eRhfOCkErj4LeGDvk8iCNPvZpmX6xJs88YtmZ97VvUu3czPtc4UiylZiTy1GxaU8hPmpwd0I7ffkfpvo5h543mQBkHvagpNSmd1XTKozdSJzXkJJW6CUa4lEK65+lF5aa9T9SdJE+KuXgSKu5Zq1z/3j9/5ZyzLsKQAvpXJnsW3cZwALhUVWTrt92kY/fuP392Ir0YF4x6108+pQjGRb5QxHLG0ocn3FjNRVdAmWJQtU3TYNjhAJRHb/22whTurQE2F2aRfebGslaRSDo/iKWBrk6k8tikKFvVaR9WfQhvRDCH9KTlJEoKzX3JMiDrNEVFP+u25grT1IKS7Am+P09TK29tE7Upns/lqpu7HMD3JD5jLIpDwze4RBnyvyy9JphPavuTv55IPOrc67hg1F2r7qY0T4YS+V51xYjvs/C29Zvlnyajc/K0GSMu3JIlFypP3pSLUjqZJM/4XBOoDdZUouD3w0hjuPMzFwPEJF0UY/OEgO8F6VcVUAIdNMVc4zClPZLoqwlfWAPhRnWFWpSpnyvrA3DgmLrkXMeL4UISe7iuRd74iSmEx6MU79eOjU8e+PEJ8briGbX7yV+g6yXkxxdZZqHdMKkxWBGplEFn9dIuZ8pprx1xsWadfRWZp5MAVTeqYfJUGkKE1Anz7EgSMLBSP9Qqffgn/zTiuQceTHbt0vbHblbbuvvgbGOZ4aOAZZ/rek55/J99dJuIw1TWf8LNdh9Bojd4C2okjm/Y2XjWp141K9VyhpoXnTPsYie/4ZMwPLn/5FJZL2tTbt0wvG0llgTomoDI/4q3+ntbN8OoVv2OKtHoqmWA0SW2RVoOqkjUJjqlGYlE9ZERRi1gj/M/ep3Wfe9ftan9OfmiFPoJZVRPswlfOaMZVIHe9ez9+uPXLqd+/+eBDPq0c8duZTo3a/OaO5SO96mWEjwljJk4JrjVrwqVA7B7SNGGFs181VWqnT5THvAGex/5veJ/Wglv4i+NMDeMqFzW0rVRMyzcSwGsBD7REM0oXDX12hgP6WWveAttgi4aNnNLnfHwmXIyZRoqrSvdyhvIhu+Jwvj9W+5X77P3qvGkC4ede6IeqHhG7W/bg36ZBiUFo7INlnggapwWOUX8i9MmzTzs2tSddJbO/fcbUQGySu58Us/e+iX1rl6vRoo/1bOhZln8fOsaPfGdd1MaEqMnllcDaHsPdQGs1XmUQEIgGFRLXQgXEz7cnpQy/THt3LVD3e3PyoN66acvwFSYfwrqSQldtB/JTyIsdfwxpFBN/OivMWqjTm1iy4fRd3UndeXnfqJJJw03APffTMu0qSpRAqhs4BQrpwGjerl3r813oE/9Pd1q3P/hCfBc0Yya79tD38fdwN5A8RtTAYwm4cScVPxLdb5yRIvf+oUXXCYvUDp7hE59tV7JY8fKb6jj519lwQcUqUfvRRUYSCG1g5M0aQGG2fRFmnHyUs0+790w28FGGtv6tic1sGWddu3aqK0b7iRSBsjZFEkecXCkppc2L3+Fahe/gobVGXWuf5AWPgkNzDxFNVPn66ozXq3QrOWHnffpb/i81n8VrCr3WUKiGsNjijnoKjMQM/QmsFpVLk9FL+Fh7/Fo/ljRd9m742ll8EvWmmsGyZJFqphUHRxsw6EmJN/I2/7hiDDndR9TZs0Dim9aLR9Ny/pTbKfuBk2fvkzn/uP15C0ZiulQ6rtL0Xkvdx7T0FeXtn9QK697j3Z3tDqqSAYDaMmFl2n6O69HpA5iYstvxrOAlHWZI/WQ1z1oxvxAjEnRyp0fZx5mBRqOfMenyl/619+l4mXvkzdSd9CJJ+bbQ61GRdxtJhEnRp7CrxhwWjh6kVgREvhc5t7hmG/KpFHPs/HityiDsb2LbtC+qYv0qg98W5f9nxvkJT3k0Ew69Ovsc7VTF+hdX3hICy99n+Js60VXrfrjWFH7mNTOMNihI5mPlEntJLwG6ehUCg9zLkiqUInQax41wBNGetPRpaedwsBmVk6MUbmMirRyZfpxLZHkRkpxlkK4XhYoDJN6ca4nka6LX/+hUa9SxyPXY6BkqQMlLTv3Qs07/cLhIdijuPqii96uyYuWKo1Fv3vLVvU8c/9RnD38o5HaFkXnnK0BJKnbA6PiP3VhRBaoXF1CCShiYFqUbqKMimXUIjVO42tuxr2D6gfTFnHNFHh2c8B0Nuu654nUj2qddtz/M+3Z1kHc3KslVC2Z/ZpPj+o6B54UmDRfC9/zdalxmnLW9eTJlcrzPNrhp8N1dM5ypKaV/DEwNXWqQj7QYllHIYAooP5/OdrLj7vzKpZRy+il8TgNxLzoaRaeNNcU/xVNR2XhXI4euV9fPXK6F6id/+Avv0v9XBa+ZrLmX/V/j/zkF/hkeNpizT3zlSrgLdi98V7FaCbxYoaXe3SMKQtRcat26yXo4uYH60Wudm1++MVcflydW7GMahI01htjQazgGcAMFsmDjmfhU4tIhWpqMHoGjZWjofjm+25QxJNXAsR107krFKhrOprTX/Czy971aeMpurGktAOp+mJGIBQEzIJRhSHmx+2VJozqx4+MjwFUVlldHd0v5vLj6tyKZVTWQdlUmugRsRmkiOXu2xZoGFRzUVkXZ+8oXDPJ9p1cq6RyQ1SeeacOgfn1d+ymAcRzinfuGZTiLGUBEEsPx9r3bHHKre9f3f69z6mv9Vkl2rfz2aG6YjCIoUcsf8ea+/Z/fFTPPgw7j0XiDIwDLrWIH9fPj9RcNSZVk7jXJsqoWPeUSQ2/C1c3C0JPBiSqqQBwKQuGqxIgylwFRqOjgrS3Bc+EQ/LXPx9j7962QQ9/71/k6tutYn2Tzvnrz2nq4jO1c9W9euyXX9JejLhFZ71OK94B7hXJfu/X3gneNE0Aok6v/fIfSDB83k02Y+Y07drSrd7uvhfFR7bV+83jAaOCdVE0ElA/xSmsQYVFqTJEribKqFiJmiG+bkXDyuz19my6WdHRUwl5Y/FH5r4MHygFcY9yGMIphqS2qiR5q6e6b6TQh91AB0s8Uv2dSgG4tlEwrwMGTJZWQM89vYrnwQp7/Yk0nQApZha3MKcpkc+PNIwV5AflI935xYwIjdRELSqX9R9i8Jt1tn3jU/sBW0pOHozBRBgVK1Fb7/qOE40ypdSFT7KAWWE1RNm3CSV6ARdbKcnBBTyahYqzTQcApJQGKPxLNGr/mHnKOcq+8b3qW3e36pedp1nLznX+NP+sS5VOtmthOqOlr3ijgvsc7Cs+eaM23XW95iBlfcGhWQIxdEkry15fM/T4/u860uemk86XO9ICdz7HD5VCG/xgwbtw16b8DDJrx6M3asbFHzzSS47bz1Uso/bHMKRYDRfbfYC6oaanllFQczwMNcXbUQ13NKgg4OtCf1zu3VucDFHSBPChurXw/BWSPQ4YXjIITrv8/QccGXzZPHuZmt/7rWHH7UCSRLwQrDRzxvQR/36kB13MCwAuBhROf8DixqQ+5ulypCnvkeT9/b0aGeR4pN8yPj5XsVt/OpNgUQZdMi4iUiW2OfY7uVBYXSycA3sbBY1nzF5CfSefGrh27/2/VCY2tpbz+tv+UwnyoYzJ6i/+21HMcOgphus2HAFqNZvLICrLkGPm77D9JJ0kT3wCjIpl1IEEi01dKS+57S5KnZvV6/aXRcY79aW8GqBT9GjG7HPfhv8UjCpSKZsbUOtvvzqay4x4TqzjGbU/9RvV5mPKoz8Hm1+8rPOTxeDnPw/Ffp3y6ayYeeW8+JdLRUrBH72HbsS5V/rBimXUNG4hi0gF8BvuH4NGCy4qJ2b+/PH9fz/S5/oFjSrVlcljiuvZB3+nrpVElF7kSHft0IYbPycrPJGkTHvjua9Rw9xlL/KqdjpykyicM3gqA7624Idt+zbydCicCKNidVTzltp2bzu+rZUtlYct0BbIwPMHGdqHXKtM317F96xXuJYUY7b8FAl/7c+uk4fOfvVgTjPxuDbd/lNAzilNe+3fAnpuOOS1DveHLb//kbqefk5JyxyYPFenXvA2Jv3i5YCp4mwo+wYMygG7rLnrjAZJjLyJMCqWUfFAIUhwv5gznW3fHDMsmcOklu9uguWQw2Hwsu754jXqat9MynEPRRwymkylkkJ3RlEyUt34aAsUeWghcBAb6NKGW3+o+N4HdNLfkULt/DLsp/FCA/8mnUxWfuENQAZ3aHptVP0Fv97yid8CfnpxFv/Qb97/y7Q5HXjjAL2rjDqUVMf7nYVQB6Xp4CZnksSNRCWo5PgPzUUz0ijEe/TM776vrY/cLgNeN4VoNEYLxxwI/zDI+iAWeSDiU2cBFYJaAFvjbjXV1uLzJLtz/Xrt+ewS1S5doZMv+qBqmueN9BXOsdZHf6yNGx5W2zN3q5GteUqYqBFe+XApoK13/liLrxorlxGMafzp/G4OZFKbBr20iIBNhFGxEtUyTT0AjQ1rDALVSQMpIwWDuAIsOhNwpOzwJepsBXX/2E2qyfSo1p8lLRqGzgE4LuPiMeOsuaw2L3X+PUGdfMYFWrr8zXrmnpVKbd+gcHav3K1diu35H933x9uAF0YVanRxnYjqShF5+0tKU1ook0RCh6kkmO/TKVawLUUuE2pFkVQUP5/dvvK/FCjnNOOSvzK8tPOwImiWVeqnwMTRDNtZPI7Df1ANsmYaBYpSpOlVAIpaIcK1E2FULKNaAp9B28osbonVtli/h/3efIh4Qdm6R5ao2x78vlz5btVQdCLqYFeJkdN7NItDxwDMTiSpOaQpc0/TyVf+G03J5pGe8hr1b1uj9nu+q86nHyAQkIIJ0/LmiDzRp9Rys1QIKZz20GJ9sCJ0Jkb6tv2QEPFmeZvxVxcmXYTO1gKZtfe2L6v9oe9Rt5XvJGXbgz82GKlRzcK/APv6Ks1cdoEzn8MyGVuKqaKWKOjYU7x2Ehw5ybwgwSDVAV9kUOGw319Bf6xYRg3XRFQc6HYAH7Y4bqSKMarHYVSUVJhwpNHVvYdGDeAELALFw1SFMu/NPR4iVdqdJ88oH1Rf2k90ssa5hBufZ+Pis53HyUjFHTd/Qj3t3YpT9cSTaFeGQrpdAAxCZIdGiRRFYLpTly1UR2er1q19Aukelz8IeAWmtivyO6DOFAitngGFSSmxcGohTRZqf5HQ7HO644EfKtwyRa//xEpFGg7twoptfUrlRI+DTXAmCg3s52m5/jaMLsEA+dkTYFQsozbW1au4txXgMEzJAplbxhbGJJiH3PbU3mdVSPXLS1OxA0dz/Xwldu2ie1+ax6DULXBOlu2+UPASMwAhDwrfX/YTNBi+bbp8Qc19y7c1d99Fc/xYcolu2BxWh9GDjTM5b5A5WugBtfjR32rVym8qkmlTQzBPmcgCwG70X5jTB0OFbb5If/NgRLEHvdl+BRHBWcKyT/znmzTlVR/Xyee9+cBb+PPrWHcr23yC+3Cy+9FTwSewu4S4ttEihwrgBwY4EUbFMqqHUKF1X7bBujuAFKr142GCAVik/m1/goF6hjHqSZdeq9Ub1uIMT4JbZYF55MjLz1EAIgmDlQN1qAF5LT/rFZz7wolxhrS3x0jDG6rVHBrwxlaRZ7+6k5x/l4IYaHGCFBbqtZEkw9VLnpebEGhTlOREVAcPkj5Gnf5UolWbct9Xw4yTUUWG+1wNzV/is3kLH+PgN0I4IB0Y1ugTAFgdjTyP2hppjifKMfP5VOSow9Vj0Rc/EokCPI6ulsRgaUcSlkBAeUANFbLZYXNvmHWSgjSbeM7fqN3BJvXgF+0h6S5bpgaUO6w9pTotufLjmnfJR4edO9oDnUkkbi0+WhBZSaRc2RIGUTGCMGgdP6o6QAt14BXyMGmOXgNWlyAElrYGZkt37NSa3393xK9OZGI09c3IBfNnqWFl142i+pRQQ2ooHABcBTWE602AUbEStaZ5qTpdj5giRhgVfZTtP4tExJOqGiwLfyqBgTNcTzX/5fnv+5y2z5+ndY/fp37CmsFaYxCAIo0LdNFfflotAKbHbOBJSGR6FaJsD44KapraVm+6NIYQO4Cb1yZbLaWkyD3k8dbTSNLxBNjREMUr+jc/NvJ0qGdQ4mFp1lwRQ5Lr8TDslIv6sDk8Gn5UnYkwKpZRJ13wXm267QcOSNpZcMAoPltxdFVnO8R/aHraocbci/5Kcy54J6CTTpiU0jroheYasu16LId1afEQ1XLTEpJA12BYwlQVtmdzfjpPvLJ6BDZbY7JBC968F0hb07/RQwe2r1UtlfwOHKbihInnB8ytZro6W38OD0SRAhf5clBdxYDqznzjgaecsK8rllGteW0R4yVfTmPFI1Cxi2yyaGvGq7woUdP+DtXNG7q4B66UVREJkRWKEX7MRibe65SxDLAVG6OWiO/mjCmNWU2ndOTqIJPaJAbZ19jVdFXuyXRQivv2PPKLIYya6NymrtUrFSWWHwK8bXjUEj7ULMpa2R2gI3WQHaaWH0LFam9jSvOKvUuz1wveEJIJqxavt03Uh35mUsZn7if0u7a1D44pMUZzsRYKULjZhv08PCQMWtLdYNEhuwO2fXON2fYPhw6yrSNTnc58VkfKhcHkZ3uvP+WiIV+fIzSbIdPAkaj4c53K1Uhf+xHYdbHXFKof291hyAQq7E3FMqoV6vVhCOWBuZWJKmFT8UD/A+Vu0siFOOrq6XrJyTn5zNfwg6oZnCc7AFNEf2Sezo/Kyu/gz8U9ZUUz/DCspTkjQtE4zZkPvhQpHKqJquHUi4fci9WVoqsGlWGQ1Kb38lc2f0ciG2O7iHzVNUwMi98IU7GMaqV1WqYsZCtlqVHq8DI5Lh7HN2ruGh6WpVqugLI2i5YtV9Jfw4OSkiEyUCkYbPUIrK8prItKgJXO63QCpBNuqpamCK4zGrkRBc3jXgpPnWtrMWQUU33ysu0DweXHibRmqcwXazW43OAWfBRKm3v6JUPOOZHfvKSM2knZm1uv/xft3LJhGI09VGFuOONKtjokKotkUtT0OZNUtvXZ8MG99/+/jzmvX8p/Fr73OrWcf7V2uSLqxBU2QPcT6xFlHgrLTnAjNnMkDdZHCDJQ6XprT0693Fc6Sk2Beedq/vuvHzb9B278hBNdKwKYzpMjZoxtt20l0yzJsYSLYdLZIxtSK3/0dW24+7dKtW4adt3xeuClMaZgtva7r9P9t/9cCVdI0xefodkLlw6joQd/acl0VPyOtuC2XZohZYtlRpUVN+/ds2vYeS/FgaWvu5a0kC51bXwIMHPc8f0GsNh9JQqm40Yyw643xXPUL19zvXYnqM/aMkenXnIN4dQ5Q6Zsu4Qn0YckhSlBnoCp4dmCwIPuuBL1WrMU+gUsMOQ85w1MHCrEtPpnX9Meem8tf/vf0sj4wuGfG2dHjjujlgFvtN3yNT330Erl2jsUbGoSqLsRR8vMuWprJkFud7fjlzTfpOlqJk+NWYMgiDz5AcWee1J1C84a8RrH66B5F854x6e1Z8Mj2vX7b9EgpRcIXgzYn8EMB5Fglv3aWaAmdSms0976Yc2DgUKT5gyb4rM3f5IggdU0MAYF9WVZuFSapn2f49pKUjBu6hlXUUtgEKtw4AXSlGcP9Dyj5lS7ol1xPX3j50kBH9DUl7/uwI+Nu9fHlVELiZhiv/6K1j+wEt9hj5YvqNO6TvLkIaRVG7FM0ANHZNbJ8s1epMyep5Erto2iACBdCjybTzVIDf5AoUN7N9z7kjOqzTsMsy4872otOOcq7XrwRj338EqqmfSxdbMTcG9xDKPZL7tIp77jMwfe5rDXO9Y/psAAWbL8GLOAWjLcbwmLfz914rR7nzZ5GQmqw7EKxVSnfIk2tdQCh+xtx601oHv/9+tavmezTiKDweM/ls66YbcyZgeOG6MObH5Sa3/4Ral/O6XEu+Spy2pHLKFgTYt2PX6r5tIYwjeCMz5DSfIimMsagCRWDKJAqrNhhQ2kHCVxug9wR6y3DUbH1WNwvAoYLgzB2Re9x3kc7XR6N96vdGu7piBLDSEWx3eagEltJ6njkJ+8lJqGBoUPEePPYrDlUTX6ihlZU0IPka9i7w5tuuenBD/adMqbPil/1IKv42vs/5Ee01l3b7xPT/7wH0E8Pa0SkaIa/IcBitIGIKivQLvvnj0q4bIZaSxZToMwYvwFQ1BjSecJmxr+0/yTRdBPmVJQrRseV9uWp0Y6fdwd2/TUPZocyDs6rh+1wXzHfnyzfgwyH1kJHloRhact1dSFI6s6sVicJhlJp0ynD4yB1a1ucOcUAey94/E79cQNH6MJXNu4o8sxF0Frb/6a2p66SfHWHVrWVKNyDNAzhMfOME+NYxANJNtwQY3MqE3ocRm2ONpLAeygMHgBYDJqghvpmaOBQxOSJYc/tfu+nykE7M8TaVKBqI5ie9HxkMAEC4pBIjhI7iJGSonWN2XL3DRIFsaIJcmZH2FwcMwUYIb51S2V0D7jxNodR7uFRHnPD8QLkt8bbaAa4CSntJC1OLeTrEv084OLMVfLprUvYQdH6bTKL7xAFSgSeh3YjPHV9TQ/RJz32T6VdzxIEGAATwF04uMBS+j3DNLGUsetwZqnYbp8dSNLxaIhtbhv/HYYdXmwslwEPO0k9OQoE+jY+Cfd9a330QXmY5pyysXPT7XCXx1TRt1y+4+0+g8/gkg9ao5kAA/jqAbwFLRFRc+yBsoFDKQiumbr/3xEiz7yvyOSa+EFr9GOu36CO8qSUmwNWEQYLUIUoMYMKqov9zx0i4obH1VbR5eaMFr8ML5FiAwEkkLPS+OPNYCLtdoZDBPt40gnZGSsakxqjLnvtTOTfZ8ZcVYjHOR0s82dgcS3bFmLRu3ftkpc32L+HpjZekgVjInpplKi40swStCAXSWKZV+i7Q8eLme7t/YaPu7FwhzWESZDUGHBwpFBNflkvzoeuAGikh9Gmco82NgA99+AQp8m0mXzaMT/unfHRq361dd0dqRRTfNOH+FGKu/QMWXUOJIuSsmIIC3AA4CdLeszRHW6MpLBg0S0prReCFliFnt2bNGiQ9Dn5Ld9Vpse+rV6k3HSP9jOiEqV4YICzNDel1JTc1TFZEIhekLNoYx4DQzgKLIwXZbPg+XH8Y7LHMYJmjQ+Sv47xLSGHXbAJnyfSWUDzAw++BivbRiu1Pqbum1LtnpFMC7qpyPEy3QWJGNFGZg0AG3iMG3YGvWaKIa5DIgd5x5iZBlMO/tNzvUO/qeAWtTTvkceaBFtDgjSOMDzFFKZzQh6gxtgLpNDNNjotUJwA8KTOy7GMWPUIiUZbSsrZJNyhwBeQKC6MDolvZwKhESJAkJ8S1SjjhRrlsawirc+rejM4QBik0s1MxYos20AqUouE4tNWpLyFEorkTfUxoK7IX6BbdXPyvNn+ovynuMZpFAO6ZvlQWsp/oD34BgujdPGh+vz1TbtwWfeMA2auRFZYm4OOp8XFia2Xd1nQh6d3dQBuYAysiouf4F+qHlBMqXBuObYhTrZuk+/+MoRMxPslmJbHlGtIV3YafKpjNOFu8CPw0S7yWQ2MH4EpKCjd7lZlzLVt8fLgDLHZqRouxPf8gTS1OqbDn5NBkMgj45lLW7yELTAo2TijYX0wsibbvv+ISez6LIPqUyYskhD3DSdm21djfmtYRibHLLGYkGoBhZrxQFp2E+4lkp7AEYAFweJRfqNUTjM1x/Fgx8BJx3JwwpkOKAZ5mWhT/ODmovYzvXZD8WuY4YRemME2KLhAOx/wzKY682CGsbdFonKEejIGoNDOg/zj3PcNWmS5q3410PSaPUvvqIy6TFR81qho2ZNCHBemkyAJHQ39cGJ8KH+YJ5q72M/57uZwDgYx0yiptlWsrT3jrDle0EVlcgELRSQZiwClgLbPcoqW5rLaioVyWFik+vfuUnprq0KtcwfRrqaxskKRCdZboejqxaRGiG2upBFcWAIB6gMg9hCGzYgg1hFaBOyhAGQXsYYPnOcm7g1hnBEm33N/tfGJPZ2398H3+37d9/fhhwb/sY+5XXQU7ZhMw8Ys2g4BXvHa3s2YE2ZulmWVuPHi1F2E1+DWXwwlp2PMsC/sBP3EuTvLqSpjTwSddbpK4ZUyHb+sO+f7s2PQ+8ehcmetdCy3TPfhHrEDsYuYv2p+Ak4KCz7Lh9bWlf7LvuVOCQ48FqV+PqYMWrB0o0pFmbJbbZP+zCeXHnaJCIhirhLPCDibYty2dYEtpLVon3jTu1Ze68WXDKcURtnn6KZp1+h+O03OP1F+8j4rONahtU0KeGGIcxQwebFIkcjJbfK0PCWE58HJme+xSL2VNbwccYSxtP7xyFfD7LO/o+90LPxuGW/2o/GGKSEOLTt1lK+HcnIP277VfFDcRpG8JkiO0oRI9EMJgsRe2Eq+NMBoABxobgwyCt+YHW1NGxbfMUhp7D299erlgq/wTzfiH7r4iJWG8GMyRzCoYxwCNh3MDczNIOgrwZifTa7Q16zkv5wbBgVYvRuflARwoDm/8tCbJ8VaIBJBhfMJMygvmaLa9vU4FaF9b/qdk0/60qF6qYMpRMnTp17kvoIHwboD+Umhm7MkGJhbZRZTNsyzSpOIb2Ru6ptrNeklgZyr0Iq04DXBSDEhaur5CCuTMIZi5s6YEYLc3OuxFxgfmdOHHH5anBPDTZJs88iMFEl2RnwJNhxD89Ww9RcWHY9g/GVMjjZ0QGt7qqbflF+XFgujKEy95nr3YPUzSnXuVXte3fQQqhXUV8GXdWs+0G/aYkdyH5Mbt5bdelAIKDmeedr6vyRQeLbH7lZiZ0bFc4knZ3JVAvbOMy4s1ZHTrdD3ttVLdplLTHNdecmKND3zB1qXPZa584r+Z9jwqim9zy39hFNJoJUxqQ3wrHGOOpNekIwtnp+4rbs7LRIOBjFhbU+GcDGM888ql13fU+Lr/7MMLrVU905/MCNSmx+RF6yOJvwDfYNIC2t6UQkrB5EZtyNz5SCaK/5h2+rbuZJw65RaQc23P0LbfjVV2n2S1p0rEvN7DYNSLsMeribhMA4BSb6KJM5e8nL5AlFh00/3b1breZDTnZQzYVgCELCUFvWjtO0dkOyRvjh+c0tB6em+WGZKmBNgLP4cTc/9D86Z8IyKuTMUevetjd7PD9sI9w37Ofu6GM8mU4Fedu70gpTtGzVPT/XpGXnq+GkV+378PNPS978Md325TWqDWbVj3xIW54K4Iysv1bBusl62Rv/Sc3zX6ZA/eTnT6rgV0tpdTl51lx1bHtWW2/5CingXZrig07uPIEOn/bkQ6olErXg4veNeBfdq3+n/h0b1JSL04aSghm2O0ESD/T1QleDGDo5VyYhjMoIBXs2gzKC4Mh07lUa6R6ioVslj2MiUe2GM9ArBW0GTYQXJoGxs4sMUn+QCD4OxUfvuUmvWXw+B02nfH74Z52tZRe/TvfcfgvpyDnNnj6bCiU+nfWuz2FsXPz8B8fRq2bCofZYcsnbte43X9HT6JuNmO4ldqM4xtYV7//OiHeTJ8q29o+/oOYVmjkVU1IpCvuaoQhTGmbVoIFO6QrUIitpZIYih23zx2uCLoyB1tedkLfjCWmiMqqPasv5COaBbTlHMExDDPtCTqOymbWNautNqBfgbyMIqoPHrCs+o7mZRnVsfkrTr3ifzl182riRoAffy4HvDbO6/M2fpPvfpdq1bZPW3nOLll/ytkOGS9fe+m31ucKaMu8kGC+tIruY46IzlYoLG1MW0dsJITi5Z/tMO0e2GhC7SJJgyUu2weSz0Ogre5AqbrczMUchNaBtv/mCfPG9CrHV5jBoct46uRpmUVElJAtJugdaTeNDv2bp2TZN8jt+ebNWHCPMbCmTVmbl4z3DHdaVcWvGoos07+w3Y+VXOguMj7U/Zlv/eLj97vV/1LZVD8jVvUvNMKOfSJChCZJ4BtIe4IVwZBDLeFASDb0jR9UbegiphfFDrLKbdJRCogjC6ZWKtMw66FPVt6OhwIRm1Obllyu38geU19nl6Ls1TnYnwQECEXFUFrOMvRgnQw3CQ5PZ8viL5EY1EFyI1k2lQsvICKdDX6H6l0NRYEIzqjcYUb+/XqVQneLk1/tgTjQ3okbmiCdQYHu87fBOJAsS7jNUBhVAUwX2aU3O3x2PrJMfFQHcHaxpcmqiHorw1eNHR4GhJvXRnXtCfHrhy85XiurTKWLhKYyZLMaH+SAzvM87iYWDgQFj1sH/MPv2v7bnIa8NFRWifWWDGltmnhD0qZSbmPCMes4K/JNIUovYOKaSuXAQliYrbcu3BMIIbrChj/3H7Hn/a0ql41j34E4qhqZpxsuvqpQ1PiHmMeEZ1dD2dVFSj3HVFAjx+pCqpg8Zwt4K8JYdVBMxfJwjxrQBQM5AW4ikgeCCoYtY/KYmGADE/EE9FC6rP+NywrXWq7U6xooCE55RjZDnvv86xQps/WBBzTFustUPk1rBi4L5IXkULdTrDAK/MGgePTRO/D5FZb0UMDqrsJfj2ACt2c+8+kP7Plt9GisK7Kf+WF1vXF4nWEPuUz25T9SAioOyMskYQgXwkVtliCNDYVno0fTYNACUAlLYBcSwxryqYA4MoghUCcyoX6df9tZxSYNKn3SVUVmhMIbPvCuuVQxGSyJRnb6rQAMbibmHcFkZtCMHOiqFfzUFYsoY1Ut6Ry3QubCpA7y35MOkN1rVTY8Rx1cZdR9hpyw9V+Vm0l3QVS3p0AypMD5Uk6imgRrO1TwBVqLcAgGWcx9Ajw0Z6AaQbcId0uy/AN1VN3K9/2O0fhPmslVG3bfUtdMWqWHxmSpS0ylJHNzSnpPJQW+AU0OAEGqO43mOmxpQJoSaJx8mj8KaxdIvhBvVsvQ8KloPh+JNGG46hjdaZdQDiHv2Oz9LEuF8DQDOTqGL5tnuB2Fx+Pb5nCForY6+8w6dNE2uU56CZa1Jl5at+LCmUyu1Oo4NBaqMehBdz//Hm5QDqNzjCtIrNUTM36x+w+6jBpTBAwBqtu6BWRg5FQ5pb4mOfkD0Fl52zUFXqr4dSwpUGfUganop2HTq6z4sV/NUtWW91H3CgQ+jWmeWiBV2II3FkazhiPYWQ3JPX6CL/+nHB12l+nasKVBl1IMoagGABRdfo5pll6tc1+RY+UV0U6uhH0KahrDyzb9KLV65J83Vsr/8Eq0qwwddpfp2rClQZdRDUPT0FR+St2UeflPasWFAWeqzxVbtOQvG1E1W6Kyzr9CMJecc4grVw2NJgQkNnD4SQj76jfcot/lRQqo5ZfM0p4RJcxRdO3XFX2vuq//hSC5R/cwYUKDKqC9AxAIpyH/66Re09ZGV5NaHFMsWtfS112r5lde+wJnVP48lBSY0HvVICGmY1dPf/FH1lsnnal2jJedcoaUXvuVITq1+ZgwpUJWoR0HMTIIW5jV1nGFe1eo4nhSoMurxpHb1u0ZNgarVP2rSVU88nhSoMurxpHb1u0ZNgSqjjpp01ROPJwWqjHo8qV39rlFToMqooyZd9cTjSYEqox5Pale/a9QUqDLqqElXPfF4UqDKqMeT2tXvGjUFqow6atJVTzyeFKgy6vGkdvW7Rk2BKqOOmnTVE48nBaqMejypXf2uUVOgyqijJl31xONJgSqjHk9qV79r1BT4/5fgii7OPsYZAAAAAElFTkSuQmCC;" vertex="1" parent="1">
          <mxGeometry x="1202" y="555" width="170" height="160" as="geometry" />
        </mxCell>
        <mxCell id="-s-YMTsCyma7wOPpWQ3m-66" value="消息队列" style="text;html=1;strokeColor=none;fillColor=none;align=center;verticalAlign=middle;whiteSpace=wrap;rounded=0;" vertex="1" parent="1">
          <mxGeometry x="1250" y="715" width="60" height="30" as="geometry" />
        </mxCell>
        <mxCell id="-s-YMTsCyma7wOPpWQ3m-67" value="DMS" style="rounded=0;whiteSpace=wrap;html=1;fillColor=#FFE599;" vertex="1" parent="1">
          <mxGeometry x="1227" y="860" width="120" height="60" as="geometry" />
        </mxCell>
        <mxCell id="-s-YMTsCyma7wOPpWQ3m-68" value="" style="shape=image;verticalLabelPosition=bottom;labelBackgroundColor=default;verticalAlign=top;aspect=fixed;imageAspect=0;image=data:image/png,iVBORw0KGgoAAAANSUhEUgAAALwAAADKCAYAAAAfMip3AAAEDmlDQ1BrQ0dDb2xvclNwYWNlR2VuZXJpY1JHQgAAOI2NVV1oHFUUPpu5syskzoPUpqaSDv41lLRsUtGE2uj+ZbNt3CyTbLRBkMns3Z1pJjPj/KRpKT4UQRDBqOCT4P9bwSchaqvtiy2itFCiBIMo+ND6R6HSFwnruTOzu5O4a73L3PnmnO9+595z7t4LkLgsW5beJQIsGq4t5dPis8fmxMQ6dMF90A190C0rjpUqlSYBG+PCv9rt7yDG3tf2t/f/Z+uuUEcBiN2F2Kw4yiLiZQD+FcWyXYAEQfvICddi+AnEO2ycIOISw7UAVxieD/Cyz5mRMohfRSwoqoz+xNuIB+cj9loEB3Pw2448NaitKSLLRck2q5pOI9O9g/t/tkXda8Tbg0+PszB9FN8DuPaXKnKW4YcQn1Xk3HSIry5ps8UQ/2W5aQnxIwBdu7yFcgrxPsRjVXu8HOh0qao30cArp9SZZxDfg3h1wTzKxu5E/LUxX5wKdX5SnAzmDx4A4OIqLbB69yMesE1pKojLjVdoNsfyiPi45hZmAn3uLWdpOtfQOaVmikEs7ovj8hFWpz7EV6mel0L9Xy23FMYlPYZenAx0yDB1/PX6dledmQjikjkXCxqMJS9WtfFCyH9XtSekEF+2dH+P4tzITduTygGfv58a5VCTH5PtXD7EFZiNyUDBhHnsFTBgE0SQIA9pfFtgo6cKGuhooeilaKH41eDs38Ip+f4At1Rq/sjr6NEwQqb/I/DQqsLvaFUjvAx+eWirddAJZnAj1DFJL0mSg/gcIpPkMBkhoyCSJ8lTZIxk0TpKDjXHliJzZPO50dR5ASNSnzeLvIvod0HG/mdkmOC0z8VKnzcQ2M/Yz2vKldduXjp9bleLu0ZWn7vWc+l0JGcaai10yNrUnXLP/8Jf59ewX+c3Wgz+B34Df+vbVrc16zTMVgp9um9bxEfzPU5kPqUtVWxhs6OiWTVW+gIfywB9uXi7CGcGW/zk98k/kmvJ95IfJn/j3uQ+4c5zn3Kfcd+AyF3gLnJfcl9xH3OfR2rUee80a+6vo7EK5mmXUdyfQlrYLTwoZIU9wsPCZEtP6BWGhAlhL3p2N6sTjRdduwbHsG9kq32sgBepc+xurLPW4T9URpYGJ3ym4+8zA05u44QjST8ZIoVtu3qE7fWmdn5LPdqvgcZz8Ww8BWJ8X3w0PhQ/wnCDGd+LvlHs8dRy6bLLDuKMaZ20tZrqisPJ5ONiCq8yKhYM5cCgKOu66Lsc0aYOtZdo5QCwezI4wm9J/v0X23mlZXOfBjj8Jzv3WrY5D+CsA9D7aMs2gGfjve8ArD6mePZSeCfEYt8CONWDw8FXTxrPqx/r9Vt4biXeANh8vV7/+/16ffMD1N8AuKD/A/8leAvFY9bLAAAAbGVYSWZNTQAqAAAACAAEARoABQAAAAEAAAA+ARsABQAAAAEAAABGASgAAwAAAAEAAgAAh2kABAAAAAEAAABOAAAAAAAAAJAAAAABAAAAkAAAAAEAAqACAAQAAAABAAAAvKADAAQAAAABAAAAygAAAACcDW5PAAAACXBIWXMAABYlAAAWJQFJUiTwAABAAElEQVR4Ae1dBWAc2Xn+xMxky7IlmSQzs8/n8zFT7i6cFAJt06SUMqRNuU0pTRu68OUuyVGO2QeGMzNbtmwxM6+kft/43nYk765W8srelea3Vzs78+bNm/f+97///Rg2SIADTg9Mkh4InyTv6bym0wNWDzgI7yDCpOoBB+En1XA7L+sgvIMDk6oHHISfVMPtvKyD8A4OTKoecBB+Ug2387IOwjs4MKl6wEH4STXczss6CO/gwKTqAQfhr/Fwy7Kjx9WHgcGBa9ySyfH4yMnxmuP7lv0DAzjXUIGGtia0dnfiQkMluvt64Rrsx2B4OAZIVgb4b7CfSP2B5dIlEyb+CAvTFciiKSIsHBEIQzjrC+Pv6MhoTEnNQG5KNuJj4jA7axoSYxLG92UmeO1hjvGY/yPc0duFnr4+NHW24kz1BVR2NGLvhaPoBhE7MgwgYveRUvcThcOjIojwRGWeHuCHKG0hs0H4MCK2/gvx9XGR9MTGxCAhLgGDXX3o7ehEmGsQUZGRiAznh3dH9gORrKxoSgFmpU1D0dRCxEfGIDYqGvHRsf6/yCQu6SC8j8F3DbhQ1daIk7UXUNPZjPPNFajraUVze5voMPoiB4ngvSLNCCNVjrDqiuS1CAy6BoiopO6k6tHhEZiakoGkyHjrnCYG5wQnSBj6yM6093WjvL0eLlF2nhMM9muKEMJ0bgBRrCM+JpafeMRGxCI6Kob1RiE9JhHJ/VwJ4lKRFB2P+XmzHORXv3kBB+E9dIwQ7fnTO/DOhSOo72pBd1gf+qJAKjyIgQhe7e1HVD9RnggdRhIe3kuE7AtHeB8Q3x2GGWnZWJJfhKmZ2SjOKSBeq6xoOv/x2A6DA0Js1ksq39nbjZNVpZxkDdhVfhr1fe1o7+9BfyynkFaQXhfnVhhiWIGof2xYBGIGIzA9vwBJiSnISp+CsoulSI+Ix61zViE7Ic3+KOdY/eawNJfwoJ3sysWWGuy5eATvlR5ALylr+CApNJHRJdYjnAgWHSOCi/DoCPSRGqOrH3mJ2ciKTsaM5GwsmDYL01NzSGGFklcOWmFO1Veiqr0Bp2rKUNfehOqOBnQOdqF7oAfxcXFISkpET08PBrXCcPJlk+dPJ/LHDcQgLTIBS3LmIDU6AVkJqdbEu/JWhXYNkx7htbl89+wB7Kg7hTMdVSD3jMguF6K4gewRVY0MR0xcvMU+DDZ1IbJ7AClR8ViQOxOLp822NpTJcYkWHz2eqOAa6EdbVycaOlvIWlXiUNU5HK0/z/0D25oQbUl5kmJjkRQWhd76FkSQ9YmKTUBOZgZXnGnIjEjAzPhsTE/P4TozeWFSIrxhH947dxi/PPQ6esmquMiHD0aRueZGMy0lBX1kHzrD+xFGSUlPWxdiesIwLSYddxavxiJS8iQi07WGxq5WbC85jJ3cOFd1N6EnzIUYbpYz0lLR2dljiTv7xW6FRSN/6jQi/lTEdg3g1qJVSIyKQwRZsskGkw7hq8kf76g4hl1lJ1HV3IDuGBeSufmbEpuC1PhEdHODWEUq2t7Xg5jOcGSILSAlX5I3B8XZMyw+PNiQpKWrHceqz+NQTQmO1JWipb8L0fHhiOIEjomMo5iTe4h+8vuRsYiLikUy33Nd3jxMDUtAPvn+yQSTBuEl+tt38SQeP/IaqvtbEU7GPLGX0pOcKVhdsBAVbfXYU3YM7ZSjR0VHIbo/ErfNXIuNsxYhIyGZ/G/wU8NeSnxq25vx0rH3savhKDoHOslqxXLFSiWix2GgZxA52VNQfqaUVD8S82dxEqflYUF6fsD2HcE+eSY8wkuDWdVUj2dPbMN79ae4Be1H9gDFd8l52Fi8gqLAPjx3bBuOd9WiJ6IfudEp2JRRhBvJumQlha6UY3fZcbx7/hBKqBBrH+xBYkIckimrj6G4c3b2TLRyclS3NiI2PgHT4tKwceo8FJC/j6LMfyLDhEb4Dor5Xj+7F9vPHURZfwtlUhFYllqAO2etQkpCEp6i6PFk3TlKOboRHx6HVfnzcV3+IsxKz50QY64NeWlTNV44sYMb3HOUNPUjMTEOifGpVGKFYQ5FpmHtvSivrkJSWppF8Vem5CM1NmlCvL+nl5iwCN/EDd2Th97C9orj6KIsMW4gCg8suA53Fq3BvtKT+MnB11Ae02Epf+ZEZeDhOddjRf48T30U8udkq/NeyQG8eHonantb0Eu5/swpeYiobMeavAVYwP3JUwffQT3FnRsK52BOUh71BzMtU4eQf/lhLzAhEf790qN4jZT9bHO5pQVdmTkX9y/ejHRSrldP7cUrpXu4zLdRTh2FjblLsWX2auQkZQzrmon38zxl+ltP7cO2sgMIi40kOxOPGPLysxOm4p551+EcZf07eS0uPhZzU/OxrnApUuInFrWfcAj/9L438Oa5PWjj8p1MBL+7eD2um77Iskn5/sGXsb3qBPr6+zAnIh2fu+5BKmTSEBVBNeokgR6yOccrzuK7O55GWyJ1vPE0T4hPQVJTOD614nZKcBLw5pGduMBNfB6N1e6avxZpcRMH6ScMwrd0t+MXZGFevbAfEbERKE7MxcMLtmBeTiE3Z/X44fsv4WTLBSpkIrE4YyY+vvQ2Sl9SJgmaX/6aJXXl+OmBl3C+vVpmmdQiJ2Kgw4UHl1yPldTO7jp+EPtoQzSYFIfPrbwVWROE0k8IhBdCP3fwLeysP4OmuEGsmVKET866AdOSM3Gw7DR+evItVLfVIX4gkuzLKtxCPj51AlGty9F55DMS09a1N+L1Yzuxs+IwmmNpz0NqH9bej3tnrMaWmStQQhbo+dO7MTd3BrYULEVeUvrIFQd5iZBH+MaOVvxs/xs4WHMK3a5erJ+9jBTpHqvbd1Cu/v3jb6OhtwHJrnA8suBG3D53XZAPydVtXk9/L55h/71atg+tsS7E0koujJaZN+Yvw8PzNsPl6sfXnv8BZi1aiAdnr6WGNjB2Qlf3Lf//aSGN8PUdLXjywBvYU3nS0h7ePnsNbi5eS6PCXmw9dwjPnd1OyUMrcgeT8NCim7CBIkcHLu8BUfu95cfws72votnVgZa4cMsG/8b0eXhoyY0YoGHaT3a9iml0RLl1wWokxMZdXkmInAl+9aGXjpTt+A93v4Dd3ISmJCbiw8tuwo1zV1uGUdvPH8Vj57ahgbL3JZFp+L31jzjI7qUfdVomy6umL8SnV91DU/0wUvkBJERGYG/dGfxs3+s0uUjC/eTtK+trsffcCcjDK1QhJBFeduPf3vEkDjecRTJV5/fOWo+V1BTK7nw3KftPDr9A89lWzI2bgk+tehgzJogiabyRbCHl8Z9f8yDSBqPQSSGAKyUCu2tP49G3n0NmUgruWrYBB2mnf7T8rOWlNd7tGY/6Qw7hO2nU9fNjb2NfYwmSBmLxoflbsG7WUsvyb0/pcXx3z4uW/XpRVDY+vPhm5KZljUe/Tdg650+djTvnbUJaeBLaW9oQk5GAA+zr549sR05aBlmaNdh1bB9Olp8LyT4IOYR/t2Qf3qw9TDk7cP3sldg4dzmlalE4W1vGibAVTfGDSIlNw8cX3475WYUhYfQVTJgj/9jr567CuikLEdcbiaaWJkTmxeHNqn145/Q+FE8rxMrZi/HEjtdRQ1ucUIOQQXjxjYfKT2LrmT3o6+zFLdOX4aHlN1r9Xd5ci6cOvYHabhpD0dXuI4tusFzrhrvThdrgXKv2xkZE4/5F12P9lAVI6I9CXV0dIjNiKQjYhz3nj2DJrHm4bv5yPL7zNTS20UYphCBkEL6hoxkvnNyDOnr9XJdRjIeLN1ndXEP79iePvokTXWV0cQM+t+QOrOcGzIEr64EEhgV5aPkWTI/KRGQnIzF0MnZOYjh+eeI9VFHvsWXhShQmZWLbsT3o6u25soddxbtDAuFl4vvS8fdxgrYxBZnT8eCyLUimC5v8UF8p2U1+/jT59kFsogx+46wlV7H7JvajpJz7zIb76LObBlcLg5HQr7chyoWnj75H8wwXtixbh3ra3+8/fzxkNrEhgfCnay5gR+lepMREYVP+QsshWaj2xME38epFGkJRqbQmuQj3F2+e2Bh4Dd5ualomHlp8I6MyRKGruxexifE4VncB75zYj8TYeKwvXo6yuirUhgg/H/QIL9793979Bd02wrAkLR8rps2xJDJP7HoZ2yqOop8ODVNIgbYwLEUKnakdCHwPLJ9ehDW5RehhcCgF3wlPiMRLh96zNq0zc6Yjif1+vrrcUlAF/umBrTHoEf7Hh95EY0w/shIzcNPctRBvue30AbxJyt4d4UIqXdc2zljCaFz5QelvGtjhuja1RUdFYcuiVciggVl9TTVSpqSgK9KFl/a9Z4UxWVpYjDMV59FE9ibYIagR/gzts/eUn0BieAw2Tl+MmdnTceTiGTx/8l20R/VikJulmXFZ2EzRpMLROTB+PZDDDeqmghWMxTOA+qZGZBVNxXE6jR8qPWXpOjISU3Gw5NT4NSBANQctwisI0St0wet39WB+fA7uWryRNjJ9OFR5FhWdDVxaB5HFMHM3z1pBu/drHzIjQOMRtNVE02dg+fR5KMouQHtbG0OsRaIrhp5UZw5YG9c185Zi95mjlq9B0L4EGxa0CH/w4glU0rE6ISke99M1T1BL0WRZVwNcSYwAxhBzi9NmYVnBxHTLs144yP5MS8nEqqnFSByIQ+X5cmQX5qG0uxr7Kk7SRzgRSwqL8Mr+7UHW6qHNCUqEb6UdR2lrJcSlLM4swJwpM6xWlzdW4nxHBVyMtxJOH9UHl93s8O1Dx3Pcf22Zsxz50Vnobx9AL6Oh9cYM4njtOTS0t+Cmpetoy3Rs3NtwJQ8ISoSv4+bnREsl4hISsH7aJSWSAii9dn4POgb7ENHTj80zFk9qj6UrGfQruVdhPNbS2T2G4praqhpkTcnBOXpPldC0I5IWlsV0FjlacvpKHjGu9wYdwsvD/nR9OaUADBoUcykZgELjHaljVK3OC4y13ofkwWjI9t2Ba9MD62YuRDR1H4qV39fbS7fJaBxlrMvOni7cumQDjp47eW0a5sdTgw7huxgr/QTDxiUz0P9aOl8rNNwgM2nsvngc/RG0w+7vx6Yp8+ljOXn9Uf0Y13Etoiwk62cusgK4trW2Iik1GYfI1jR1diCdwatiGdS1gyYgwQhBJ8sLj4hgCOgkxDKhQC6tHmXjfra+BufoXxmTEIYkToDl+cWMQvD/kQbkid/c3srkBMzEwdWAjD0jjOlLB/rNQKmXvqicSoCi/Y4EHaRWjeRL7fdalXxQryLwJnOjlkgTBxmp6bltHPDW7g4r64cpq3Z80BLrSH8i6EKnOJZKcDAStDD5gqlTceTVH6o7jKH/BhhbXs/OSUm3LEa1ErZ2tqO1q0PNHgKX2qGWSFJBOsd7MxiCTyHAxwJrGYLwpfK9VsKHHpoZuBhC/FDlGUYnzkZRwWwcvngW64oWj6Xqcb0n6BCeo4jIvn5Mz2A+I8Y1FxwvO0slE42XImJQkFBI6p5hDZzpmf2nj+LlQ9ssRZSLTtx9XAkY3Z0bW2bjYIxIJp9BdzSRgzdsyl6AB5ZthsRs3kDIsfXIHpot7AdjeHDzzDxM9P1U/iWl7hhkAhqGbcTNM5fjrhUbrbNtPZ147sB72MvAT4PEIcZntZIcWHlBdIJtiWOQ0y7iWiRXr1vpJH3b/FXemmCdl2j2O68+hSp0MKRGL/oj+xDHmPSxZCdcnDTgpI/sCce9Czdi45xl6KZe4tVD27Gr5gwTOPShnwQgKjqaiyLbzE+4EkcxkUL8QCIS+iIoZpyDu9bf4LMN3i4W0qkmKzwZzT3t6EvoQySDtx6uPYO7sAFpSckora3wdus1PR90CC9q3drVhryMKQz9HG11ztnai+TdOWi94Vg0YxYyGPDfDrPzCnBfXCwqmTjgUDXjvLdWWBk7+omi4QMRyGYYvfsYGDWN4fVyGEfRF7KrXqH1spnFyMpIRw951N3nj2F/bxnjxQ+gMCIZizIKUJA6HYVso8oKROk3FS/DjOwcnG66yPjtp9E02MnJRwwf7LbaUZScgbsKV1ra4oKUkaP2aiV48LqbLTl3XVcT3izZhQpXK1eIKBTH5WJB1kxGZshmrMjpVjvUX6tnL8SMKblo7m1DSWMFEzycxADDcCglT1ZUAoMrLWL0gSnMHhKFPFLjsYJWlg0zFuDF0t3WKhgdF42zpaVW0gbF+ZHfq4vsZyRX7GCCoEP4ps42TMvMRVpMstVPVoY8sjNRqdHIjk5CIRFF2e7skMUlXZ/lPHl90XK8eORdS6LTFd2PvugBdCEOKxk3MiPuUp32e70dTyMy6KMJWNnQgGO0uZ+dORW/vuQmzKAz83AQqzEjc4r12cSWnG4ow6P7X8SFrjqyOMyFE+5CAgOabhqFNadYssLsadanvrUJJ86XoJ5xMO9Ztgk3FS6nMd1QhZvivRdm51kftU8rxLHSr6GV1qZRXGGWT52PO+ZtDFgOqMV0CXypZCf6enrZUsa2SU/BsQunsIarTTxDc1c31CGP0YqDCYZiThC0rLSmkktiKtmZS/ztrnNH0RNHHrlvENmRyUgdNsjDm5zE6/cs2kyx5XLEMCT2AOO9l0f34Jt7X7b47OHlff0WT7yNFHIHN2TL02fibzZ91COye6pjbsZ0fGnNQ8iNSkcUOYnBMK4Udafx7PF3PBX3ea6F+4KnDm/D6ZYGPDjvejxYfN1lyO6pAplb9DMLYE9MGLqjwpgiJ4EmGIGjuBkUHCQSsTvb2hFJSU1MJt0C+7qsfYHsb2qaqBEPMgg6hD9TW4nc5Bw3O1PSUI4OUkhttKYnXaK6I/WhcpreOm8d1uYsREp/LCK4tB5sOo9H974E+cT6Az0M9fHyyffx5PF3mbspH5/Zcpc/tw0pk0OJxSfoV5sfnUFLCLJXXJleZMzLrQxjLfGrP1BP7fJj+17Ccaa3uX3JOty+eK0/t7nLhHFlYb5BxppxoY/9OCA+PkAQxw2vUmgqU2E/V5MwRil7nxlJBNFkrySXDzYIOoQPj4ocEuxHWryB6HArVeNMbpQMzzxSR+aQX1ZoieLYXOQ0D4DCTbxTeYiho7ejawSklzRk64k9jLG4A2sz8/EIN4WxNqnQSM8218V6LcnlxnDh9ciMSkNMN9DCWO2Pn96GA9UjO0GLnVOszPMNF/Hwwg24o3jVqOO3RzOQUhyFADEuZgCkZIZ77oBCDFMCSWLExdDKR9vR2QXls41jzll/pFABbYwflQUVwrd3dzHVYyazb1xq+dm6MnQzhLNEIgmU0CR/wNf78V5WEUUE/sy6+5CflM/M2ES26D68WbEb+xmRTBTJE/QRMbaXHMIzZ97H+kL6za64mWH5RhZjeqpL58Tbr6PL4UNFNyAnnJSeCFc/UI+nTr5mWRuKbfIEzR1t+O/XH0N5Qy2jL9yJDbNXUPQ4+i2Xi8jYSxo/wNj42qwrfWagIJZRyIoy8vmOkXB1upDWH4eo5ERUcr+Txlg2SXQQcVFkGUwQVAhfTs8ZsSOZyalWH7V1UORF0ZoS/MZTMpE3hpAbaYnJ+MS6WzCXGeyi+8PRSMXWs8fexUlm0hYlt4NEi88eeBtP7nwV985bj7uWBm6Dt3HWYtr+bLbEgQxsjIudtXj60FbaoDTZm2Adn6urwPfefgYVRPZHVt+KFQXFl5Xx94SEsZcEssz1Sv49kKl7NJmTouMo+gV6urqtTIaJDIrVLGUUdRQNrS1ooX4kmCCoEL6qoR75WVM5MJcomdK4DzK7nov8bhKpSTrFimOB/IwcfPmGR5A1GM/bw1Ax2I6vb3sSFxsZOfcDaGdwp8f3v4WXz+/HhgWrKM1YF/BUlGsK5+NLDNEd3cV3IlU8wci933vvBUteb9pR2lCFJ3a/gQukkl+47WNW7ldz7Uq/xXpInBhI0KqhvLS9PTT54AY2muLh8qYa6zmSLHVQqhRMEFQIf+TcqSHpIJWPtIMKn0h1avglmfxYOy+FNvNfWPMAZsbmWBSvNbIX39r1DEppgdlGKcjL+97F+apyPLh0Mx6ik/h4gJBNmbk/snALMhjoqI8byBNdlfj2e0+jmRaiSljw7P63LUr8u7d+jBHTAivSE6oHFt1hsXt5yVkW6xZJtkkUvqG5yRKJUg1C1pHrqBe2bTz6eKQ6R88UjlTjFVxndkWlBnfX0EWlT790pjw1NyfffX4sB5Jpz8vKx0PzN+NHB19BXWQrLnbX4RsM2ZfGpAhdrR24jyzMyoL5Y6ne73tkbXjLnNUsH4ZfntuFNmoq9zDZWuW2ZrjoJJ0bl46H192EqbQ9DzQobmSgUV6yf2UEFMiQLIaa3a7ORsvsIYIb2vqWRuRnTw34ymI9cAx/gorCK+pVanis+zVcZGlc4rM5TgkfyOXdF8dwIP51ZV4xHmFE3DTmLwUtMutd7TjZWYXlCxZjdeECUtfx7xJJNrZwE7oxbz4RJALtXG1Oyc6fi9ityzYiNzVrXBAk0OyMNQQcHo2TiFVfRzffJwZdNOG27H5I4bV6StoULDD+ozuKN01ixmjJdg24+lyWFE2dFxFAme7qafNww7QllphOjuA9HKCztOmu9bCBNG0J9HcCjeDuK9qI/LhMhMnOhzvZ2t4m7Lx4GMpmEiowSERnzmPaOUk5yPHidxuHsJfSmX6ycD0UiwYTSxNUCJ9J8wA7aAFWA8WOhAeQ8rbTErKExk39dEiOJVkdoEPJISp2fspwfc3Man21QI4TXS3UUjb00b48Ar1k57aWHsJuhhRUOPBQAI2R9sEk9JYIUmJdsaH99IbS2fDIwG+Ur6Rfggrh1yxeOuRdhOTiO82/IRfH+KOurQlPMSZiT1cfvnT9xxhqewMywxOtBMXvV59gOL9tfmtjx9gEa4k/zFQ8L+x9FwXJufjzWz+HFUyGHNk9iE5qQ3/CbOFvMIZmqACFnYimyDN6gOhEs+5Byvo1XfUJtoRxQbVpTU0eagUp9bS0lWGkGRYJuUIMkN/lk3veYPyUVjy88mYUTy3A0pzZYuXxzOm30c6l+JWyvbQN6cJnN91/hU/zfLvlvVV2Bk/tfcOycrx72fVIp/Vn5vIURO4D47GfRFfsAH5+8m1EcjN401yGxggQEBUDVNPQaga1GjEgVmJELAlJj7X/kK2+MrGkJSQjIogsJoOKwg/tRiCGmkVrE0lbjSvF+GaaHH9n29OoZoThB9beiHm5hdbKIanJjfNW4VbGXIkhS9GJHmyvPYEfb3vJCgsyvE1X8lvIfojWhI+9+0vkkn27ne5wQnZBJuO63EsThOJEWoNyE9ga48KP97yGvSwfTDywp/dXShzyM8hIzUAvEV5jJjLVS6lNSly8JbL0dN+1OBfUCJ+VkIpoynZFl+TEMFaQrP0bbz2BbrqdPbj0RszNmjGkqjhKgLbMW4u1UxYhKSIevTRv3F5zHK8efT+gkXHfPncAP9j5AmbnFuCe5Tcgm/Y+dpiWnoN7l9+EPGqF9c7djHX/C6ac2c9ED2OVdMhWLEzmBPwWEgYaWqidru5rYfWDVNTROpO8eySdTPRPyqhL7l+BfurY6wtqhJc7XiSHSYMvH6axQFVLHR7d/iSaybt/euN9WDh1lkf1emZiOj657A7MjMqio4kLbTQpfpFJ0bae2WvZxI/l2fZ73jq1h+zU61ZCgU9vuo+29pcrlSQ2nMeU759cfAfSXdRa0qS3Ea14nqYQp6pL7dX5fWxH8UvH6s3RgVamGmpN5To4HNpoDlzT02oJFeRd1T7QjTg6l4i6S0MeoR1tEEFQI7xstyPoMaQls5P84GhAFPFU1QV8892nkDAYiy/f/qsoYGZp2X94g0TahXxhw0OYmzJNwmW009jsNXoZ7aPUZKwUVm53rx3bxnDf72LVtCJ8/roH3KbPntqhDfqi7EJ8ctHNSOmNpuHXAM721eExZhE/Tfuf0YLk40JxiQ9JO8YEeoevv/QE9pwdGnNGrFYPs5oPkgWL4ljJOrKmsQHx1Lb20XEmkw43SogWTDDGLrg6rxBLE9Nw7vrJ1ViRDPx9qgbiNCni47te4YSJxEc33I1sPzWXys79xfUfQmFCDuXIjKNIu5vHj7yObecP+vt4d7k+WmQeIDuy9cT7WMZYLh9azcBRPiac+0YeXJe/GJ9gKvgIFx046FpY3sPED/tftexU7OVGOg6n/mKQo2zJy2UePAa2poNsSxjNPKdmZA15nGz6z9dXsMYwJMbHW26DPTS9zqDNU0dnp/hQOoNcmUnIkAcG4EdQI/wMuvNFy4aGSNJNiuEvVLbW4fEDryGKaeY/vfYuzMiY6u+tVjltIL+4/kEU0O5GFoYNg234/oEXcZyxV5ScwR9Que2Mu/jDPS9gMd0L76f9jLyxRgOred9n1t2NhAFR+kEc66nCP2/7CS621FhU25+6wrhCigDom+4flmO3P/fZy+xiZsRUuu/N4B7DDqLs7d2dbMsg0mm6XU22R2Mlf+TO9g5LOx4fZDldgxrh47mZlB2NRreLRmRtPZfzkPYB0PGh8lP4j/efQHNML26mFGSsBlgZ3DDfNWcDSLcsuXIXM1/81/bH8TZ5caXN9AVSpz/LzeZjx17F9MICXD9vzZj8SMWFLMmZhVvymX+W5tGdDFNSFtGM/9z1c+wpPeIXEdAqo1Wln8hZ1lQ9Yts1UdXP1W2NKKUx26naUqamP4YBbuSVAMEO0qZWSzvN+qfRHKKmuY4xaeLo0B6H6pZ6OnKPboLb6x6v46CSw3t6ydlZc3CxhnFn+rtxsbkGC7ips4M2UicqStDIjdPBqjO40FqNdipv5FO5v/okWmmTHctQHRuYhMsfdqKZcWAOl5dQPNmLw63n0aHwIFSo0EMPzWRxfnTmLbxZfQRL0wsxP2065uXNtjbBDW3NOFh2gjExa3C69gLq+9rAJDGoaK/HK2ffx3SaEExhnJ1F+XPtzfd6XFZfzVg81TQ3aMVe5qN10eg8jPsKOUtX9DTjm0dewqyyg1iWNRvz0mdYjt6qTI4jp2pKUc/7jlJ73NPfgxiq+yUnP1h1it5T5Vw1GUPEkDouWINDBALhbLcLvXzegJw3ul30RwDWpS66rK1KW1/aWoVoeqRNZTjtk8eP09kmEzF0GO+OicD0aXmX3XOtTwQ9ws9Mnoqt9FDqiu7lktlwOcIzysHe00fQ0isUdRGpMrjfpEqbsuCaqjpm465HYn801s1b5pfEoIae9tsP7sEAs1z0ENnzw9JJ4bXMkJBRvKdlPKxrEEcvnEXdxQrMnTrTUp/LKnDvqSNgEkFKKWKRS5sgefuE0fa99MIFVIVVIj0swW+EP3z2JI4wyUAv7WySKO4riqRZMzfimrTiydkaZuTowZ7GI4gvCOeGnO6PvNbMrHq7Th1EM6UlyntVQLk+G00n00v6aktg6Hb10y/hfuQltofzIpzMvlaTaP4b5ISNj6dpNs0e5k2ZqYcOgZ1njli2/JkxKVbMnvaOTszLL0Azx0R+rgpUFWxAa1z1RvBCQ0cr/uD5b1JH3Y8b8pfgEytvtzZJpsUSmXWQj9TyavHX4gMIlwZSgywFVvRly7FVyMufxrbWS7wuEUa9I0SnNY9Vq1DEWil4Xn6uWrb1DLkMtlHO75INCbXDopq6Z4AeW5aXEStKoBQozo9oY2qWwoOIP5Z29NLKZN5I73bpn8rp2SmUhEiBJlA7Orq76Smm/rBO8c+lOtw/ddp6Md5tneQfThbVpd+WRMcqQsLBf1HUlHpKJ/TVF76LMx01WMRVbhb9jQ+dOobNi9Yy31MTFtEUe37e5ZNEj7iWEPQUPoOq6flZeTjRUIqyllpUNDLWiS2AkOVmRnl9ICGdkbNGC/LSSmVbAwUKqmQCUY2mTrUjmWH8xhs0ISu6mi3KPpW+w5LYxKQlIS4lAV0V5SheUjDeTRhT/dbiOKY7r+JNN84kO0Iq20jzgMbO4M8jdBW75po96vWzDF3OvZIUdnmJmWhuZMZuJq+o4B4ijXm3AmndGsiXDAmEXzh9NqYx2pfc4KqYHnGsSqBAdtxkr2tHyQG6KA4gIzkNg7Sjae2lGJIr3L7j+3HT8vVB2z0hgfCKT7hp+hKEU9pylBKIRgYncuDa9cA+RoPrbG3nvigBcxnXspMrb0tPG1zMu5WbkGXFzrx2rfP95JBAeG365ufOpIVhJk40lqO+q9Xatvl+NefqePXAvpqzaIsLB037kEnN9OHGi3Alx+DCmRJ8hEZxwQwhgfDqwPT4ZCwma8N4vNhFdX2f5VETzF07MdsmHcOx7iq0xbown9S9i5Kpsy1V9GPtZTzPhYzsHLiN+3j0YMggvKJuLaHSaS7l8jtKj9KmpHY8+sOp00cPSGt7pPIclVutNHcIw9Lpc3Gg8iTCmGQuha6SGwouV075qO6aXAoZhFfvFKZPxSp6KFEEgOdO7LgmHTaZH1pCU4N99WcR1ePC5pz5aKIQoaSJ2RYZu/I2xr1Puwri0Cvt/5BCeHnSLJtRhBxKBg4yC/TpuotX+v7O/X72gOyHdtM0oYS5c9Mpdtw8azXeO7cPfbHhWDq1yNKABzKMn5/NGnWxkEJ4vZ1itqxnmI042oY8d/gdhrQY2aBs1L3i3DCkB6SMLaHX2L7q40ikGva64tU42niBiaM7MSUiDTfOJHUPoNJtyMMD/CPkEF7vfwvd8Wam5+FYWw3eOn8gwF3iVDe8B6RVfaZkN2q727AyKg8zErLxVJmoewRuyFuEoqzpw28J2t8hifBibT6x+nZmnYjFDuZ0OkcnBAfGrweeP72T4uCL1KAmoIjp5d8po2kyTQnWpBQy8URo5csNCYSXfVtt7VCpzBQ6QH92yS1orq3De2f2oYXKDwcC3wO7K07iRSaRkInc4qxZqGK8/hKaPM/oiWdQ2OCWuXvqjZBAeFkLpjOjnuU2ZnuLJfT9vJ3pH/eVH8bBytOOyYGtbwJxWEbPsR8feIXGn4OYGpmIjPR0HGwpo8mzC59cfssl+1FZXYYQhATCqz8lARigj2Qf050biKZ57vXMdVqYOxu/ZMSwEqaGcSAwPdDQ3oxnjm1FUz9tZBjgdkFhMZ1ZGOG4sQ1r8opQ39+Kb7711JhcBgPTwrHVEjoIT75dscddil1IxDeQzkxyG5nCcSAmHN9i6OsgN+83zQ7qb2Uhf/X4DhymB5kQZPHMBQxPFYZqso8FqdnoTRjE93c9j+bIbnpDBb2F+ZC+DhmEV6svOULQOcLmU6pzq3Ln4mZGDqNzEf7u9R/65fs6pBecH+4e6OVmdOeFY9hD/4NI/lNokYz0NJyiG2VyQjzjlkdh19kjVipMBRwLNQgphFfnxsXFMfQGHZq7mOzMBjcVMFze7DU4xjQy3zn8OlOiO/J5W/f4dajV8dD5k8wHW01ldhSW581DMTOOn6e7ofLd9jCj+MmKc2jqa8dAbz+p/dAoBn495BoXCjmEV38pywQJO9o7/h+pY8jP3zv/OmwpXIoDFafw6O4X6DASXAm1rvFY+3y8XCX3njmKix216O/uwbS4NEyZmof36bfaRYO91o4mXGisQjORXbGCsgfi8Lm19/qsMxgvBr1Pq69OU0QybWJjGLDJDq8e2Y43GPyoeNps3Ltks2XB94HHpr2Yc/xBD/QwLN4FJlO7QHHjodYLGGjrRTZj+RyqKkFzVCc6m+qZiqifDuWRVlbxXDqj/+GmTzEtT1bI9WFIUnjTy3Ijiya1t6LXmpP8vmnBOty7dAuOVp7H9/e9AmXoc8B7D8hRPJP2SfsZiaGFfRWWkYBd5/ajroMhT0jZXbGDcDFDkGKIxXb042NLbseU5MDnoPLewsBdCWkK76sbehnz8L0zzLzNuI5pSSn4tbV3Y1qIDpKv9wzEtUbGzf/x7pdxgeH8YrJTUVnBfFOMetDPsCcDlMEP0pMpgoKxKVQ/3VO8CRtnLb8U2yYQD7/KdUwYhNeGy0hxTB8K6Y9cPIMnDr2OQS7H9y3cRIlOkRW2w5SZ7N+KLvbsoTdR0l1rBZ1q/yCv1qUQ2ww1wn5VWJ5UxODegnXYsmAtAzuJ1ocmTBiE99X9TZ2t+OorjzJVpYu+sYvw0LyNSGGcx+ETxFcdE/HaeWb8/uGuF1HaVYOe6H4mJxtkIClyuYpRQySPZrg1xr8CczPgNkrAHlx2U8h3w6RAeI2SMoD89PBW7Ks8g3mZ03DH3NUopmmCr/DZIT+6Xl6gjXz6VuaQevv8IVRTY+pi9AHwQ8EXgzBdSowTzvBmMQyjNjUiBXcXb8DGouVeagut05MG4TUsikC84+IRPHf6PSY96GbGj3l4ePXdVh6p0Bq2sbe2jkFSv7P3eZxsLkM3laR9ChxJfI/ihxk8+aeHf8IQ5QrH9JgMfGbt/SjIyB37A4PszkmF8Kbv9zPo6ZOH30QV8z1lRKbjIytuIrUvCEjyY/OMYPpWYD7FeN9WchAvHt+O2mhJrRgIkM4cEQMRNLpjFEmyMoNULkWEu5DUG4Hl6bPxAPslZ1hanmB6r7G0ZVIivDrqfEMF3i09gLeYFzWGKvR5mTOwgUkIlubNhYzSJgr0DvThQNkp5n/dj9NtlWijtlQ8uWwcXaTufWTWB4T4zBjIvAsois3EzbNXYwUzlitc+USDSYvwGkhJdqrb6qmVfQ7nGGpCVC+fCcU+ueZOOoyH9jIuCdXOUwcsi8fa8C70UI7ezxDYipwd20O5OjmZHkquGIQbsQwHHtsygA8tvoHa6k0TDceHvM+kRnjTEzKYOlF7Hu8wy96R2nOMRNyL4vR8bMhdwHDYBcjism6lzzQ3BOm3UtaX1VdZCdB2Vh5DjasVPVys+pSIluYA0X3MPE7JSx8tS3sZ9luRgbOik7GaMfg3FyxDfohPcn+GxUF4Wy/JM/8MEwa8fmoXzjDgUCRjJibGJTHNZCENqYqwYlqxrXTwHJ6puYij1SXYT++khoFWtA/2MKmB2BYZVPAfefQoxpGJYEIFxtG2TDHimWnvhjkrsbpggRU9zITbDp63Gp+WOAjvpV9PNlzACyXbcZZxV5poHx7eH4HUwRjcQi3jkrw5SI9NsWK9y2jtaoHS1kjS1E+7ljbGjpcv79sn96Ois4FZT2jixbyuPeF9ZFP6mWQ5BlG9NL0g7xLLPUpydBIyk9KwqmA+NuUvYpZvpjSZhOAgvI9B7+GG7yIjnJ2iJ9XesqO0FixXDChm+IhBVlwGshkqOotINI1OERlMhJYUEw8lUw60U4Qifp2tKcd+5q+60FmLzr5u1DNseCcz5klRJIVRf3g/9yT9lr2LOJgwhiJMCovDopw5WJozF7O4KVeytlCIHeNjSK74koPwfnShJBp9RP5eWma+c2IXdlfQjNbVhD7y+mIcIhgGcIBIqWQEMYhDclQSZfyUcpBtsDJ+UF0v6FG6HEpGIplKU+kcY6KYllMsB3eSPT3MyEpPLpf5yJaFsXcaaOKsiMkN3S3ojguzYjgysSAGWGcYU1L2SzEqGTo3nrJ3iexhCOvIeGyevQJbildR0hIfEvsPq4Ouwh8H4cfQybIdv9hUhUPVZ5jFrh6V7TW0MuywqC5T9BKFicb0wRX/rDQ8MmHQpGGaMCt9TgSvkyiDYm+Jiiw1vuWzy1IDFBPKgfHSt+66dC95EJ7T9OIZ5k9i2lSIkicxY15qZAKmxmcik6kjV5Enn56Rg9gQtnfhK44bOAgfgK6V2YL8QFt62i2+ur6jBfuqTqPJ1YluWl4NMNioKDuXBKL6pa2k5XsrwyyyJJoQMnG+NDGoJuL5CMbED+M1eRZFc4EYoIRFfHdCVCwWTZ1lRVMuSMtBTkIaz8VY6Xai6AnmgO8ecBDed/9c8dUmToLT9eVoZzrMloEuXGDqzTZ6arVR89mrxGMyYGE6n2hm/ZPBVhgRWxmsw3spRiQCL8kvwnRmPymaMgOplBg5cGU94CD8lfXfmO5u56aznflTO1zd6OXmUqr/SBpriU0JJ9+u9JR5zHo9kTS+Y+qocbjJQfhx6FSnyuDtATKWDjg9MHl6wEH4yTPWzpuyBxyEd9BgUvWAg/CTaridl3UQ3sGBSdUDDsJPquF2XtZBeAcHJlUPOAg/qYbbeVkH4R0cmFQ94CD8pBpu52UdhHdwYFL1gIPwk2q4nZcNrQQ9znhd1R7Yu3cvysvLrWcuW8aoBvn5V/X54/GwoKPwSnBwzz33oKioyPpcf/31tCVv9/rucpz4yEc+4i6/bt06NDQ04MKFC9AgmXp+4zd+w2sdulBXV4fVq1e7y3/iE59wx53/wz/8Q/f573//+z7rudoXS0pK3G3T+wYSfvrTn+KP/uiPrI+QfyJA0CF8VFQU/uVf/gX6FlRXV+Mf/uEfvPb1D3/4Q+zfv999/atf/SoyMjIsaqTBMvDWW2/hueeeMz8v+/7Lv/xLtLS0WOeVLfCf/umfLG8knbC8ky67wzkRij0QdAivThRV/tKXvuTuzyeffBLbtm1z/zYH58+fx7//+7+bn3jwwQdx0003uX9/+MMfxqZNm9y/NRlEyYeDJoImhAEhf25uaEceM+/ifA/tgaBEeDXx137t17By5Up3a//sz/5sCGsjVuZP//RP6e2vaLdAXl4e/vzP/9xd3hxodUhNTbV+tra2QshsB00ATQQDt912G+69N/SSdZn2O9++eyBoEV7OzWIr4uOZG5QwnLX50Y9+5GZlVFZskClrf+XMzEz8zd/8jfvUcNZGE0ATQZCdnT2krPumCXbQ3Nw8JLnzWF7PsH9jufda3hO0CK9OEdUWZTdgWBuxMv/2b/9mTuNzn/scli/3HrD/1ltvHUK1DWtjZ2UUMUATLCUlxV3vRDp46aWX8Cu/8itYv3491qxZgyVLluC+++6zVjd/kVeEQeOxefNma4O/du1a/Pqv/zrefffdkOmqoBdLfuhDH7L46zfffNPqVHV4Tk6Om5VZsGABvvCFL4zY4X/xF3+B3bt3o6qqyqLoX/7yl3Hs2DH3fR//+MctZHCfmCAHknD99V//9WUbdknDTpw4YX1ef/11a7JLwuUNamtr8bGPfQynT592F2lqasJ7772H7du344tf/CI+//nPW6FG3AWC8CDoEV599rd/+7c4ePCgJW4Ua6OPQPlZ//Vf/xWRjPw1EiQlJVmD+qlPfcqSuuzcudN9y6xZsyDR40QEsWwvvvii9WpK8Xn33Xdj0aJFEAKLiJw6dQo1NTX47Gc/ixdeeMGrrP2//uu/LDHtnXfeCU0MsUXvv/++JUzQfuo//uM/LJZQgoNghqBmaUzHpaenD9lYmvNC0pkzZ5qfI35rKRfC20GT5Wtf+5qV79V+fiIc79ixw43sCQkJkA7h7//+7y29haRgYhG3bNlivWovkxNrJfAGQmqtrmIlH3roIXzmM5/Bo48+OkSa9t///d9WomhvdQTD+ZBAeHWUWJfhGbd98e3eOnf4PdrUzpgxw1vxkD7/v//7v+72a6LbpV66IIovKVZs7KVMH2JNjh496r7HfjBv3jxIGTccxMZoryWorKzE1q1bhxcJqt8hgfBS/PzxH/+xm283PSgKL8rkLzQ2Nl5GxcQe/d3f/Z2/VYy6XFtbm6X1leZ3NJ9RP8jDDXZ++/777/dQgvlXKbK94YYb3NfE4niC22+/3SN/LgmZtOEGpPkNZhiZ+Q2C1v/4xz+G4bkVc1HiRyHSmTNnLB5e8nh/QBtXmR0INNDiQwVPPfWUtbTblVbWhQD8kSTILhb1t8rjx49b8SX9LT+8nCa3eT8h5bRp04YXcf8uKChwH589e9Z9bD+YPn26/eeQ4ylTprh/a1IHMwQ9hRfFkIzdgHjHr3zlK+YnJI83k8F90sPB008/jTfeeMN9Rbzoww8/7P5tnwzuk9f4wOVy4cCBA+6Pp+Z4M3vo7lYOkEugfYqQ3huItTHQ1dVlDod8D2cn7RdFhAyozcEMQU3h+xlUVOJDw7bMmTPHEkHKzubll1+2ENiwO88//zySk5M99rV4S0l6DAjRN2zYYMmiJVaTqFIUUSvFt771LVMsIN+Se0uSNFoQgkruLfMIA4cPH75sH2OXoRuNsspPnTrV4s2F+Oo/vZ9sjDyBsYjUtdmzZ3sqYklyPF7gSbu5RrBbVAY1wn/jG99wy8pFRf7xH//RbVQmicKePXssgy/x4fotactwkHRBRmQdjNgrECIYozIZiYl//9Vf/VXr2ttvv42f/exneOSRR6zfgfhTWFgIfcYCUoJpEhtNsBBTIlQ7SAlnwM62SJGm50rWLpAI0r6imXskj7crjrwhvCQ+H/3oR81tQ77tlpTBjvDe17khr3T1f4iaffOb33Q/WKzMwoUL3b8lXbHbxUiGbOTN7kI8kDWlFE4GhOBCdAOi9HZEkNQimPhQu9j18ccfN822vkW5ZcJrYDifLfGhAa1c9fX15qf7W31sKLR4+RUrVriv2Q80YY4cOWI/ZR1rhTTnpeuwb2AvKxwEJ4IyerCWYRlwlZaWWl0kVuaZZ55xU3d7v/3Wb/2WmzcXNRRrYzZR2tQ+8MADbpZIiG03FDP1SBt51113WayNzknt/sQTT7j5XrFVxrS4uLjYL4otMZ5MHq4UNJF///d/313NzTffbJkGaNP+yiuvWIojc1GbbztR0OomTbXRKGsFkFbaKJ5EIHSPAcnpxYIZ+L3f+70hRETCAknG5DcgXl9UXwoprRKC3/md38FIfgem7mv1HZQIL6nGY489ZvWJWJmf//znQwbS3lmiWnfccYfbll0D9r3vfc8yjtJgmyVdk0ADbKfu9nokgzasjc5LMfObv/mbVhE7wtvv8XW8ceNGSzHjq4y/19Qutc8XaMJ6Yum06f/t3/5t+BIXqo+NaYD9GXaE1+pRVlZmvzzkWBIuPd/I9IdcDKIfQcfSaGDty/RwVmZ43w1nbUR1JMb8+te/7kZ23SMNozdk1/XhrI20ht6UMCp/NeE73/mONQHt0hTzfLERIhDeNsbi+bU6SmkUF8d03DYQn68VS6uZFEi+QP0pW5rh0h49XyuQ+ivYkV3vF5QU3lfHT+ZrYh3E5mmjqsmrTakM6YYjobc+Eotz8eJFS38hiY0cbWRyMBqQ/8HJkyctvn/u3LkQ5dfECRVwED5URsppZ0B6IOhYmoC8lVOJ0wNeesBBeC8d45yemD3gIPzEHFfnrbz0gIPwXjrGOT0xe8BB+Ik5rs5beekBB+G9dIxzemL2gIPwE3Ncnbfy0gMOwnvpGOf0xOwBB+En5rg6b+WlBxyE99Ix43nahAccz2c4dXvuAb8QXma23kBWeMPttL2V9fe8rPtkVy1jJbuDg7/3j7WczFsVqlsf4zDS2dmJ7373u1bAobHWq/tktSn7dEVN+OQnP3klVQXkXrk0yhFGTjX+gkyJ//mf/9mjXb0/dch+X15s/oLwzhj1jaadvuof0eNJ9uWygZar2e/+7u8OcaOTOahik8i8VOahWVlZvp7l1zV5L8n3VIZO6pyr6UEjjyLjtS+bfBO4SOdlpKVwdb4sLn29oAy1NHk0kRRUSoMpO//Rglz1vPmxqi5ZL3qyqhz+HI2rbNoVYkMRIUYCPfPb3/62Zbwma1T5CPtqv95Vk1zO6OYjB3H5Lxiza1/P1NirXTL/1idQjiU+EV6OEZpZQj6Z7F533XXuwD1qrDpWDdPnBz/4geV/6usl/Ln2i1/8wp2IQDbe/loC+lP3SGXsiCLLRPnOKnainMYVnUuxJz05kAgJNRlGArnPmagAMudVf44Emzdvdsd9UVk5gPhKEPGf//mfUATkQIPcH2WpKVAcH0VEkFul2qKPJrI51re3iSkPK4UMkaulL5BJtN08WybOcnjxB7SC2r297Pf4RHhFCzBuYTfeeOMQZFclqljOFprNctjQQ+Qm5gvkYmcG3VM54y6ma7JtVwBQf0EIZHfi8Pc+U84kYdBv48WjlU3ILDdBTUa983DKJidwTxPB1OvpWwikz0ggxxUT6GiksuN5Xa6SBtTH8re1+y2Ya96+xQUsXboUcowRgfQF+/bts+zr7WV8OZ/Yy+nYhGIZfl6/vSK8vIPkGCCQa5fdf9Q6yT96aSGAZq2Wxz/4gz+wnKD1ct5ACK3QE/6AYS/8KasyxrVPx/JLVezD0YCZ3LpHLn1yLhHIJU5ZRkSZ9K2PJvfVXH2shtj+yF3PhA0U6yAKaED95mvQVc4gnTbQIiwCRT2YP3++dWz/o/pMKBSFFNceR8RBziXaw2m8FcZDDiCi7ibKhALUqj7Zzausp3Dm9ufoWG6GWv1MuA+9p7doC+ZeBZwyYUlkm+/NEV3lPSK8+Et7cgEhux2ZzIP0LZ5MDr66R8isxpqoAPZy5lgxUjxNCPGIYp0MeCpjrnn7tt+jtniapN7uHX5evprDQRReH4FCTXuK1aJBHs2qNPwZ+i3+WsFJfYEQzyD8q6++OgTh5Z2kiMD+gBy4TXsV/tpOyc39WsUNyHPKrIS//OUvrbG0T3z58ZqVS26D/oYfV2SGP/mTP3H7J5vnKQyJvLFEYIY7mohAaWWVw79A7ZBnm6+AWpchvGazOkBsikAJw7yFadN18b3avMp/VDNbnaOZbk9Zo3IGfvKTn5hD97eojQZPYTcE6lT7hHMXDIEDOZJfKQuSlpYWNG+qEB5CbIEotPDBgEF88/tKvsUm2dlZscbaM2jFkERJRECxhSTEEHFUIFjtqeTMLhCyiwXXvs8XDEF4PVCpZkxwH0XbtSck8FaRJBCipmqYGvM///M/VhxIOT8Pn5We6lBoDIPs2hCJNTKgDaNEk4ogbM/nZK57+1bgUMW1GQ2oU83GSKya3t8b+BpsRQkwS6y3+32dVx9eCSg6g69Y76pbfa59itgYUWKBJFF2EPXXam3aIx5cUqDxAImitTpoUv3VX/2VFbVCMYJEsdWX2kMJmVVm165dQ0KvCGeE7GrfSGAhvFgJUWbt8A3/Je9/8ea+BtZeuZYc3WviKEpcqYGXlMfXjly8p8RcAs1Slbc7A2u5Uj3eWCp7G+zHKj/aexShzCC8RKy+lkb7s9RH5h2FEPL2F3UaK2iiKhSGQBN9tGBP5ObtXiGIEF5iVuk7hoNwQoRH0parARI7CneEd2aFVEAs9YPaIYmN8Evsmh1URuJLf/YHus9CePFI77zzjrseDbSoqV1M577o40Adp47SrNS3No2alQrbbAbQfrtews5ni6p6CwRkv2+8jsUXGxDy+wvalBm+VfeIMl0JKGb7SJNNPK8ZMxN35kqeOfxeydxHu+kfXsdof9sDYmnTrcyNekdvEhpxD3Io10ZXk1wh1e37CU/PtxBeHayKVVhLi2aS+KOxgmI0CsnVaO2y1ZDhIEmHFBBmRdF1UXOzgTLljaZVlGb4NVNG31qih1P00bAV2kzbFWcVFRX26kd1LFbO8Jb2GzWJzGZYlEzSDk8w0qDpHklHlLXDG2hfJESQRGy0rJ3e3bTTW/2BPK+xlaRFgg99awJLWWVYKfMs9YvYTCkCNQl0/dChQ9ZH7dVquGrVKitJhiI6aB+gb3vMUQvhNbMkafn0pz9tqXI1W6RoGStIPquNjii9eMDhoSDENggp7MiuZ2kSeAOVNeIzT2U8Rb3VamHEW57usZ9TxCx7uhbJ1scK3qizBtEgksR0voQBY322uU/acUUtE6i/R6OMEi+vGDbaMAonfkClogERMXs/mfPm2y4O1YT2toeTYEL7RRFaXxNX9UosrLqUbseIKIUrEh1LR2L2nJo4kljZQeW1+hpuxUJ4zRxptgIF4qdELT1tMsXbi380s1eTwditaIYa2bdpi+TpkhVL5CgksYM6197B9mtjOdZqJFGjnicqojZ6GzBf9YulkdxarI72NvaVw9d9o7mmvjAmAVLUaL9lB0lTDMKL8IiI+c3ncrXbTA2v+kL7ETvCU9s5yQAAB9VJREFUi1X1lxiYXFz2dpljswKqXeone/IG4cDixYutTegtt9xiUWltWtWXAk0QKQRllyShiiaNpEkiKKrHbpynCWuQXfdaCK8DO8hIyCgmdF62H0bMqJiP6oThoGVTIfEE9k2nvZy0sTI+MiDpjsSPmu0CrTSy17GDYkNqiRPSSIpiB1FLX8u16rW/h1YIo+WVHN2+1C1btsxi6aRF1d5CK4bKDteq2p/v7VgIrzaLsgYyErH9eWq7kEXgaXWTlEr7JyG9VmtFBhPV9xfEboodMBpnc59YP199InbIiLQVCNauGzF16NtQahEUcQEaGyG54noaAYC9vAifYTPtLJ8EBlpRzaqqCSk2WMo48ffDN+QeEX44RbKzGsp5OpxXVsPsjfBGSbQkaTOkmS8rOO247dpN+wsG4thQQFOX9hYG4bVR14AOB01CY8OhMNC+Bnf4vfqtQTGbSIWxMwM7vKwUWIpx7w1EdDz1s7fyns4LkZSIWQgoSZh0HcNFj57u07nhq6kpJx2BWTnMOfu3XfEkTb0/iieZG6iflFlQFNpO7U3d9pDc4t9F1X2B2FlPMnmPCG+vSMu64Yu0NHiT74rfM+BNViuZr0SfEkVKOqPZP54Ib9ozmm+pwk1EXXWyXdHiTz2mr1RWk9obaEPta1NtX5m81THSeUmdtKRLL6I9kFZDIzYe6d6rfV0stadw557aIaKpjy8QG+dprzEiwr/22mvuvKhSPXuj3kpSK9Bmx1sZXZdywB8FgcpeC1CCL2MIZpRho2mHvwiv/YIvmw9vbOFo2qKykmwpLZAIklZqLfn21Xi09YVKeU9mH2q7T4SXhMMegtmXWNBQam9LeKh0lBBRUgFpncX7ihdUrHeBWAOJ+bxRbpWXmMzAs88+OyTeujmvb4mCr8R8Qm0xrJcCpHoD8fqShkiCIclYsCK7nG+84ZeSORjbIG1WZcbiCSRpNKk6x4TwkrKYbBja1El27A2McmC4lMVb+UCcv9JlX+zauXPnINZFkg7x70IOifCMXYf4UJOwV5sg2XyIP9S54fy92DUjfdL7STSrfcJ4JAmQzZOnJdtTv+r5Y5E2eaprvM55y5UrRNc+RKANqowV7QpCe3vsK7K3vYNXCi9pikSIAlEFT5IZ8zCp0c3O3Ntmx5S90m/ZUWh5FrIb9kHt8/aC5nlayu1yf+0htDkyqR1VzlAYJVjQyqZ7hLSyNdHKJbGXQJNDdiZ2hJeXluH9xdaJXdGkMZNAE+laQbAju6d+EeEQsZHBmCFsMjHwhuyqw7DVOh4ueNE5wWUILxmmGH5jC69C2uh4Mg3QNYFdle5Jq3qpVGD+KtOzNIh2kAhuuM2J1OJa4rTc6yO5uh3h7XmfVJcmjRFT5ubmWtRTkhSJ/LTZ0wQx94jS2DN6SxcgwzkDklRIHCZTCbFEQnr1kaRUgQJRRLNyiLUxGVMCVf+1rEdsoXQ1dop99913WxtwX+0yLJ7G0ps0agjCS1migTPsiSqX7FYCf9luSGykwZa0Rh/9FlLZEdCOCL4aN9Zr2jib54lySW7ryUdSSK7NmidQ26XskERGH/HoEiHaN4rKhSTqrkkiZNJ7m7Tqmvz2suLFxSMLZPgkaq5naIUUVZKMWaJYs2KqnCakbN5FicQGSgEnvlMfDZhxmdPKqXceTrG04khHIZBUzOhAhlNzSYJk0qD2qm59i40zEiJvcnKrYh9/hBdmxbMXM7JynZOES+8yHCSOHi4SFqFV/2rMtIIa0P3SAYmIGNCYqH8NSFcgPDQESXV7E5y4EV4PkvudASkYlMrEuMyJQo6kCpcdg9ngmXpG+hZlNtTRnpDL233aMAoRBRr04Yhg7lNbBLIGNEhtEFxs10gDLRm47IrMpv0HNvW6XZkhvt7wmBocrYZmMNQ+TU6pwOUYYzfXkN2IPv6AXeYshZmQ1c7zys/VULfh9Yn9U9p4b+DLBNrbPTovojhS+73llbJrQmUW8JWvfMVC9uEKNO2VRDCGE1GZD0sgoMkr9lGsjNhPA5K0eQM3wmu5VTgKDYp4Uy0pduTVsZQOdj7JXqmkG3bLR/s1X8eiTvIS8hdEaUWNRwLNcs16Y2o6UnlP16XC1spmN7sQdbd3qNoiWbcmhBRbniQ4sgPRkizjOKnANUm0fxARsQ+UpzaI+tsVUIY4eCrr6ZzuVx/oWcNBE1PtGgtoMtvbNZo6REwNaO8lvLIju4iVcnt5i1Qg32VFTdDqZ/aOpj5pXO2rgTlvvoekvJHITXJ3qfcNlTIF9a1lU8uhHbRMim+XBGesISzs9Q0/lq2EnqkOlnr8WoBYPZk1aJkUq2PPeK32aFMlD5zRmhEI2UXhtAfQ5llLtT5aoiUS1sZNyOBN2edvX0gzaqxOzT3KzSTHfG9KQlNO7TFiQOlPxkNxpf4TJZd1o7gI++pl2mH/FhFSLCQhu7HDkieUpGy+9pqqYwjC2yt1jp0emIg9cPmOYiK+pfNOTg980AMOwjuoMKl6wEH4STXczss6CO/gwKTqAQfhJ9VwOy/rILyDA5OqBxyEn1TD7bysg/AODkyqHnAQflINt/OyDsI7ODCpesBB+Ek13M7LOgjv4MCk6gEH4SfVcDsv6yC8gwOTqgcchJ9Uw+28rIPwDg5Mqh5wEH5SDbfzsg7COzgwqXrAQfhJNdzOy/4f4n3qTiIx6BcAAAAASUVORK5CYII=;" vertex="1" parent="1">
          <mxGeometry x="1250" y="1020" width="93.07" height="100" as="geometry" />
        </mxCell>
        <mxCell id="-s-YMTsCyma7wOPpWQ3m-69" value="日志ELK" style="rounded=0;whiteSpace=wrap;html=1;fillColor=#FFE599;" vertex="1" parent="1">
          <mxGeometry x="1236.54" y="1200" width="120" height="60" as="geometry" />
        </mxCell>
      </root>
    </mxGraphModel>
  </diagram>
</mxfile>
